SplineFontDB: 3.2
FontName: Atari-825-Elongated
FullName: Atari 825 Elongated Regular
FamilyName: Atari 825 Elongated
Weight: Book
Copyright: Copyright jeffpiep 2020\n"Atari 825 Regular
Version: 1.0
ItalicAngle: 0
UnderlinePosition: 74.707
UnderlineWidth: 49.8047
Ascent: 800
Descent: 200
InvalidEm: 0
sfntRevision: 0x00010000
LayerCount: 2
Layer: 0 1 "Back" 1
Layer: 1 1 "Fore" 0
XUID: [1021 991 -801047843 26433]
StyleMap: 0x0040
FSType: 4
OS2Version: 2
OS2_WeightWidthSlopeOnly: 0
OS2_UseTypoMetrics: 0
CreationTime: 1592073470
ModificationTime: 1592075249
PfmFamily: 81
TTFWeight: 400
TTFWidth: 5
LineGap: 0
VLineGap: 0
Panose: 0 0 4 0 0 0 0 0 0 0
OS2TypoAscent: 889
OS2TypoAOffset: 0
OS2TypoDescent: -111
OS2TypoDOffset: 0
OS2TypoLinegap: 0
OS2WinAscent: 889
OS2WinAOffset: 0
OS2WinDescent: 111
OS2WinDOffset: 0
HheadAscent: 889
HheadAOffset: 0
HheadDescent: -111
HheadDOffset: 0
OS2SubXSize: 500
OS2SubYSize: 500
OS2SubXOff: 0
OS2SubYOff: -55
OS2SupXSize: 500
OS2SupYSize: 500
OS2SupXOff: 0
OS2SupYOff: 500
OS2StrikeYSize: 50
OS2StrikeYPos: 200
OS2CapHeight: 789
OS2XHeight: 566
OS2Vendor: 'FSTR'
OS2CodePages: 00000001.00000000
OS2UnicodeRanges: 80000001.00000000.00000000.00000000
MarkAttachClasses: 1
DEI: 91125
ShortTable: maxp 16
  1
  0
  102
  636
  20
  0
  0
  2
  0
  0
  0
  0
  0
  0
  0
  0
EndShort
LangName: 1033 "Copyright jeffpiep 2020+AAogHAAA-Atari 825 Regular" "" "Regular" "Atari 825 Elongated" "" "Version 1.0" "" "FontStruct is a trademark of FontStruct.com" "https://fontstruct.com" "jeffpiep" "+IBwA-Atari 825 Elongated+IB0A was built with FontStruct+AAogHAAA-Atari 825 Regular" "https://fontstruct.com/fontstructions/show/1773493/atari-825-regular-2" "https://fontstruct.com/fontstructors/show/1011029/jeffpiep" "Open Font License" "" "" "" "" "" "Five big quacking zephyrs jolt my wax bed"
Encoding: win
UnicodeInterp: none
NameList: AGL For New Fonts
DisplaySize: -48
AntiAlias: 1
FitToEm: 0
WinInfo: 0 22 7
BeginPrivate: 0
EndPrivate
BeginChars: 256 99

StartChar: exclam
Encoding: 33 33 1
Width: 1200
VWidth: 750
Flags: W
LayerCount: 2
Fore
SplineSet
406 0 m 1,0,1
 388 0 388 0 374 14 c 128,-1,2
 360 28 360 28 360 46 c 0,3,4
 360 65 360 65 374 78 c 0,5,6
 388 92 388 92 406 92 c 0,7,8
 425 92 425 92 437 78 c 0,9,10
 452 64 452 64 452 46 c 128,-1,11
 452 28 452 28 437 14 c 0,12,13
 423 0 423 0 406 0 c 1,14,-1
 406 0 l 1,0,1
526 0 m 1,15,16
 508 0 508 0 494 14 c 128,-1,17
 480 28 480 28 480 46 c 0,18,19
 480 65 480 65 494 78 c 0,20,21
 508 92 508 92 526 92 c 0,22,23
 545 92 545 92 558 78 c 0,24,25
 571.066666667 64.9333333333 571.066666667 64.9333333333 571.066666667 48.3822222222 c 0,26,27
 571.066666667 28.0717948718 571.066666667 28.0717948718 558 14 c 0,28,29
 544 0 544 0 526 0 c 1,30,-1
 526 0 l 1,15,16
406 250 m 1,31,32
 388 250 388 250 374 263 c 0,33,34
 360 278 360 278 360 296 c 0,35,36
 360 316 360 316 374 328 c 0,37,38
 380 334 380 334 386 338 c 1,39,-1
 386 338 l 1,40,41
 380 340 380 340 374 346 c 0,42,43
 360 360 360 360 360 379 c 256,44,45
 360 398 360 398 374 411 c 0,46,47
 380 417 380 417 386 421 c 1,48,-1
 386 421 l 1,49,50
 380 424 380 424 374 430 c 0,51,52
 360 444 360 444 360 462 c 0,53,54
 360 481 360 481 374 495 c 0,55,56
 380 501 380 501 386 504 c 1,57,-1
 386 504 l 1,58,59
 380 507 380 507 374 513 c 0,60,61
 360 527 360 527 360 546 c 256,62,63
 360 565 360 565 374 578 c 0,64,65
 388 592 388 592 406 592 c 0,66,67
 425 592 425 592 437 578 c 0,68,69
 452 564 452 564 452 546 c 256,70,71
 452 527 452 527 437 513 c 0,72,73
 430 507 430 507 424 504 c 1,74,-1
 424 504 l 1,75,76
 431 501 431 501 437 495 c 0,77,78
 452 481 452 481 452 462 c 128,-1,79
 452 443 452 443 437 430 c 0,80,81
 430 424 430 424 424 421 c 1,82,-1
 424 421 l 1,83,84
 431 418 431 418 437 411 c 0,85,86
 452 397 452 397 452 379 c 256,87,88
 452 360 452 360 437 346 c 0,89,90
 430 340 430 340 424 338 c 1,91,-1
 424 338 l 1,92,93
 431 334 431 334 437 328 c 0,94,95
 452 314 452 314 452 296 c 0,96,97
 452 277 452 277 437 263 c 0,98,99
 423.933333333 249.933333333 423.933333333 249.933333333 408.253333333 249.933333333 c 0,100,101
 407.133333333 249.933333333 407.133333333 249.933333333 406 250 c 1,102,-1
 406 250 l 1,31,32
526 250 m 1,103,104
 508 250 508 250 494 263 c 0,105,106
 480 278 480 278 480 296 c 0,107,108
 480 316 480 316 494 328 c 0,109,110
 500 334 500 334 506 338 c 1,111,-1
 506 338 l 1,112,113
 500 340 500 340 494 346 c 0,114,115
 480 360 480 360 480 379 c 256,116,117
 480 398 480 398 494 411 c 0,118,119
 500 417 500 417 506 421 c 1,120,-1
 506 421 l 1,121,122
 500 424 500 424 494 430 c 0,123,124
 480 444 480 444 480 462 c 0,125,126
 480 481 480 481 494 495 c 0,127,128
 500 501 500 501 506 504 c 1,129,-1
 506 504 l 1,130,131
 500 507 500 507 494 513 c 0,132,133
 480 527 480 527 480 546 c 256,134,135
 480 565 480 565 494 578 c 0,136,137
 508 592 508 592 526 592 c 0,138,139
 545 592 545 592 558 578 c 0,140,141
 571.066666667 564.933333333 571.066666667 564.933333333 571.066666667 548.382222222 c 0,142,143
 571.066666667 527.071794872 571.066666667 527.071794872 558 513 c 0,144,145
 552 507 552 507 545 504 c 1,146,-1
 545 504 l 1,147,148
 552 501 552 501 558 495 c 0,149,150
 571.066666667 481.933333333 571.066666667 481.933333333 571.066666667 464.511111111 c 0,151,152
 571.066666667 443.066666667 571.066666667 443.066666667 558 430 c 0,153,154
 552 424 552 424 545 421 c 1,155,-1
 545 421 l 1,156,157
 552 418 552 418 558 411 c 0,158,159
 571.066666667 397.933333333 571.066666667 397.933333333 571.066666667 381.382222222 c 0,160,161
 571.066666667 360.071794872 571.066666667 360.071794872 558 346 c 0,162,163
 552 340 552 340 545 338 c 1,164,-1
 545 338 l 1,165,166
 552 334 552 334 558 328 c 0,167,168
 571.066666667 314.933333333 571.066666667 314.933333333 571.066666667 298.382222222 c 0,169,170
 571.066666667 277.071794872 571.066666667 277.071794872 558 263 c 0,171,172
 544.933333333 249.933333333 544.933333333 249.933333333 528.382222222 249.933333333 c 0,173,174
 527.2 249.933333333 527.2 249.933333333 526 250 c 1,175,-1
 526 250 l 1,103,104
EndSplineSet
EndChar

StartChar: quotedbl
Encoding: 34 34 2
Width: 1200
VWidth: 750
Flags: W
LayerCount: 2
Fore
SplineSet
285 333 m 1,0,1
 283.733333333 332.933333333 283.733333333 332.933333333 282.493333333 332.933333333 c 0,2,3
 265.133333333 332.933333333 265.133333333 332.933333333 253 346 c 0,4,5
 239.933333333 359.066666667 239.933333333 359.066666667 239.933333333 376.488888889 c 0,6,7
 239.933333333 397.933333333 239.933333333 397.933333333 253 411 c 0,8,9
 259 417 259 417 266 421 c 1,10,-1
 266 421 l 1,11,12
 258 424 258 424 253 430 c 0,13,14
 239.933333333 443.066666667 239.933333333 443.066666667 239.933333333 459.617777778 c 0,15,16
 239.933333333 480.928205128 239.933333333 480.928205128 253 495 c 0,17,18
 259 501 259 501 266 504 c 1,19,-1
 266 504 l 1,20,21
 258 507 258 507 253 513 c 0,22,23
 239.933333333 526.066666667 239.933333333 526.066666667 239.933333333 543.488888889 c 0,24,25
 239.933333333 564.933333333 239.933333333 564.933333333 253 578 c 0,26,27
 267 592 267 592 285 592 c 0,28,29
 304 592 304 592 318 578 c 0,30,31
 331.066666667 564.933333333 331.066666667 564.933333333 331.066666667 548.382222222 c 0,32,33
 331.066666667 527.071794872 331.066666667 527.071794872 318 513 c 0,34,35
 312 507 312 507 304 504 c 1,36,-1
 304 504 l 1,37,38
 311 501 311 501 318 495 c 0,39,40
 331.066666667 481.933333333 331.066666667 481.933333333 331.066666667 464.511111111 c 0,41,42
 331.066666667 443.066666667 331.066666667 443.066666667 318 430 c 0,43,44
 312 424 312 424 304 421 c 1,45,-1
 304 421 l 1,46,47
 311 418 311 418 318 411 c 0,48,49
 331.066666667 397.933333333 331.066666667 397.933333333 331.066666667 381.382222222 c 0,50,51
 331.066666667 360.071794872 331.066666667 360.071794872 318 346 c 0,52,53
 304.933333333 332.933333333 304.933333333 332.933333333 287.511111111 332.933333333 c 0,54,55
 286.266666667 332.933333333 286.266666667 332.933333333 285 333 c 1,56,-1
 285 333 l 1,0,1
406 333 m 1,57,58
 404.8 332.933333333 404.8 332.933333333 403.617777778 332.933333333 c 0,59,60
 387.066666667 332.933333333 387.066666667 332.933333333 374 346 c 0,61,62
 360 360 360 360 360 379 c 256,63,64
 360 398 360 398 374 411 c 0,65,66
 380 417 380 417 386 421 c 1,67,-1
 386 421 l 1,68,69
 380 424 380 424 374 430 c 0,70,71
 360 444 360 444 360 462 c 0,72,73
 360 481 360 481 374 495 c 0,74,75
 380 501 380 501 386 504 c 1,76,-1
 386 504 l 1,77,78
 380 507 380 507 374 513 c 0,79,80
 360 527 360 527 360 546 c 256,81,82
 360 565 360 565 374 578 c 0,83,84
 388 592 388 592 406 592 c 0,85,86
 425 592 425 592 437 578 c 0,87,88
 452 564 452 564 452 546 c 256,89,90
 452 527 452 527 437 513 c 0,91,92
 430 507 430 507 424 504 c 1,93,-1
 424 504 l 1,94,95
 431 501 431 501 437 495 c 0,96,97
 452 481 452 481 452 462 c 128,-1,98
 452 443 452 443 437 430 c 0,99,100
 430 424 430 424 424 421 c 1,101,-1
 424 421 l 1,102,103
 431 418 431 418 437 411 c 0,104,105
 452 397 452 397 452 379 c 256,106,107
 452 360 452 360 437 346 c 0,108,109
 423.933333333 332.933333333 423.933333333 332.933333333 408.253333333 332.933333333 c 0,110,111
 407.133333333 332.933333333 407.133333333 332.933333333 406 333 c 1,112,-1
 406 333 l 1,57,58
766 333 m 1,113,114
 764.8 332.933333333 764.8 332.933333333 763.617777778 332.933333333 c 0,115,116
 747.066666667 332.933333333 747.066666667 332.933333333 734 346 c 0,117,118
 720 360 720 360 720 379 c 256,119,120
 720 398 720 398 734 411 c 0,121,122
 740 417 740 417 746 421 c 1,123,-1
 746 421 l 1,124,125
 740 424 740 424 734 430 c 0,126,127
 720 444 720 444 720 462 c 0,128,129
 720 481 720 481 734 495 c 0,130,131
 740 501 740 501 746 504 c 1,132,-1
 746 504 l 1,133,134
 740 507 740 507 734 513 c 0,135,136
 720 527 720 527 720 546 c 256,137,138
 720 565 720 565 734 578 c 0,139,140
 748 592 748 592 766 592 c 0,141,142
 785 592 785 592 797 578 c 0,143,144
 812 564 812 564 812 546 c 256,145,146
 812 527 812 527 797 513 c 0,147,148
 790 507 790 507 784 504 c 1,149,-1
 784 504 l 1,150,151
 791 501 791 501 797 495 c 0,152,153
 812 481 812 481 812 462 c 128,-1,154
 812 443 812 443 797 430 c 0,155,156
 790 424 790 424 784 421 c 1,157,-1
 784 421 l 1,158,159
 791 418 791 418 797 411 c 0,160,161
 812 397 812 397 812 379 c 256,162,163
 812 360 812 360 797 346 c 0,164,165
 783.933333333 332.933333333 783.933333333 332.933333333 768.253333333 332.933333333 c 0,166,167
 767.133333333 332.933333333 767.133333333 332.933333333 766 333 c 1,168,-1
 766 333 l 1,113,114
886 333 m 1,169,170
 884.8 332.933333333 884.8 332.933333333 883.617777778 332.933333333 c 0,171,172
 867.066666667 332.933333333 867.066666667 332.933333333 854 346 c 0,173,174
 840 360 840 360 840 379 c 256,175,176
 840 398 840 398 854 411 c 0,177,178
 860 417 860 417 866 421 c 1,179,-1
 866 421 l 1,180,181
 860 424 860 424 854 430 c 0,182,183
 840 444 840 444 840 462 c 0,184,185
 840 481 840 481 854 495 c 0,186,187
 860 501 860 501 866 504 c 1,188,-1
 866 504 l 1,189,190
 860 507 860 507 854 513 c 0,191,192
 840 527 840 527 840 546 c 256,193,194
 840 565 840 565 854 578 c 0,195,196
 868 592 868 592 886 592 c 0,197,198
 905 592 905 592 918 578 c 0,199,200
 931.066666667 564.933333333 931.066666667 564.933333333 931.066666667 548.382222222 c 0,201,202
 931.066666667 527.071794872 931.066666667 527.071794872 918 513 c 0,203,204
 912 507 912 507 905 504 c 1,205,-1
 905 504 l 1,206,207
 912 501 912 501 918 495 c 0,208,209
 931.066666667 481.933333333 931.066666667 481.933333333 931.066666667 464.511111111 c 0,210,211
 931.066666667 443.066666667 931.066666667 443.066666667 918 430 c 0,212,213
 912 424 912 424 905 421 c 1,214,-1
 905 421 l 1,215,216
 912 418 912 418 918 411 c 0,217,218
 931.066666667 397.933333333 931.066666667 397.933333333 931.066666667 381.382222222 c 0,219,220
 931.066666667 360.071794872 931.066666667 360.071794872 918 346 c 0,221,222
 904.933333333 332.933333333 904.933333333 332.933333333 888.382222222 332.933333333 c 0,223,224
 887.2 332.933333333 887.2 332.933333333 886 333 c 1,225,-1
 886 333 l 1,169,170
EndSplineSet
EndChar

StartChar: numbersign
Encoding: 35 35 3
Width: 1200
VWidth: 750
Flags: W
LayerCount: 2
Fore
SplineSet
46 166 m 1,0,1
 28 166 28 166 14 180 c 128,-1,2
 0 194 0 194 0 212 c 256,3,4
 0 230 0 230 14 244 c 128,-1,5
 28 258 28 258 46 258 c 256,6,7
 65 258 65 258 78 244 c 0,8,9
 92 230 92 230 92 212 c 256,10,11
 92 193 92 193 78 180 c 0,12,13
 64 166 64 166 46 166 c 1,14,-1
 46 166 l 1,0,1
166 166 m 1,15,16
 148 166 148 166 134 180 c 128,-1,17
 120 194 120 194 120 212 c 256,18,19
 120 230 120 230 134 244 c 128,-1,20
 148 258 148 258 166 258 c 0,21,22
 185 258 185 258 198 244 c 0,23,24
 211.066666667 230.933333333 211.066666667 230.933333333 211.066666667 214.382222222 c 0,25,26
 211.066666667 193.066666667 211.066666667 193.066666667 198 180 c 0,27,28
 184 166 184 166 166 166 c 1,29,-1
 166 166 l 1,15,16
766 166 m 1,30,31
 748 166 748 166 734 180 c 128,-1,32
 720 194 720 194 720 212 c 256,33,34
 720 230 720 230 734 244 c 128,-1,35
 748 258 748 258 766 258 c 0,36,37
 785 258 785 258 797 244 c 0,38,39
 812 230 812 230 812 212 c 256,40,41
 812 193 812 193 797 180 c 0,42,43
 783 166 783 166 766 166 c 1,44,-1
 766 166 l 1,30,31
886 166 m 1,45,46
 868 166 868 166 854 180 c 128,-1,47
 840 194 840 194 840 212 c 256,48,49
 840 230 840 230 854 244 c 128,-1,50
 868 258 868 258 886 258 c 0,51,52
 905 258 905 258 918 244 c 0,53,54
 931.066666667 230.933333333 931.066666667 230.933333333 931.066666667 214.382222222 c 0,55,56
 931.066666667 193.066666667 931.066666667 193.066666667 918 180 c 0,57,58
 904 166 904 166 886 166 c 1,59,-1
 886 166 l 1,45,46
46 333 m 1,60,61
 44.8 332.933333333 44.8 332.933333333 43.6177777778 332.933333333 c 0,62,63
 27.0666666667 332.933333333 27.0666666667 332.933333333 14 346 c 0,64,65
 0 360 0 360 0 379 c 256,66,67
 0 398 0 398 14 411 c 128,-1,68
 28 424 28 424 46 424 c 256,69,70
 65 424 65 424 78 411 c 0,71,72
 92 397 92 397 92 379 c 256,73,74
 92 360 92 360 78 346 c 0,75,76
 64.9333333333 332.933333333 64.9333333333 332.933333333 48.3822222222 332.933333333 c 0,77,78
 47.2 332.933333333 47.2 332.933333333 46 333 c 1,79,-1
 46 333 l 1,60,61
166 333 m 1,80,81
 164.8 332.933333333 164.8 332.933333333 163.617777778 332.933333333 c 0,82,83
 147.066666667 332.933333333 147.066666667 332.933333333 134 346 c 0,84,85
 120 360 120 360 120 379 c 256,86,87
 120 398 120 398 134 411 c 128,-1,88
 148 424 148 424 166 424 c 0,89,90
 185 424 185 424 198 411 c 128,-1,91
 211.066666667 397.933333333 211.066666667 397.933333333 211.066666667 381.382222222 c 0,92,93
 211.066666667 360.071794872 211.066666667 360.071794872 198 346 c 0,94,95
 184.933333333 332.933333333 184.933333333 332.933333333 168.382222222 332.933333333 c 0,96,97
 167.2 332.933333333 167.2 332.933333333 166 333 c 1,98,-1
 166 333 l 1,80,81
766 333 m 1,99,100
 764.8 332.933333333 764.8 332.933333333 763.617777778 332.933333333 c 0,101,102
 747.066666667 332.933333333 747.066666667 332.933333333 734 346 c 0,103,104
 720 360 720 360 720 379 c 256,105,106
 720 398 720 398 734 411 c 128,-1,107
 748 424 748 424 766 424 c 0,108,109
 785 424 785 424 797 411 c 0,110,111
 812 397 812 397 812 379 c 256,112,113
 812 360 812 360 797 346 c 0,114,115
 783.933333333 332.933333333 783.933333333 332.933333333 768.253333333 332.933333333 c 0,116,117
 767.133333333 332.933333333 767.133333333 332.933333333 766 333 c 1,118,-1
 766 333 l 1,99,100
886 333 m 1,119,120
 884.8 332.933333333 884.8 332.933333333 883.617777778 332.933333333 c 0,121,122
 867.066666667 332.933333333 867.066666667 332.933333333 854 346 c 0,123,124
 840 360 840 360 840 379 c 256,125,126
 840 398 840 398 854 411 c 128,-1,127
 868 424 868 424 886 424 c 0,128,129
 905 424 905 424 918 411 c 128,-1,130
 931.066666667 397.933333333 931.066666667 397.933333333 931.066666667 381.382222222 c 0,131,132
 931.066666667 360.071794872 931.066666667 360.071794872 918 346 c 0,133,134
 904.933333333 332.933333333 904.933333333 332.933333333 888.382222222 332.933333333 c 0,135,136
 887.2 332.933333333 887.2 332.933333333 886 333 c 1,137,-1
 886 333 l 1,119,120
285 0 m 1,138,139
 266 0 266 0 253 14 c 0,140,141
 239.933333333 27.0666666667 239.933333333 27.0666666667 239.933333333 43.6177777778 c 0,142,143
 239.933333333 64.9333333333 239.933333333 64.9333333333 253 78 c 0,144,145
 259 84 259 84 266 87 c 1,146,-1
 266 87 l 1,147,148
 258 90 258 90 253 97 c 0,149,150
 239.933333333 110.066666667 239.933333333 110.066666667 239.933333333 126.617777778 c 0,151,152
 239.933333333 147.933333333 239.933333333 147.933333333 253 161 c 0,153,154
 259 167 259 167 266 171 c 1,155,-1
 266 171 l 1,156,157
 258 174 258 174 253 180 c 0,158,159
 239.933333333 193.066666667 239.933333333 193.066666667 239.933333333 209.617777778 c 0,160,161
 239.933333333 229.928205128 239.933333333 229.928205128 253 244 c 0,162,163
 259 250 259 250 266 254 c 1,164,-1
 266 254 l 1,165,166
 258 257 258 257 253 263 c 0,167,168
 239.933333333 277 239.933333333 277 239.933333333 293.613333333 c 0,169,170
 239.933333333 315.938461538 239.933333333 315.938461538 253 328 c 0,171,172
 259 334 259 334 266 338 c 1,173,-1
 266 338 l 1,174,175
 258 340 258 340 253 346 c 0,176,177
 239.933333333 359.066666667 239.933333333 359.066666667 239.933333333 376.488888889 c 0,178,179
 239.933333333 397.933333333 239.933333333 397.933333333 253 411 c 0,180,181
 259 417 259 417 266 421 c 1,182,-1
 266 421 l 1,183,184
 258 424 258 424 253 430 c 0,185,186
 239.933333333 443.066666667 239.933333333 443.066666667 239.933333333 459.617777778 c 0,187,188
 239.933333333 480.928205128 239.933333333 480.928205128 253 495 c 0,189,190
 259 501 259 501 266 504 c 1,191,-1
 266 504 l 1,192,193
 258 507 258 507 253 513 c 0,194,195
 239.933333333 526.066666667 239.933333333 526.066666667 239.933333333 543.488888889 c 0,196,197
 239.933333333 564.933333333 239.933333333 564.933333333 253 578 c 0,198,199
 267 592 267 592 285 592 c 0,200,201
 304 592 304 592 318 578 c 0,202,203
 331.066666667 564.933333333 331.066666667 564.933333333 331.066666667 548.382222222 c 0,204,205
 331.066666667 527.071794872 331.066666667 527.071794872 318 513 c 0,206,207
 312 507 312 507 304 504 c 1,208,-1
 304 504 l 1,209,210
 311 501 311 501 318 495 c 0,211,212
 331.066666667 481.933333333 331.066666667 481.933333333 331.066666667 464.511111111 c 0,213,214
 331.066666667 443.066666667 331.066666667 443.066666667 318 430 c 0,215,216
 312 424 312 424 304 421 c 1,217,-1
 304 421 l 1,218,219
 311 418 311 418 318 411 c 0,220,221
 331.066666667 397.933333333 331.066666667 397.933333333 331.066666667 381.382222222 c 0,222,223
 331.066666667 360.071794872 331.066666667 360.071794872 318 346 c 0,224,225
 312 340 312 340 304 338 c 1,226,-1
 304 338 l 1,227,228
 311 334 311 334 318 328 c 0,229,230
 331.066666667 314.933333333 331.066666667 314.933333333 331.066666667 298.382222222 c 0,231,232
 331.066666667 277.071794872 331.066666667 277.071794872 318 263 c 0,233,234
 312 257 312 257 304 254 c 1,235,-1
 304 254 l 1,236,237
 311 250 311 250 318 244 c 0,238,239
 331.066666667 230.933333333 331.066666667 230.933333333 331.066666667 214.382222222 c 0,240,241
 331.066666667 193.066666667 331.066666667 193.066666667 318 180 c 0,242,243
 312 174 312 174 304 171 c 1,244,-1
 304 171 l 1,245,246
 311 168 311 168 318 161 c 0,247,248
 331.066666667 147.933333333 331.066666667 147.933333333 331.066666667 131.382222222 c 0,249,250
 331.066666667 110.066666667 331.066666667 110.066666667 318 97 c 0,251,252
 312 91 312 91 304 87 c 1,253,-1
 304 87 l 1,254,255
 311 84 311 84 318 78 c 0,256,257
 331.066666667 64.9333333333 331.066666667 64.9333333333 331.066666667 48.3822222222 c 0,258,259
 331.066666667 28.0717948718 331.066666667 28.0717948718 318 14 c 0,260,261
 304 0 304 0 285 0 c 1,262,-1
 285 0 l 1,138,139
406 0 m 1,263,264
 388 0 388 0 374 14 c 128,-1,265
 360 28 360 28 360 46 c 0,266,267
 360 65 360 65 374 78 c 0,268,269
 380 84 380 84 386 87 c 1,270,-1
 386 87 l 1,271,272
 380 90 380 90 374 97 c 0,273,274
 360 111 360 111 360 129 c 256,275,276
 360 148 360 148 374 161 c 0,277,278
 380 167 380 167 386 171 c 1,279,-1
 386 171 l 1,280,281
 380 174 380 174 374 180 c 0,282,283
 360 194 360 194 360 212 c 256,284,285
 360 230 360 230 374 244 c 0,286,287
 380 250 380 250 386 254 c 1,288,-1
 386 254 l 1,289,290
 380 257 380 257 374 263 c 0,291,292
 360 278 360 278 360 296 c 0,293,294
 360 316 360 316 374 328 c 0,295,296
 380 334 380 334 386 338 c 1,297,-1
 386 338 l 1,298,299
 380 340 380 340 374 346 c 0,300,301
 360 360 360 360 360 379 c 256,302,303
 360 398 360 398 374 411 c 0,304,305
 380 417 380 417 386 421 c 1,306,-1
 386 421 l 1,307,308
 380 424 380 424 374 430 c 0,309,310
 360 444 360 444 360 462 c 0,311,312
 360 481 360 481 374 495 c 0,313,314
 380 501 380 501 386 504 c 1,315,-1
 386 504 l 1,316,317
 380 507 380 507 374 513 c 0,318,319
 360 527 360 527 360 546 c 256,320,321
 360 565 360 565 374 578 c 0,322,323
 388 592 388 592 406 592 c 0,324,325
 425 592 425 592 437 578 c 0,326,327
 452 564 452 564 452 546 c 256,328,329
 452 527 452 527 437 513 c 0,330,331
 430 507 430 507 424 504 c 1,332,-1
 424 504 l 1,333,334
 431 501 431 501 437 495 c 0,335,336
 452 481 452 481 452 462 c 128,-1,337
 452 443 452 443 437 430 c 0,338,339
 430 424 430 424 424 421 c 1,340,-1
 424 421 l 1,341,342
 431 418 431 418 437 411 c 0,343,344
 452 397 452 397 452 379 c 256,345,346
 452 360 452 360 437 346 c 0,347,348
 430 340 430 340 424 338 c 1,349,-1
 424 338 l 1,350,351
 431 334 431 334 437 328 c 0,352,353
 452 314 452 314 452 296 c 0,354,355
 452 277 452 277 437 263 c 0,356,357
 430 257 430 257 424 254 c 1,358,-1
 424 254 l 1,359,360
 431 250 431 250 437 244 c 0,361,362
 452 230 452 230 452 212 c 256,363,364
 452 193 452 193 437 180 c 0,365,366
 430 174 430 174 424 171 c 1,367,-1
 424 171 l 1,368,369
 431 168 431 168 437 161 c 0,370,371
 452 147 452 147 452 129 c 256,372,373
 452 110 452 110 437 97 c 0,374,375
 430 91 430 91 424 87 c 1,376,-1
 424 87 l 1,377,378
 431 84 431 84 437 78 c 0,379,380
 452 64 452 64 452 46 c 128,-1,381
 452 28 452 28 437 14 c 0,382,383
 423 0 423 0 406 0 c 1,384,-1
 406 0 l 1,263,264
526 0 m 1,385,386
 508 0 508 0 494 14 c 128,-1,387
 480 28 480 28 480 46 c 0,388,389
 480 65 480 65 494 78 c 0,390,391
 500 84 500 84 506 87 c 1,392,-1
 506 87 l 1,393,394
 500 90 500 90 494 97 c 0,395,396
 480 111 480 111 480 129 c 256,397,398
 480 148 480 148 494 161 c 0,399,400
 500 167 500 167 506 171 c 1,401,-1
 506 171 l 1,402,403
 500 174 500 174 494 180 c 0,404,405
 480 194 480 194 480 212 c 256,406,407
 480 230 480 230 494 244 c 0,408,409
 500 250 500 250 506 254 c 1,410,-1
 506 254 l 1,411,412
 500 257 500 257 494 263 c 0,413,414
 480 278 480 278 480 296 c 0,415,416
 480 316 480 316 494 328 c 0,417,418
 500 334 500 334 506 338 c 1,419,-1
 506 338 l 1,420,421
 500 340 500 340 494 346 c 0,422,423
 480 360 480 360 480 379 c 256,424,425
 480 398 480 398 494 411 c 0,426,427
 500 417 500 417 506 421 c 1,428,-1
 506 421 l 1,429,430
 500 424 500 424 494 430 c 0,431,432
 480 444 480 444 480 462 c 0,433,434
 480 481 480 481 494 495 c 0,435,436
 500 501 500 501 506 504 c 1,437,-1
 506 504 l 1,438,439
 500 507 500 507 494 513 c 0,440,441
 480 527 480 527 480 546 c 256,442,443
 480 565 480 565 494 578 c 0,444,445
 508 592 508 592 526 592 c 0,446,447
 545 592 545 592 558 578 c 0,448,449
 571.066666667 564.933333333 571.066666667 564.933333333 571.066666667 548.382222222 c 0,450,451
 571.066666667 527.071794872 571.066666667 527.071794872 558 513 c 0,452,453
 552 507 552 507 545 504 c 1,454,-1
 545 504 l 1,455,456
 552 501 552 501 558 495 c 0,457,458
 571.066666667 481.933333333 571.066666667 481.933333333 571.066666667 464.511111111 c 0,459,460
 571.066666667 443.066666667 571.066666667 443.066666667 558 430 c 0,461,462
 552 424 552 424 545 421 c 1,463,-1
 545 421 l 1,464,465
 552 418 552 418 558 411 c 0,466,467
 571.066666667 397.933333333 571.066666667 397.933333333 571.066666667 381.382222222 c 0,468,469
 571.066666667 360.071794872 571.066666667 360.071794872 558 346 c 0,470,471
 552 340 552 340 545 338 c 1,472,-1
 545 338 l 1,473,474
 552 334 552 334 558 328 c 0,475,476
 571.066666667 314.933333333 571.066666667 314.933333333 571.066666667 298.382222222 c 0,477,478
 571.066666667 277.071794872 571.066666667 277.071794872 558 263 c 0,479,480
 552 257 552 257 545 254 c 1,481,-1
 545 254 l 1,482,483
 552 250 552 250 558 244 c 0,484,485
 571.066666667 230.933333333 571.066666667 230.933333333 571.066666667 214.382222222 c 0,486,487
 571.066666667 193.066666667 571.066666667 193.066666667 558 180 c 0,488,489
 552 174 552 174 545 171 c 1,490,-1
 545 171 l 1,491,492
 552 168 552 168 558 161 c 0,493,494
 571.066666667 147.933333333 571.066666667 147.933333333 571.066666667 131.382222222 c 0,495,496
 571.066666667 110.066666667 571.066666667 110.066666667 558 97 c 0,497,498
 552 91 552 91 545 87 c 1,499,-1
 545 87 l 1,500,501
 552 84 552 84 558 78 c 0,502,503
 571.066666667 64.9333333333 571.066666667 64.9333333333 571.066666667 48.3822222222 c 0,504,505
 571.066666667 28.0717948718 571.066666667 28.0717948718 558 14 c 0,506,507
 544 0 544 0 526 0 c 1,508,-1
 526 0 l 1,385,386
645 0 m 1,509,510
 626 0 626 0 613 14 c 0,511,512
 599.933333333 27.0666666667 599.933333333 27.0666666667 599.933333333 43.6177777778 c 0,513,514
 599.933333333 64.9333333333 599.933333333 64.9333333333 613 78 c 0,515,516
 619 84 619 84 626 87 c 1,517,-1
 626 87 l 1,518,519
 618 90 618 90 613 97 c 0,520,521
 599.933333333 110.066666667 599.933333333 110.066666667 599.933333333 126.617777778 c 0,522,523
 599.933333333 147.933333333 599.933333333 147.933333333 613 161 c 0,524,525
 619 167 619 167 626 171 c 1,526,-1
 626 171 l 1,527,528
 618 174 618 174 613 180 c 0,529,530
 599.933333333 193.066666667 599.933333333 193.066666667 599.933333333 209.617777778 c 0,531,532
 599.933333333 229.928205128 599.933333333 229.928205128 613 244 c 0,533,534
 619 250 619 250 626 254 c 1,535,-1
 626 254 l 1,536,537
 618 257 618 257 613 263 c 0,538,539
 599.933333333 277 599.933333333 277 599.933333333 293.613333333 c 0,540,541
 599.933333333 315.938461538 599.933333333 315.938461538 613 328 c 0,542,543
 619 334 619 334 626 338 c 1,544,-1
 626 338 l 1,545,546
 618 340 618 340 613 346 c 0,547,548
 599.933333333 359.066666667 599.933333333 359.066666667 599.933333333 376.488888889 c 0,549,550
 599.933333333 397.933333333 599.933333333 397.933333333 613 411 c 0,551,552
 619 417 619 417 626 421 c 1,553,-1
 626 421 l 1,554,555
 618 424 618 424 613 430 c 0,556,557
 599.933333333 443.066666667 599.933333333 443.066666667 599.933333333 459.617777778 c 0,558,559
 599.933333333 480.928205128 599.933333333 480.928205128 613 495 c 0,560,561
 619 501 619 501 626 504 c 1,562,-1
 626 504 l 1,563,564
 618 507 618 507 613 513 c 0,565,566
 599.933333333 526.066666667 599.933333333 526.066666667 599.933333333 543.488888889 c 0,567,568
 599.933333333 564.933333333 599.933333333 564.933333333 613 578 c 0,569,570
 627 592 627 592 645 592 c 0,571,572
 664 592 664 592 678 578 c 0,573,574
 691.066666667 564.933333333 691.066666667 564.933333333 691.066666667 548.382222222 c 0,575,576
 691.066666667 527.071794872 691.066666667 527.071794872 678 513 c 0,577,578
 672 507 672 507 664 504 c 1,579,-1
 664 504 l 1,580,581
 671 501 671 501 678 495 c 0,582,583
 691.066666667 481.933333333 691.066666667 481.933333333 691.066666667 464.511111111 c 0,584,585
 691.066666667 443.066666667 691.066666667 443.066666667 678 430 c 0,586,587
 672 424 672 424 664 421 c 1,588,-1
 664 421 l 1,589,590
 671 418 671 418 678 411 c 0,591,592
 691.066666667 397.933333333 691.066666667 397.933333333 691.066666667 381.382222222 c 0,593,594
 691.066666667 360.071794872 691.066666667 360.071794872 678 346 c 0,595,596
 672 340 672 340 664 338 c 1,597,-1
 664 338 l 1,598,599
 671 334 671 334 678 328 c 0,600,601
 691.066666667 314.933333333 691.066666667 314.933333333 691.066666667 298.382222222 c 0,602,603
 691.066666667 277.071794872 691.066666667 277.071794872 678 263 c 0,604,605
 672 257 672 257 664 254 c 1,606,-1
 664 254 l 1,607,608
 671 250 671 250 678 244 c 0,609,610
 691.066666667 230.933333333 691.066666667 230.933333333 691.066666667 214.382222222 c 0,611,612
 691.066666667 193.066666667 691.066666667 193.066666667 678 180 c 0,613,614
 672 174 672 174 664 171 c 1,615,-1
 664 171 l 1,616,617
 671 168 671 168 678 161 c 0,618,619
 691.066666667 147.933333333 691.066666667 147.933333333 691.066666667 131.382222222 c 0,620,621
 691.066666667 110.066666667 691.066666667 110.066666667 678 97 c 0,622,623
 672 91 672 91 664 87 c 1,624,-1
 664 87 l 1,625,626
 671 84 671 84 678 78 c 0,627,628
 691.066666667 64.9333333333 691.066666667 64.9333333333 691.066666667 48.3822222222 c 0,629,630
 691.066666667 28.0717948718 691.066666667 28.0717948718 678 14 c 0,631,632
 664 0 664 0 645 0 c 1,633,-1
 645 0 l 1,509,510
EndSplineSet
EndChar

StartChar: dollar
Encoding: 36 36 4
Width: 1200
VWidth: 750
Flags: W
LayerCount: 2
Fore
SplineSet
166 83 m 1,0,1
 148 83 148 83 134 97 c 128,-1,2
 120 111 120 111 120 129 c 256,3,4
 120 148 120 148 134 161 c 0,5,6
 148 175 148 175 166 175 c 0,7,8
 185 175 185 175 198 161 c 0,9,10
 211.066666667 147.933333333 211.066666667 147.933333333 211.066666667 131.382222222 c 0,11,12
 211.066666667 110.066666667 211.066666667 110.066666667 198 97 c 0,13,14
 184 83 184 83 166 83 c 1,15,-1
 166 83 l 1,0,1
285 83 m 1,16,17
 266 83 266 83 253 97 c 0,18,19
 239.933333333 110.066666667 239.933333333 110.066666667 239.933333333 126.617777778 c 0,20,21
 239.933333333 147.933333333 239.933333333 147.933333333 253 161 c 0,22,23
 267 175 267 175 285 175 c 0,24,25
 304 175 304 175 318 161 c 0,26,27
 331.066666667 147.933333333 331.066666667 147.933333333 331.066666667 131.382222222 c 0,28,29
 331.066666667 110.066666667 331.066666667 110.066666667 318 97 c 0,30,31
 304 83 304 83 285 83 c 1,32,-1
 285 83 l 1,16,17
645 83 m 1,33,34
 626 83 626 83 613 97 c 0,35,36
 599.933333333 110.066666667 599.933333333 110.066666667 599.933333333 126.617777778 c 0,37,38
 599.933333333 147.933333333 599.933333333 147.933333333 613 161 c 0,39,40
 627 175 627 175 645 175 c 0,41,42
 664 175 664 175 678 161 c 0,43,44
 691.066666667 147.933333333 691.066666667 147.933333333 691.066666667 131.382222222 c 0,45,46
 691.066666667 110.066666667 691.066666667 110.066666667 678 97 c 0,47,48
 664 83 664 83 645 83 c 1,49,-1
 645 83 l 1,33,34
886 166 m 1,50,51
 868 166 868 166 854 180 c 128,-1,52
 840 194 840 194 840 212 c 256,53,54
 840 230 840 230 854 244 c 128,-1,55
 868 258 868 258 886 258 c 0,56,57
 905 258 905 258 918 244 c 0,58,59
 931.066666667 230.933333333 931.066666667 230.933333333 931.066666667 214.382222222 c 0,60,61
 931.066666667 193.066666667 931.066666667 193.066666667 918 180 c 0,62,63
 904 166 904 166 886 166 c 1,64,-1
 886 166 l 1,50,51
285 250 m 1,65,66
 266 250 266 250 253 263 c 0,67,68
 239.933333333 277 239.933333333 277 239.933333333 293.613333333 c 0,69,70
 239.933333333 315.938461538 239.933333333 315.938461538 253 328 c 0,71,72
 266.066666667 341.066666667 266.066666667 341.066666667 282.617777778 341.066666667 c 0,73,74
 283.8 341.066666667 283.8 341.066666667 285 341 c 128,-1,75
 286.266666667 341.066666667 286.266666667 341.066666667 287.511111111 341.066666667 c 0,76,77
 304.933333333 341.066666667 304.933333333 341.066666667 318 328 c 128,-1,78
 331.066666667 314.933333333 331.066666667 314.933333333 331.066666667 298.382222222 c 0,79,80
 331.066666667 277.071794872 331.066666667 277.071794872 318 263 c 0,81,82
 304.933333333 249.933333333 304.933333333 249.933333333 287.511111111 249.933333333 c 0,83,84
 286.266666667 249.933333333 286.266666667 249.933333333 285 250 c 1,85,-1
 285 250 l 1,65,66
645 250 m 1,86,87
 626 250 626 250 613 263 c 0,88,89
 599.933333333 277 599.933333333 277 599.933333333 293.613333333 c 0,90,91
 599.933333333 315.938461538 599.933333333 315.938461538 613 328 c 0,92,93
 626.066666667 341.066666667 626.066666667 341.066666667 642.617777778 341.066666667 c 0,94,95
 643.8 341.066666667 643.8 341.066666667 645 341 c 128,-1,96
 646.266666667 341.066666667 646.266666667 341.066666667 647.511111111 341.066666667 c 0,97,98
 664.933333333 341.066666667 664.933333333 341.066666667 678 328 c 128,-1,99
 691.066666667 314.933333333 691.066666667 314.933333333 691.066666667 298.382222222 c 0,100,101
 691.066666667 277.071794872 691.066666667 277.071794872 678 263 c 0,102,103
 664.933333333 249.933333333 664.933333333 249.933333333 647.511111111 249.933333333 c 0,104,105
 646.266666667 249.933333333 646.266666667 249.933333333 645 250 c 1,106,-1
 645 250 l 1,86,87
766 83 m 1,107,108
 748 83 748 83 734 97 c 128,-1,109
 720 111 720 111 720 129 c 256,110,111
 720 148 720 148 734 161 c 0,112,113
 740 167 740 167 746 171 c 1,114,-1
 746 171 l 1,115,116
 740 174 740 174 734 180 c 0,117,118
 720 194 720 194 720 212 c 256,119,120
 720 230 720 230 734 244 c 0,121,122
 740 250 740 250 746 254 c 1,123,-1
 746 254 l 1,124,125
 740 257 740 257 734 263 c 0,126,127
 720 278 720 278 720 296 c 0,128,129
 720 316 720 316 734 328 c 0,130,131
 747.066666667 341.066666667 747.066666667 341.066666667 763.617777778 341.066666667 c 0,132,133
 764.8 341.066666667 764.8 341.066666667 766 341 c 128,-1,134
 767.266666667 341.066666667 767.266666667 341.066666667 768.502222222 341.066666667 c 0,135,136
 785.8 341.066666667 785.8 341.066666667 797 328 c 0,137,138
 812 314 812 314 812 296 c 0,139,140
 812 277 812 277 797 263 c 0,141,142
 790 257 790 257 784 254 c 1,143,-1
 784 254 l 1,144,145
 791 250 791 250 797 244 c 0,146,147
 812 230 812 230 812 212 c 256,148,149
 812 193 812 193 797 180 c 0,150,151
 790 174 790 174 784 171 c 1,152,-1
 784 171 l 1,153,154
 791 168 791 168 797 161 c 0,155,156
 812 147 812 147 812 129 c 256,157,158
 812 110 812 110 797 97 c 0,159,160
 783 83 783 83 766 83 c 1,161,-1
 766 83 l 1,107,108
46 333 m 1,162,163
 44.8 332.933333333 44.8 332.933333333 43.6177777778 332.933333333 c 0,164,165
 27.0666666667 332.933333333 27.0666666667 332.933333333 14 346 c 0,166,167
 0 360 0 360 0 379 c 256,168,169
 0 398 0 398 14 411 c 128,-1,170
 28 424 28 424 46 424 c 256,171,172
 65 424 65 424 78 411 c 0,173,174
 92 397 92 397 92 379 c 256,175,176
 92 360 92 360 78 346 c 0,177,178
 64.9333333333 332.933333333 64.9333333333 332.933333333 48.3822222222 332.933333333 c 0,179,180
 47.2 332.933333333 47.2 332.933333333 46 333 c 1,181,-1
 46 333 l 1,162,163
166 250 m 1,182,183
 148 250 148 250 134 263 c 0,184,185
 120 278 120 278 120 296 c 0,186,187
 120 316 120 316 134 328 c 0,188,189
 140 334 140 334 146 338 c 1,190,-1
 146 338 l 1,191,192
 140 340 140 340 134 346 c 0,193,194
 120 360 120 360 120 379 c 256,195,196
 120 398 120 398 134 411 c 0,197,198
 140 417 140 417 146 421 c 1,199,-1
 146 421 l 1,200,201
 140 424 140 424 134 430 c 0,202,203
 120 444 120 444 120 462 c 0,204,205
 120 481 120 481 134 495 c 0,206,207
 148 508 148 508 166 508 c 0,208,209
 185 508 185 508 198 495 c 128,-1,210
 211.066666667 481.933333333 211.066666667 481.933333333 211.066666667 464.511111111 c 0,211,212
 211.066666667 443.066666667 211.066666667 443.066666667 198 430 c 0,213,214
 192 424 192 424 185 421 c 1,215,-1
 185 421 l 1,216,217
 192 418 192 418 198 411 c 0,218,219
 211.066666667 397.933333333 211.066666667 397.933333333 211.066666667 381.382222222 c 0,220,221
 211.066666667 360.071794872 211.066666667 360.071794872 198 346 c 0,222,223
 192 340 192 340 185 338 c 1,224,-1
 185 338 l 1,225,226
 192 334 192 334 198 328 c 0,227,228
 211.066666667 314.933333333 211.066666667 314.933333333 211.066666667 298.382222222 c 0,229,230
 211.066666667 277.071794872 211.066666667 277.071794872 198 263 c 0,231,232
 184.933333333 249.933333333 184.933333333 249.933333333 168.382222222 249.933333333 c 0,233,234
 167.2 249.933333333 167.2 249.933333333 166 250 c 1,235,-1
 166 250 l 1,182,183
285 416 m 1,236,237
 266 416 266 416 253 430 c 0,238,239
 239.933333333 443.066666667 239.933333333 443.066666667 239.933333333 459.617777778 c 0,240,241
 239.933333333 480.928205128 239.933333333 480.928205128 253 495 c 0,242,243
 267 508 267 508 285 508 c 0,244,245
 304 508 304 508 318 495 c 0,246,247
 331.066666667 481.933333333 331.066666667 481.933333333 331.066666667 464.511111111 c 0,248,249
 331.066666667 443.066666667 331.066666667 443.066666667 318 430 c 0,250,251
 304 416 304 416 285 416 c 1,252,-1
 285 416 l 1,236,237
645 416 m 1,253,254
 626 416 626 416 613 430 c 0,255,256
 599.933333333 443.066666667 599.933333333 443.066666667 599.933333333 459.617777778 c 0,257,258
 599.933333333 480.928205128 599.933333333 480.928205128 613 495 c 0,259,260
 627 508 627 508 645 508 c 0,261,262
 664 508 664 508 678 495 c 0,263,264
 691.066666667 481.933333333 691.066666667 481.933333333 691.066666667 464.511111111 c 0,265,266
 691.066666667 443.066666667 691.066666667 443.066666667 678 430 c 0,267,268
 664 416 664 416 645 416 c 1,269,-1
 645 416 l 1,253,254
766 416 m 1,270,271
 748 416 748 416 734 430 c 128,-1,272
 720 444 720 444 720 462 c 0,273,274
 720 481 720 481 734 495 c 0,275,276
 748 508 748 508 766 508 c 0,277,278
 785 508 785 508 797 495 c 0,279,280
 812 481 812 481 812 462 c 128,-1,281
 812 443 812 443 797 430 c 0,282,283
 783 416 783 416 766 416 c 1,284,-1
 766 416 l 1,270,271
406 0 m 1,285,286
 388 0 388 0 374 14 c 128,-1,287
 360 28 360 28 360 46 c 0,288,289
 360 65 360 65 374 78 c 0,290,291
 380 84 380 84 386 87 c 1,292,-1
 386 87 l 1,293,294
 380 90 380 90 374 97 c 0,295,296
 360 111 360 111 360 129 c 256,297,298
 360 148 360 148 374 161 c 0,299,300
 380 167 380 167 386 171 c 1,301,-1
 386 171 l 1,302,303
 380 174 380 174 374 180 c 0,304,305
 360 194 360 194 360 212 c 256,306,307
 360 230 360 230 374 244 c 0,308,309
 380 250 380 250 386 254 c 1,310,-1
 386 254 l 1,311,312
 380 257 380 257 374 263 c 0,313,314
 360 278 360 278 360 296 c 0,315,316
 360 316 360 316 374 328 c 0,317,318
 380 334 380 334 386 338 c 1,319,-1
 386 338 l 1,320,321
 380 340 380 340 374 346 c 0,322,323
 360 360 360 360 360 379 c 256,324,325
 360 398 360 398 374 411 c 0,326,327
 380 417 380 417 386 421 c 1,328,-1
 386 421 l 1,329,330
 380 424 380 424 374 430 c 0,331,332
 360 444 360 444 360 462 c 0,333,334
 360 481 360 481 374 495 c 0,335,336
 380 501 380 501 386 504 c 1,337,-1
 386 504 l 1,338,339
 380 507 380 507 374 513 c 0,340,341
 360 527 360 527 360 546 c 256,342,343
 360 565 360 565 374 578 c 0,344,345
 388 592 388 592 406 592 c 0,346,347
 425 592 425 592 437 578 c 0,348,349
 452 564 452 564 452 546 c 256,350,351
 452 527 452 527 437 513 c 0,352,353
 430 507 430 507 424 504 c 1,354,-1
 424 504 l 1,355,356
 431 501 431 501 437 495 c 0,357,358
 452 481 452 481 452 462 c 128,-1,359
 452 443 452 443 437 430 c 0,360,361
 430 424 430 424 424 421 c 1,362,-1
 424 421 l 1,363,364
 431 418 431 418 437 411 c 0,365,366
 452 397 452 397 452 379 c 256,367,368
 452 360 452 360 437 346 c 0,369,370
 430 340 430 340 424 338 c 1,371,-1
 424 338 l 1,372,373
 431 334 431 334 437 328 c 0,374,375
 452 314 452 314 452 296 c 0,376,377
 452 277 452 277 437 263 c 0,378,379
 430 257 430 257 424 254 c 1,380,-1
 424 254 l 1,381,382
 431 250 431 250 437 244 c 0,383,384
 452 230 452 230 452 212 c 256,385,386
 452 193 452 193 437 180 c 0,387,388
 430 174 430 174 424 171 c 1,389,-1
 424 171 l 1,390,391
 431 168 431 168 437 161 c 0,392,393
 452 147 452 147 452 129 c 256,394,395
 452 110 452 110 437 97 c 0,396,397
 430 91 430 91 424 87 c 1,398,-1
 424 87 l 1,399,400
 431 84 431 84 437 78 c 0,401,402
 452 64 452 64 452 46 c 128,-1,403
 452 28 452 28 437 14 c 0,404,405
 423 0 423 0 406 0 c 1,406,-1
 406 0 l 1,285,286
526 0 m 1,407,408
 508 0 508 0 494 14 c 128,-1,409
 480 28 480 28 480 46 c 0,410,411
 480 65 480 65 494 78 c 0,412,413
 500 84 500 84 506 87 c 1,414,-1
 506 87 l 1,415,416
 500 90 500 90 494 97 c 0,417,418
 480 111 480 111 480 129 c 256,419,420
 480 148 480 148 494 161 c 0,421,422
 500 167 500 167 506 171 c 1,423,-1
 506 171 l 1,424,425
 500 174 500 174 494 180 c 0,426,427
 480 194 480 194 480 212 c 256,428,429
 480 230 480 230 494 244 c 0,430,431
 500 250 500 250 506 254 c 1,432,-1
 506 254 l 1,433,434
 500 257 500 257 494 263 c 0,435,436
 480 278 480 278 480 296 c 0,437,438
 480 316 480 316 494 328 c 0,439,440
 500 334 500 334 506 338 c 1,441,-1
 506 338 l 1,442,443
 500 340 500 340 494 346 c 0,444,445
 480 360 480 360 480 379 c 256,446,447
 480 398 480 398 494 411 c 0,448,449
 500 417 500 417 506 421 c 1,450,-1
 506 421 l 1,451,452
 500 424 500 424 494 430 c 0,453,454
 480 444 480 444 480 462 c 0,455,456
 480 481 480 481 494 495 c 0,457,458
 500 501 500 501 506 504 c 1,459,-1
 506 504 l 1,460,461
 500 507 500 507 494 513 c 0,462,463
 480 527 480 527 480 546 c 256,464,465
 480 565 480 565 494 578 c 0,466,467
 508 592 508 592 526 592 c 0,468,469
 545 592 545 592 558 578 c 0,470,471
 571.066666667 564.933333333 571.066666667 564.933333333 571.066666667 548.382222222 c 0,472,473
 571.066666667 527.071794872 571.066666667 527.071794872 558 513 c 0,474,475
 552 507 552 507 545 504 c 1,476,-1
 545 504 l 1,477,478
 552 501 552 501 558 495 c 0,479,480
 571.066666667 481.933333333 571.066666667 481.933333333 571.066666667 464.511111111 c 0,481,482
 571.066666667 443.066666667 571.066666667 443.066666667 558 430 c 0,483,484
 552 424 552 424 545 421 c 1,485,-1
 545 421 l 1,486,487
 552 418 552 418 558 411 c 0,488,489
 571.066666667 397.933333333 571.066666667 397.933333333 571.066666667 381.382222222 c 0,490,491
 571.066666667 360.071794872 571.066666667 360.071794872 558 346 c 0,492,493
 552 340 552 340 545 338 c 1,494,-1
 545 338 l 1,495,496
 552 334 552 334 558 328 c 0,497,498
 571.066666667 314.933333333 571.066666667 314.933333333 571.066666667 298.382222222 c 0,499,500
 571.066666667 277.071794872 571.066666667 277.071794872 558 263 c 0,501,502
 552 257 552 257 545 254 c 1,503,-1
 545 254 l 1,504,505
 552 250 552 250 558 244 c 0,506,507
 571.066666667 230.933333333 571.066666667 230.933333333 571.066666667 214.382222222 c 0,508,509
 571.066666667 193.066666667 571.066666667 193.066666667 558 180 c 0,510,511
 552 174 552 174 545 171 c 1,512,-1
 545 171 l 1,513,514
 552 168 552 168 558 161 c 0,515,516
 571.066666667 147.933333333 571.066666667 147.933333333 571.066666667 131.382222222 c 0,517,518
 571.066666667 110.066666667 571.066666667 110.066666667 558 97 c 0,519,520
 552 91 552 91 545 87 c 1,521,-1
 545 87 l 1,522,523
 552 84 552 84 558 78 c 0,524,525
 571.066666667 64.9333333333 571.066666667 64.9333333333 571.066666667 48.3822222222 c 0,526,527
 571.066666667 28.0717948718 571.066666667 28.0717948718 558 14 c 0,528,529
 544 0 544 0 526 0 c 1,530,-1
 526 0 l 1,407,408
EndSplineSet
EndChar

StartChar: percent
Encoding: 37 37 5
Width: 1200
VWidth: 750
Flags: W
LayerCount: 2
Fore
SplineSet
46 0 m 1,0,1
 28 0 28 0 14 14 c 128,-1,2
 0 28 0 28 0 46 c 0,3,4
 0 65 0 65 14 78 c 256,5,6
 28 92 28 92 46 92 c 256,7,8
 65 92 65 92 78 78 c 0,9,10
 92 64 92 64 92 46 c 128,-1,11
 92 28 92 28 78 14 c 128,-1,12
 64 0 64 0 46 0 c 1,13,-1
 46 0 l 1,0,1
166 0 m 1,14,15
 148 0 148 0 134 14 c 128,-1,16
 120 28 120 28 120 46 c 0,17,18
 120 65 120 65 134 78 c 0,19,20
 140 84 140 84 146 87 c 1,21,-1
 146 87 l 1,22,23
 140 90 140 90 134 97 c 0,24,25
 120 111 120 111 120 129 c 256,26,27
 120 148 120 148 134 161 c 0,28,29
 148 175 148 175 166 175 c 0,30,31
 185 175 185 175 198 161 c 0,32,33
 211.066666667 147.933333333 211.066666667 147.933333333 211.066666667 131.382222222 c 0,34,35
 211.066666667 110.066666667 211.066666667 110.066666667 198 97 c 0,36,37
 192 91 192 91 185 87 c 1,38,-1
 185 87 l 1,39,40
 192 84 192 84 198 78 c 0,41,42
 211.066666667 64.9333333333 211.066666667 64.9333333333 211.066666667 48.3822222222 c 0,43,44
 211.066666667 28.0717948718 211.066666667 28.0717948718 198 14 c 0,45,46
 184 0 184 0 166 0 c 1,47,-1
 166 0 l 1,14,15
526 0 m 1,48,49
 508 0 508 0 494 14 c 128,-1,50
 480 28 480 28 480 46 c 0,51,52
 480 65 480 65 494 78 c 0,53,54
 500 84 500 84 506 87 c 1,55,-1
 506 87 l 1,56,57
 500 90 500 90 494 97 c 0,58,59
 480 111 480 111 480 129 c 256,60,61
 480 148 480 148 494 161 c 0,62,63
 508 175 508 175 526 175 c 0,64,65
 545 175 545 175 558 161 c 0,66,67
 571.066666667 147.933333333 571.066666667 147.933333333 571.066666667 131.382222222 c 0,68,69
 571.066666667 110.066666667 571.066666667 110.066666667 558 97 c 0,70,71
 552 91 552 91 545 87 c 1,72,-1
 545 87 l 1,73,74
 552 84 552 84 558 78 c 0,75,76
 571.066666667 64.9333333333 571.066666667 64.9333333333 571.066666667 48.3822222222 c 0,77,78
 571.066666667 28.0717948718 571.066666667 28.0717948718 558 14 c 0,79,80
 544 0 544 0 526 0 c 1,81,-1
 526 0 l 1,48,49
645 0 m 1,82,83
 626 0 626 0 613 14 c 0,84,85
 599.933333333 27.0666666667 599.933333333 27.0666666667 599.933333333 43.6177777778 c 0,86,87
 599.933333333 64.9333333333 599.933333333 64.9333333333 613 78 c 0,88,89
 619 84 619 84 626 87 c 1,90,-1
 626 87 l 1,91,92
 618 90 618 90 613 97 c 0,93,94
 599.933333333 110.066666667 599.933333333 110.066666667 599.933333333 126.617777778 c 0,95,96
 599.933333333 147.933333333 599.933333333 147.933333333 613 161 c 0,97,98
 627 175 627 175 645 175 c 0,99,100
 664 175 664 175 678 161 c 0,101,102
 691.066666667 147.933333333 691.066666667 147.933333333 691.066666667 131.382222222 c 0,103,104
 691.066666667 110.066666667 691.066666667 110.066666667 678 97 c 0,105,106
 672 91 672 91 664 87 c 1,107,-1
 664 87 l 1,108,109
 671 84 671 84 678 78 c 0,110,111
 691.066666667 64.9333333333 691.066666667 64.9333333333 691.066666667 48.3822222222 c 0,112,113
 691.066666667 28.0717948718 691.066666667 28.0717948718 678 14 c 0,114,115
 664 0 664 0 645 0 c 1,116,-1
 645 0 l 1,82,83
766 0 m 1,117,118
 748 0 748 0 734 14 c 128,-1,119
 720 28 720 28 720 46 c 0,120,121
 720 65 720 65 734 78 c 0,122,123
 740 84 740 84 746 87 c 1,124,-1
 746 87 l 1,125,126
 740 90 740 90 734 97 c 0,127,128
 720 111 720 111 720 129 c 256,129,130
 720 148 720 148 734 161 c 0,131,132
 748 175 748 175 766 175 c 0,133,134
 785 175 785 175 797 161 c 0,135,136
 812 147 812 147 812 129 c 256,137,138
 812 110 812 110 797 97 c 0,139,140
 790 91 790 91 784 87 c 1,141,-1
 784 87 l 1,142,143
 791 84 791 84 797 78 c 0,144,145
 812 64 812 64 812 46 c 128,-1,146
 812 28 812 28 797 14 c 0,147,148
 783 0 783 0 766 0 c 1,149,-1
 766 0 l 1,117,118
886 0 m 1,150,151
 868 0 868 0 854 14 c 128,-1,152
 840 28 840 28 840 46 c 0,153,154
 840 65 840 65 854 78 c 0,155,156
 860 84 860 84 866 87 c 1,157,-1
 866 87 l 1,158,159
 860 90 860 90 854 97 c 0,160,161
 840 111 840 111 840 129 c 256,162,163
 840 148 840 148 854 161 c 0,164,165
 868 175 868 175 886 175 c 0,166,167
 905 175 905 175 918 161 c 0,168,169
 931.066666667 147.933333333 931.066666667 147.933333333 931.066666667 131.382222222 c 0,170,171
 931.066666667 110.066666667 931.066666667 110.066666667 918 97 c 0,172,173
 912 91 912 91 905 87 c 1,174,-1
 905 87 l 1,175,176
 912 84 912 84 918 78 c 0,177,178
 931.066666667 64.9333333333 931.066666667 64.9333333333 931.066666667 48.3822222222 c 0,179,180
 931.066666667 28.0717948718 931.066666667 28.0717948718 918 14 c 0,181,182
 904 0 904 0 886 0 c 1,183,-1
 886 0 l 1,150,151
285 83 m 1,184,185
 266 83 266 83 253 97 c 0,186,187
 239.933333333 110.066666667 239.933333333 110.066666667 239.933333333 126.617777778 c 0,188,189
 239.933333333 147.933333333 239.933333333 147.933333333 253 161 c 0,190,191
 259 167 259 167 266 171 c 1,192,-1
 266 171 l 1,193,194
 258 174 258 174 253 180 c 0,195,196
 239.933333333 193.066666667 239.933333333 193.066666667 239.933333333 209.617777778 c 0,197,198
 239.933333333 229.928205128 239.933333333 229.928205128 253 244 c 0,199,200
 267 258 267 258 285 258 c 0,201,202
 304 258 304 258 318 244 c 0,203,204
 331.066666667 230.933333333 331.066666667 230.933333333 331.066666667 214.382222222 c 0,205,206
 331.066666667 193.066666667 331.066666667 193.066666667 318 180 c 0,207,208
 312 174 312 174 304 171 c 1,209,-1
 304 171 l 1,210,211
 311 168 311 168 318 161 c 0,212,213
 331.066666667 147.933333333 331.066666667 147.933333333 331.066666667 131.382222222 c 0,214,215
 331.066666667 110.066666667 331.066666667 110.066666667 318 97 c 0,216,217
 304 83 304 83 285 83 c 1,218,-1
 285 83 l 1,184,185
406 166 m 1,219,220
 388 166 388 166 374 180 c 128,-1,221
 360 194 360 194 360 212 c 256,222,223
 360 230 360 230 374 244 c 0,224,225
 380 250 380 250 386 254 c 1,226,-1
 386 254 l 1,227,228
 380 257 380 257 374 263 c 0,229,230
 360 278 360 278 360 296 c 0,231,232
 360 316 360 316 374 328 c 0,233,234
 387.066666667 341.066666667 387.066666667 341.066666667 403.617777778 341.066666667 c 0,235,236
 404.8 341.066666667 404.8 341.066666667 406 341 c 128,-1,237
 407.266666667 341.066666667 407.266666667 341.066666667 408.502222222 341.066666667 c 0,238,239
 425.8 341.066666667 425.8 341.066666667 437 328 c 0,240,241
 452 314 452 314 452 296 c 0,242,243
 452 277 452 277 437 263 c 0,244,245
 430 257 430 257 424 254 c 1,246,-1
 424 254 l 1,247,248
 431 250 431 250 437 244 c 0,249,250
 452 230 452 230 452 212 c 256,251,252
 452 193 452 193 437 180 c 0,253,254
 423 166 423 166 406 166 c 1,255,-1
 406 166 l 1,219,220
526 250 m 1,256,257
 508 250 508 250 494 263 c 0,258,259
 480 278 480 278 480 296 c 0,260,261
 480 316 480 316 494 328 c 0,262,263
 500 334 500 334 506 338 c 1,264,-1
 506 338 l 1,265,266
 500 340 500 340 494 346 c 0,267,268
 480 360 480 360 480 379 c 256,269,270
 480 398 480 398 494 411 c 128,-1,271
 508 424 508 424 526 424 c 0,272,273
 545 424 545 424 558 411 c 128,-1,274
 571.066666667 397.933333333 571.066666667 397.933333333 571.066666667 381.382222222 c 0,275,276
 571.066666667 360.071794872 571.066666667 360.071794872 558 346 c 0,277,278
 552 340 552 340 545 338 c 1,279,-1
 545 338 l 1,280,281
 552 334 552 334 558 328 c 0,282,283
 571.066666667 314.933333333 571.066666667 314.933333333 571.066666667 298.382222222 c 0,284,285
 571.066666667 277.071794872 571.066666667 277.071794872 558 263 c 0,286,287
 544.933333333 249.933333333 544.933333333 249.933333333 528.382222222 249.933333333 c 0,288,289
 527.2 249.933333333 527.2 249.933333333 526 250 c 1,290,-1
 526 250 l 1,256,257
645 333 m 1,291,292
 643.733333333 332.933333333 643.733333333 332.933333333 642.493333333 332.933333333 c 0,293,294
 625.133333333 332.933333333 625.133333333 332.933333333 613 346 c 0,295,296
 599.933333333 359.066666667 599.933333333 359.066666667 599.933333333 376.488888889 c 0,297,298
 599.933333333 397.933333333 599.933333333 397.933333333 613 411 c 0,299,300
 619 417 619 417 626 421 c 1,301,-1
 626 421 l 1,302,303
 618 424 618 424 613 430 c 0,304,305
 599.933333333 443.066666667 599.933333333 443.066666667 599.933333333 459.617777778 c 0,306,307
 599.933333333 480.928205128 599.933333333 480.928205128 613 495 c 0,308,309
 627 508 627 508 645 508 c 0,310,311
 664 508 664 508 678 495 c 0,312,313
 691.066666667 481.933333333 691.066666667 481.933333333 691.066666667 464.511111111 c 0,314,315
 691.066666667 443.066666667 691.066666667 443.066666667 678 430 c 0,316,317
 672 424 672 424 664 421 c 1,318,-1
 664 421 l 1,319,320
 671 418 671 418 678 411 c 0,321,322
 691.066666667 397.933333333 691.066666667 397.933333333 691.066666667 381.382222222 c 0,323,324
 691.066666667 360.071794872 691.066666667 360.071794872 678 346 c 0,325,326
 664.933333333 332.933333333 664.933333333 332.933333333 647.511111111 332.933333333 c 0,327,328
 646.266666667 332.933333333 646.266666667 332.933333333 645 333 c 1,329,-1
 645 333 l 1,291,292
46 416 m 1,330,331
 28 416 28 416 14 430 c 256,332,333
 0 444 0 444 0 462 c 0,334,335
 0 481 0 481 14 495 c 0,336,337
 20 501 20 501 26 504 c 1,338,-1
 26 504 l 1,339,340
 20 507 20 507 14 513 c 0,341,342
 0 527 0 527 0 546 c 256,343,344
 0 565 0 565 14 578 c 0,345,346
 28 592 28 592 46 592 c 256,347,348
 65 592 65 592 78 578 c 0,349,350
 92 564 92 564 92 546 c 256,351,352
 92 527 92 527 78 513 c 0,353,354
 72 507 72 507 64 504 c 1,355,-1
 64 504 l 1,356,357
 71 501 71 501 78 495 c 0,358,359
 92 481 92 481 92 462 c 128,-1,360
 92 443 92 443 78 430 c 0,361,362
 64 416 64 416 46 416 c 1,363,-1
 46 416 l 1,330,331
166 416 m 1,364,365
 148 416 148 416 134 430 c 128,-1,366
 120 444 120 444 120 462 c 0,367,368
 120 481 120 481 134 495 c 0,369,370
 140 501 140 501 146 504 c 1,371,-1
 146 504 l 1,372,373
 140 507 140 507 134 513 c 0,374,375
 120 527 120 527 120 546 c 256,376,377
 120 565 120 565 134 578 c 0,378,379
 148 592 148 592 166 592 c 0,380,381
 185 592 185 592 198 578 c 0,382,383
 211.066666667 564.933333333 211.066666667 564.933333333 211.066666667 548.382222222 c 0,384,385
 211.066666667 527.071794872 211.066666667 527.071794872 198 513 c 0,386,387
 192 507 192 507 185 504 c 1,388,-1
 185 504 l 1,389,390
 192 501 192 501 198 495 c 0,391,392
 211.066666667 481.933333333 211.066666667 481.933333333 211.066666667 464.511111111 c 0,393,394
 211.066666667 443.066666667 211.066666667 443.066666667 198 430 c 0,395,396
 184 416 184 416 166 416 c 1,397,-1
 166 416 l 1,364,365
285 416 m 1,398,399
 266 416 266 416 253 430 c 0,400,401
 239.933333333 443.066666667 239.933333333 443.066666667 239.933333333 459.617777778 c 0,402,403
 239.933333333 480.928205128 239.933333333 480.928205128 253 495 c 0,404,405
 259 501 259 501 266 504 c 1,406,-1
 266 504 l 1,407,408
 258 507 258 507 253 513 c 0,409,410
 239.933333333 526.066666667 239.933333333 526.066666667 239.933333333 543.488888889 c 0,411,412
 239.933333333 564.933333333 239.933333333 564.933333333 253 578 c 0,413,414
 267 592 267 592 285 592 c 0,415,416
 304 592 304 592 318 578 c 0,417,418
 331.066666667 564.933333333 331.066666667 564.933333333 331.066666667 548.382222222 c 0,419,420
 331.066666667 527.071794872 331.066666667 527.071794872 318 513 c 0,421,422
 312 507 312 507 304 504 c 1,423,-1
 304 504 l 1,424,425
 311 501 311 501 318 495 c 0,426,427
 331.066666667 481.933333333 331.066666667 481.933333333 331.066666667 464.511111111 c 0,428,429
 331.066666667 443.066666667 331.066666667 443.066666667 318 430 c 0,430,431
 304 416 304 416 285 416 c 1,432,-1
 285 416 l 1,398,399
406 416 m 1,433,434
 388 416 388 416 374 430 c 128,-1,435
 360 444 360 444 360 462 c 0,436,437
 360 481 360 481 374 495 c 0,438,439
 380 501 380 501 386 504 c 1,440,-1
 386 504 l 1,441,442
 380 507 380 507 374 513 c 0,443,444
 360 527 360 527 360 546 c 256,445,446
 360 565 360 565 374 578 c 0,447,448
 388 592 388 592 406 592 c 0,449,450
 425 592 425 592 437 578 c 0,451,452
 452 564 452 564 452 546 c 256,453,454
 452 527 452 527 437 513 c 0,455,456
 430 507 430 507 424 504 c 1,457,-1
 424 504 l 1,458,459
 431 501 431 501 437 495 c 0,460,461
 452 481 452 481 452 462 c 128,-1,462
 452 443 452 443 437 430 c 0,463,464
 423 416 423 416 406 416 c 1,465,-1
 406 416 l 1,433,434
766 416 m 1,466,467
 748 416 748 416 734 430 c 128,-1,468
 720 444 720 444 720 462 c 0,469,470
 720 481 720 481 734 495 c 0,471,472
 740 501 740 501 746 504 c 1,473,-1
 746 504 l 1,474,475
 740 507 740 507 734 513 c 0,476,477
 720 527 720 527 720 546 c 256,478,479
 720 565 720 565 734 578 c 0,480,481
 748 592 748 592 766 592 c 0,482,483
 785 592 785 592 797 578 c 0,484,485
 812 564 812 564 812 546 c 256,486,487
 812 527 812 527 797 513 c 0,488,489
 790 507 790 507 784 504 c 1,490,-1
 784 504 l 1,491,492
 791 501 791 501 797 495 c 0,493,494
 812 481 812 481 812 462 c 128,-1,495
 812 443 812 443 797 430 c 0,496,497
 783 416 783 416 766 416 c 1,498,-1
 766 416 l 1,466,467
886 500 m 1,499,500
 868 500 868 500 854 513 c 0,501,502
 840 527 840 527 840 546 c 256,503,504
 840 565 840 565 854 578 c 0,505,506
 868 592 868 592 886 592 c 0,507,508
 905 592 905 592 918 578 c 0,509,510
 931.066666667 564.933333333 931.066666667 564.933333333 931.066666667 548.382222222 c 0,511,512
 931.066666667 527.071794872 931.066666667 527.071794872 918 513 c 0,513,514
 904.933333333 499.933333333 904.933333333 499.933333333 888.382222222 499.933333333 c 0,515,516
 887.2 499.933333333 887.2 499.933333333 886 500 c 1,517,-1
 886 500 l 1,499,500
EndSplineSet
EndChar

StartChar: ampersand
Encoding: 38 38 6
Width: 1200
VWidth: 750
Flags: W
LayerCount: 2
Fore
SplineSet
285 0 m 1,0,1
 266 0 266 0 253 14 c 0,2,3
 239.933333333 27.0666666667 239.933333333 27.0666666667 239.933333333 43.6177777778 c 0,4,5
 239.933333333 64.9333333333 239.933333333 64.9333333333 253 78 c 0,6,7
 267 92 267 92 285 92 c 0,8,9
 304 92 304 92 318 78 c 0,10,11
 331.066666667 64.9333333333 331.066666667 64.9333333333 331.066666667 48.3822222222 c 0,12,13
 331.066666667 28.0717948718 331.066666667 28.0717948718 318 14 c 0,14,15
 304 0 304 0 285 0 c 1,16,-1
 285 0 l 1,0,1
406 0 m 1,17,18
 388 0 388 0 374 14 c 128,-1,19
 360 28 360 28 360 46 c 0,20,21
 360 65 360 65 374 78 c 0,22,23
 388 92 388 92 406 92 c 0,24,25
 425 92 425 92 437 78 c 0,26,27
 452 64 452 64 452 46 c 128,-1,28
 452 28 452 28 437 14 c 0,29,30
 423 0 423 0 406 0 c 1,31,-1
 406 0 l 1,17,18
526 0 m 1,32,33
 508 0 508 0 494 14 c 128,-1,34
 480 28 480 28 480 46 c 0,35,36
 480 65 480 65 494 78 c 0,37,38
 508 92 508 92 526 92 c 0,39,40
 545 92 545 92 558 78 c 0,41,42
 571.066666667 64.9333333333 571.066666667 64.9333333333 571.066666667 48.3822222222 c 0,43,44
 571.066666667 28.0717948718 571.066666667 28.0717948718 558 14 c 0,45,46
 544 0 544 0 526 0 c 1,47,-1
 526 0 l 1,32,33
886 0 m 1,48,49
 868 0 868 0 854 14 c 128,-1,50
 840 28 840 28 840 46 c 0,51,52
 840 65 840 65 854 78 c 0,53,54
 868 92 868 92 886 92 c 0,55,56
 905 92 905 92 918 78 c 0,57,58
 931.066666667 64.9333333333 931.066666667 64.9333333333 931.066666667 48.3822222222 c 0,59,60
 931.066666667 28.0717948718 931.066666667 28.0717948718 918 14 c 0,61,62
 904 0 904 0 886 0 c 1,63,-1
 886 0 l 1,48,49
766 0 m 1,64,65
 748 0 748 0 734 14 c 128,-1,66
 720 28 720 28 720 46 c 0,67,68
 720 65 720 65 734 78 c 0,69,70
 740 84 740 84 746 87 c 1,71,-1
 746 87 l 1,72,73
 740 90 740 90 734 97 c 0,74,75
 720 111 720 111 720 129 c 256,76,77
 720 148 720 148 734 161 c 0,78,79
 748 175 748 175 766 175 c 0,80,81
 785 175 785 175 797 161 c 0,82,83
 812 147 812 147 812 129 c 256,84,85
 812 110 812 110 797 97 c 0,86,87
 790 91 790 91 784 87 c 1,88,-1
 784 87 l 1,89,90
 791 84 791 84 797 78 c 0,91,92
 812 64 812 64 812 46 c 128,-1,93
 812 28 812 28 797 14 c 0,94,95
 783 0 783 0 766 0 c 1,96,-1
 766 0 l 1,64,65
46 83 m 1,97,98
 28 83 28 83 14 97 c 128,-1,99
 0 111 0 111 0 129 c 256,100,101
 0 148 0 148 14 161 c 0,102,103
 20 167 20 167 26 171 c 1,104,-1
 26 171 l 1,105,106
 20 174 20 174 14 180 c 0,107,108
 0 194 0 194 0 212 c 256,109,110
 0 230 0 230 14 244 c 128,-1,111
 28 258 28 258 46 258 c 256,112,113
 65 258 65 258 78 244 c 0,114,115
 92 230 92 230 92 212 c 256,116,117
 92 193 92 193 78 180 c 0,118,119
 72 174 72 174 64 171 c 1,120,-1
 64 171 l 1,121,122
 71 168 71 168 78 161 c 0,123,124
 92 147 92 147 92 129 c 256,125,126
 92 110 92 110 78 97 c 0,127,128
 64 83 64 83 46 83 c 1,129,-1
 46 83 l 1,97,98
645 83 m 1,130,131
 626 83 626 83 613 97 c 0,132,133
 599.933333333 110.066666667 599.933333333 110.066666667 599.933333333 126.617777778 c 0,134,135
 599.933333333 147.933333333 599.933333333 147.933333333 613 161 c 0,136,137
 619 167 619 167 626 171 c 1,138,-1
 626 171 l 1,139,140
 618 174 618 174 613 180 c 0,141,142
 599.933333333 193.066666667 599.933333333 193.066666667 599.933333333 209.617777778 c 0,143,144
 599.933333333 229.928205128 599.933333333 229.928205128 613 244 c 0,145,146
 627 258 627 258 645 258 c 0,147,148
 664 258 664 258 678 244 c 0,149,150
 691.066666667 230.933333333 691.066666667 230.933333333 691.066666667 214.382222222 c 0,151,152
 691.066666667 193.066666667 691.066666667 193.066666667 678 180 c 0,153,154
 672 174 672 174 664 171 c 1,155,-1
 664 171 l 1,156,157
 671 168 671 168 678 161 c 0,158,159
 691.066666667 147.933333333 691.066666667 147.933333333 691.066666667 131.382222222 c 0,160,161
 691.066666667 110.066666667 691.066666667 110.066666667 678 97 c 0,162,163
 664 83 664 83 645 83 c 1,164,-1
 645 83 l 1,130,131
166 0 m 1,165,166
 148 0 148 0 134 14 c 128,-1,167
 120 28 120 28 120 46 c 0,168,169
 120 65 120 65 134 78 c 0,170,171
 140 84 140 84 146 87 c 1,172,-1
 146 87 l 1,173,174
 140 90 140 90 134 97 c 0,175,176
 120 111 120 111 120 129 c 256,177,178
 120 148 120 148 134 161 c 0,179,180
 140 167 140 167 146 171 c 1,181,-1
 146 171 l 1,182,183
 140 174 140 174 134 180 c 0,184,185
 120 194 120 194 120 212 c 256,186,187
 120 230 120 230 134 244 c 0,188,189
 140 250 140 250 146 254 c 1,190,-1
 146 254 l 1,191,192
 140 257 140 257 134 263 c 0,193,194
 120 278 120 278 120 296 c 0,195,196
 120 316 120 316 134 328 c 0,197,198
 147.066666667 341.066666667 147.066666667 341.066666667 163.617777778 341.066666667 c 0,199,200
 164.8 341.066666667 164.8 341.066666667 166 341 c 128,-1,201
 167.266666667 341.066666667 167.266666667 341.066666667 168.506666667 341.066666667 c 0,202,203
 185.866666667 341.066666667 185.866666667 341.066666667 198 328 c 0,204,205
 211.066666667 314.933333333 211.066666667 314.933333333 211.066666667 298.382222222 c 0,206,207
 211.066666667 277.071794872 211.066666667 277.071794872 198 263 c 0,208,209
 192 257 192 257 185 254 c 1,210,-1
 185 254 l 1,211,212
 192 250 192 250 198 244 c 0,213,214
 211.066666667 230.933333333 211.066666667 230.933333333 211.066666667 214.382222222 c 0,215,216
 211.066666667 193.066666667 211.066666667 193.066666667 198 180 c 0,217,218
 192 174 192 174 185 171 c 1,219,-1
 185 171 l 1,220,221
 192 168 192 168 198 161 c 0,222,223
 211.066666667 147.933333333 211.066666667 147.933333333 211.066666667 131.382222222 c 0,224,225
 211.066666667 110.066666667 211.066666667 110.066666667 198 97 c 0,226,227
 192 91 192 91 185 87 c 1,228,-1
 185 87 l 1,229,230
 192 84 192 84 198 78 c 0,231,232
 211.066666667 64.9333333333 211.066666667 64.9333333333 211.066666667 48.3822222222 c 0,233,234
 211.066666667 28.0717948718 211.066666667 28.0717948718 198 14 c 0,235,236
 184 0 184 0 166 0 c 1,237,-1
 166 0 l 1,165,166
406 250 m 1,238,239
 388 250 388 250 374 263 c 0,240,241
 360 278 360 278 360 296 c 0,242,243
 360 316 360 316 374 328 c 0,244,245
 380 334 380 334 386 338 c 1,246,-1
 386 338 l 1,247,248
 380 340 380 340 374 346 c 0,249,250
 360 360 360 360 360 379 c 256,251,252
 360 398 360 398 374 411 c 128,-1,253
 388 424 388 424 406 424 c 0,254,255
 425 424 425 424 437 411 c 0,256,257
 452 397 452 397 452 379 c 256,258,259
 452 360 452 360 437 346 c 0,260,261
 430 340 430 340 424 338 c 1,262,-1
 424 338 l 1,263,264
 431 334 431 334 437 328 c 0,265,266
 452 314 452 314 452 296 c 0,267,268
 452 277 452 277 437 263 c 0,269,270
 423.933333333 249.933333333 423.933333333 249.933333333 408.253333333 249.933333333 c 0,271,272
 407.133333333 249.933333333 407.133333333 249.933333333 406 250 c 1,273,-1
 406 250 l 1,238,239
526 166 m 1,274,275
 508 166 508 166 494 180 c 128,-1,276
 480 194 480 194 480 212 c 256,277,278
 480 230 480 230 494 244 c 0,279,280
 500 250 500 250 506 254 c 1,281,-1
 506 254 l 1,282,283
 500 257 500 257 494 263 c 0,284,285
 480 278 480 278 480 296 c 0,286,287
 480 316 480 316 494 328 c 0,288,289
 500 334 500 334 506 338 c 1,290,-1
 506 338 l 1,291,292
 500 340 500 340 494 346 c 0,293,294
 480 360 480 360 480 379 c 256,295,296
 480 398 480 398 494 411 c 128,-1,297
 508 424 508 424 526 424 c 0,298,299
 545 424 545 424 558 411 c 128,-1,300
 571.066666667 397.933333333 571.066666667 397.933333333 571.066666667 381.382222222 c 0,301,302
 571.066666667 360.071794872 571.066666667 360.071794872 558 346 c 0,303,304
 552 340 552 340 545 338 c 1,305,-1
 545 338 l 1,306,307
 552 334 552 334 558 328 c 0,308,309
 571.066666667 314.933333333 571.066666667 314.933333333 571.066666667 298.382222222 c 0,310,311
 571.066666667 277.071794872 571.066666667 277.071794872 558 263 c 0,312,313
 552 257 552 257 545 254 c 1,314,-1
 545 254 l 1,315,316
 552 250 552 250 558 244 c 0,317,318
 571.066666667 230.933333333 571.066666667 230.933333333 571.066666667 214.382222222 c 0,319,320
 571.066666667 193.066666667 571.066666667 193.066666667 558 180 c 0,321,322
 544 166 544 166 526 166 c 1,323,-1
 526 166 l 1,274,275
166 416 m 1,324,325
 148 416 148 416 134 430 c 128,-1,326
 120 444 120 444 120 462 c 0,327,328
 120 481 120 481 134 495 c 0,329,330
 148 508 148 508 166 508 c 0,331,332
 185 508 185 508 198 495 c 128,-1,333
 211.066666667 481.933333333 211.066666667 481.933333333 211.066666667 464.511111111 c 0,334,335
 211.066666667 443.066666667 211.066666667 443.066666667 198 430 c 0,336,337
 184 416 184 416 166 416 c 1,338,-1
 166 416 l 1,324,325
766 416 m 1,339,340
 748 416 748 416 734 430 c 128,-1,341
 720 444 720 444 720 462 c 0,342,343
 720 481 720 481 734 495 c 0,344,345
 748 508 748 508 766 508 c 0,346,347
 785 508 785 508 797 495 c 0,348,349
 812 481 812 481 812 462 c 128,-1,350
 812 443 812 443 797 430 c 0,351,352
 783 416 783 416 766 416 c 1,353,-1
 766 416 l 1,339,340
285 250 m 1,354,355
 266 250 266 250 253 263 c 0,356,357
 239.933333333 277 239.933333333 277 239.933333333 293.613333333 c 0,358,359
 239.933333333 315.938461538 239.933333333 315.938461538 253 328 c 0,360,361
 259 334 259 334 266 338 c 1,362,-1
 266 338 l 1,363,364
 258 340 258 340 253 346 c 0,365,366
 239.933333333 359.066666667 239.933333333 359.066666667 239.933333333 376.488888889 c 0,367,368
 239.933333333 397.933333333 239.933333333 397.933333333 253 411 c 0,369,370
 259 417 259 417 266 421 c 1,371,-1
 266 421 l 1,372,373
 258 424 258 424 253 430 c 0,374,375
 239.933333333 443.066666667 239.933333333 443.066666667 239.933333333 459.617777778 c 0,376,377
 239.933333333 480.928205128 239.933333333 480.928205128 253 495 c 0,378,379
 259 501 259 501 266 504 c 1,380,-1
 266 504 l 1,381,382
 258 507 258 507 253 513 c 0,383,384
 239.933333333 526.066666667 239.933333333 526.066666667 239.933333333 543.488888889 c 0,385,386
 239.933333333 564.933333333 239.933333333 564.933333333 253 578 c 0,387,388
 267 592 267 592 285 592 c 0,389,390
 304 592 304 592 318 578 c 0,391,392
 331.066666667 564.933333333 331.066666667 564.933333333 331.066666667 548.382222222 c 0,393,394
 331.066666667 527.071794872 331.066666667 527.071794872 318 513 c 0,395,396
 312 507 312 507 304 504 c 1,397,-1
 304 504 l 1,398,399
 311 501 311 501 318 495 c 0,400,401
 331.066666667 481.933333333 331.066666667 481.933333333 331.066666667 464.511111111 c 0,402,403
 331.066666667 443.066666667 331.066666667 443.066666667 318 430 c 0,404,405
 312 424 312 424 304 421 c 1,406,-1
 304 421 l 1,407,408
 311 418 311 418 318 411 c 0,409,410
 331.066666667 397.933333333 331.066666667 397.933333333 331.066666667 381.382222222 c 0,411,412
 331.066666667 360.071794872 331.066666667 360.071794872 318 346 c 0,413,414
 312 340 312 340 304 338 c 1,415,-1
 304 338 l 1,416,417
 311 334 311 334 318 328 c 0,418,419
 331.066666667 314.933333333 331.066666667 314.933333333 331.066666667 298.382222222 c 0,420,421
 331.066666667 277.071794872 331.066666667 277.071794872 318 263 c 0,422,423
 304.933333333 249.933333333 304.933333333 249.933333333 287.511111111 249.933333333 c 0,424,425
 286.266666667 249.933333333 286.266666667 249.933333333 285 250 c 1,426,-1
 285 250 l 1,354,355
406 500 m 1,427,428
 388 500 388 500 374 513 c 0,429,430
 360 527 360 527 360 546 c 256,431,432
 360 565 360 565 374 578 c 0,433,434
 388 592 388 592 406 592 c 0,435,436
 425 592 425 592 437 578 c 0,437,438
 452 564 452 564 452 546 c 256,439,440
 452 527 452 527 437 513 c 0,441,442
 423.933333333 499.933333333 423.933333333 499.933333333 408.253333333 499.933333333 c 0,443,444
 407.133333333 499.933333333 407.133333333 499.933333333 406 500 c 1,445,-1
 406 500 l 1,427,428
526 500 m 1,446,447
 508 500 508 500 494 513 c 0,448,449
 480 527 480 527 480 546 c 256,450,451
 480 565 480 565 494 578 c 0,452,453
 508 592 508 592 526 592 c 0,454,455
 545 592 545 592 558 578 c 0,456,457
 571.066666667 564.933333333 571.066666667 564.933333333 571.066666667 548.382222222 c 0,458,459
 571.066666667 527.071794872 571.066666667 527.071794872 558 513 c 0,460,461
 544.933333333 499.933333333 544.933333333 499.933333333 528.382222222 499.933333333 c 0,462,463
 527.2 499.933333333 527.2 499.933333333 526 500 c 1,464,-1
 526 500 l 1,446,447
645 333 m 1,465,466
 643.733333333 332.933333333 643.733333333 332.933333333 642.493333333 332.933333333 c 0,467,468
 625.133333333 332.933333333 625.133333333 332.933333333 613 346 c 0,469,470
 599.933333333 359.066666667 599.933333333 359.066666667 599.933333333 376.488888889 c 0,471,472
 599.933333333 397.933333333 599.933333333 397.933333333 613 411 c 0,473,474
 619 417 619 417 626 421 c 1,475,-1
 626 421 l 1,476,477
 618 424 618 424 613 430 c 0,478,479
 599.933333333 443.066666667 599.933333333 443.066666667 599.933333333 459.617777778 c 0,480,481
 599.933333333 480.928205128 599.933333333 480.928205128 613 495 c 0,482,483
 619 501 619 501 626 504 c 1,484,-1
 626 504 l 1,485,486
 618 507 618 507 613 513 c 0,487,488
 599.933333333 526.066666667 599.933333333 526.066666667 599.933333333 543.488888889 c 0,489,490
 599.933333333 564.933333333 599.933333333 564.933333333 613 578 c 0,491,492
 627 592 627 592 645 592 c 0,493,494
 664 592 664 592 678 578 c 0,495,496
 691.066666667 564.933333333 691.066666667 564.933333333 691.066666667 548.382222222 c 0,497,498
 691.066666667 527.071794872 691.066666667 527.071794872 678 513 c 0,499,500
 672 507 672 507 664 504 c 1,501,-1
 664 504 l 1,502,503
 671 501 671 501 678 495 c 0,504,505
 691.066666667 481.933333333 691.066666667 481.933333333 691.066666667 464.511111111 c 0,506,507
 691.066666667 443.066666667 691.066666667 443.066666667 678 430 c 0,508,509
 672 424 672 424 664 421 c 1,510,-1
 664 421 l 1,511,512
 671 418 671 418 678 411 c 0,513,514
 691.066666667 397.933333333 691.066666667 397.933333333 691.066666667 381.382222222 c 0,515,516
 691.066666667 360.071794872 691.066666667 360.071794872 678 346 c 0,517,518
 664.933333333 332.933333333 664.933333333 332.933333333 647.511111111 332.933333333 c 0,519,520
 646.266666667 332.933333333 646.266666667 332.933333333 645 333 c 1,521,-1
 645 333 l 1,465,466
EndSplineSet
EndChar

StartChar: quotesingle
Encoding: 39 39 7
Width: 1200
VWidth: 750
Flags: W
LayerCount: 2
Fore
SplineSet
285 333 m 1,0,1
 283.733333333 332.933333333 283.733333333 332.933333333 282.493333333 332.933333333 c 0,2,3
 265.133333333 332.933333333 265.133333333 332.933333333 253 346 c 0,4,5
 239.933333333 359.066666667 239.933333333 359.066666667 239.933333333 376.488888889 c 0,6,7
 239.933333333 397.933333333 239.933333333 397.933333333 253 411 c 0,8,9
 267 424 267 424 285 424 c 0,10,11
 304 424 304 424 318 411 c 0,12,13
 331.066666667 397.933333333 331.066666667 397.933333333 331.066666667 381.382222222 c 0,14,15
 331.066666667 360.071794872 331.066666667 360.071794872 318 346 c 0,16,17
 304.933333333 332.933333333 304.933333333 332.933333333 287.511111111 332.933333333 c 0,18,19
 286.266666667 332.933333333 286.266666667 332.933333333 285 333 c 1,20,-1
 285 333 l 1,0,1
406 333 m 1,21,22
 404.8 332.933333333 404.8 332.933333333 403.617777778 332.933333333 c 0,23,24
 387.066666667 332.933333333 387.066666667 332.933333333 374 346 c 0,25,26
 360 360 360 360 360 379 c 256,27,28
 360 398 360 398 374 411 c 0,29,30
 380 417 380 417 386 421 c 1,31,-1
 386 421 l 1,32,33
 380 424 380 424 374 430 c 0,34,35
 360 444 360 444 360 462 c 0,36,37
 360 481 360 481 374 495 c 0,38,39
 388 508 388 508 406 508 c 0,40,41
 425 508 425 508 437 495 c 0,42,43
 452 481 452 481 452 462 c 128,-1,44
 452 443 452 443 437 430 c 0,45,46
 430 424 430 424 424 421 c 1,47,-1
 424 421 l 1,48,49
 431 418 431 418 437 411 c 0,50,51
 452 397 452 397 452 379 c 256,52,53
 452 360 452 360 437 346 c 0,54,55
 423.933333333 332.933333333 423.933333333 332.933333333 408.253333333 332.933333333 c 0,56,57
 407.133333333 332.933333333 407.133333333 332.933333333 406 333 c 1,58,-1
 406 333 l 1,21,22
526 416 m 1,59,60
 508 416 508 416 494 430 c 128,-1,61
 480 444 480 444 480 462 c 0,62,63
 480 481 480 481 494 495 c 0,64,65
 500 501 500 501 506 504 c 1,66,-1
 506 504 l 1,67,68
 500 507 500 507 494 513 c 0,69,70
 480 527 480 527 480 546 c 256,71,72
 480 565 480 565 494 578 c 0,73,74
 508 592 508 592 526 592 c 0,75,76
 545 592 545 592 558 578 c 0,77,78
 571.066666667 564.933333333 571.066666667 564.933333333 571.066666667 548.382222222 c 0,79,80
 571.066666667 527.071794872 571.066666667 527.071794872 558 513 c 0,81,82
 552 507 552 507 545 504 c 1,83,-1
 545 504 l 1,84,85
 552 501 552 501 558 495 c 0,86,87
 571.066666667 481.933333333 571.066666667 481.933333333 571.066666667 464.511111111 c 0,88,89
 571.066666667 443.066666667 571.066666667 443.066666667 558 430 c 0,90,91
 544 416 544 416 526 416 c 1,92,-1
 526 416 l 1,59,60
645 500 m 1,93,94
 626 500 626 500 613 513 c 128,-1,95
 599.933333333 526.066666667 599.933333333 526.066666667 599.933333333 543.488888889 c 0,96,97
 599.933333333 564.933333333 599.933333333 564.933333333 613 578 c 0,98,99
 627 592 627 592 645 592 c 0,100,101
 664 592 664 592 678 578 c 0,102,103
 691.066666667 564.933333333 691.066666667 564.933333333 691.066666667 548.382222222 c 0,104,105
 691.066666667 527.071794872 691.066666667 527.071794872 678 513 c 0,106,107
 664.933333333 499.933333333 664.933333333 499.933333333 647.511111111 499.933333333 c 0,108,109
 646.266666667 499.933333333 646.266666667 499.933333333 645 500 c 1,110,-1
 645 500 l 1,93,94
EndSplineSet
EndChar

StartChar: parenleft
Encoding: 40 40 8
Width: 1200
VWidth: 750
Flags: W
LayerCount: 2
Fore
SplineSet
645 0 m 1,0,1
 626 0 626 0 613 14 c 0,2,3
 599.933333333 27.0666666667 599.933333333 27.0666666667 599.933333333 43.6177777778 c 0,4,5
 599.933333333 64.9333333333 599.933333333 64.9333333333 613 78 c 0,6,7
 627 92 627 92 645 92 c 0,8,9
 664 92 664 92 678 78 c 0,10,11
 691.066666667 64.9333333333 691.066666667 64.9333333333 691.066666667 48.3822222222 c 0,12,13
 691.066666667 28.0717948718 691.066666667 28.0717948718 678 14 c 0,14,15
 664 0 664 0 645 0 c 1,16,-1
 645 0 l 1,0,1
526 0 m 1,17,18
 508 0 508 0 494 14 c 128,-1,19
 480 28 480 28 480 46 c 0,20,21
 480 65 480 65 494 78 c 0,22,23
 500 84 500 84 506 87 c 1,24,-1
 506 87 l 1,25,26
 500 90 500 90 494 97 c 0,27,28
 480 111 480 111 480 129 c 256,29,30
 480 148 480 148 494 161 c 0,31,32
 508 175 508 175 526 175 c 0,33,34
 545 175 545 175 558 161 c 0,35,36
 571.066666667 147.933333333 571.066666667 147.933333333 571.066666667 131.382222222 c 0,37,38
 571.066666667 110.066666667 571.066666667 110.066666667 558 97 c 0,39,40
 552 91 552 91 545 87 c 1,41,-1
 545 87 l 1,42,43
 552 84 552 84 558 78 c 0,44,45
 571.066666667 64.9333333333 571.066666667 64.9333333333 571.066666667 48.3822222222 c 0,46,47
 571.066666667 28.0717948718 571.066666667 28.0717948718 558 14 c 0,48,49
 544 0 544 0 526 0 c 1,50,-1
 526 0 l 1,17,18
285 166 m 1,51,52
 266 166 266 166 253 180 c 0,53,54
 239.933333333 193.066666667 239.933333333 193.066666667 239.933333333 209.617777778 c 0,55,56
 239.933333333 229.928205128 239.933333333 229.928205128 253 244 c 0,57,58
 259 250 259 250 266 254 c 1,59,-1
 266 254 l 1,60,61
 258 257 258 257 253 263 c 0,62,63
 239.933333333 277 239.933333333 277 239.933333333 293.613333333 c 0,64,65
 239.933333333 315.938461538 239.933333333 315.938461538 253 328 c 0,66,67
 259 334 259 334 266 338 c 1,68,-1
 266 338 l 1,69,70
 258 340 258 340 253 346 c 0,71,72
 239.933333333 359.066666667 239.933333333 359.066666667 239.933333333 376.488888889 c 0,73,74
 239.933333333 397.933333333 239.933333333 397.933333333 253 411 c 0,75,76
 267 424 267 424 285 424 c 0,77,78
 304 424 304 424 318 411 c 0,79,80
 331.066666667 397.933333333 331.066666667 397.933333333 331.066666667 381.382222222 c 0,81,82
 331.066666667 360.071794872 331.066666667 360.071794872 318 346 c 0,83,84
 312 340 312 340 304 338 c 1,85,-1
 304 338 l 1,86,87
 311 334 311 334 318 328 c 0,88,89
 331.066666667 314.933333333 331.066666667 314.933333333 331.066666667 298.382222222 c 0,90,91
 331.066666667 277.071794872 331.066666667 277.071794872 318 263 c 0,92,93
 312 257 312 257 304 254 c 1,94,-1
 304 254 l 1,95,96
 311 250 311 250 318 244 c 0,97,98
 331.066666667 230.933333333 331.066666667 230.933333333 331.066666667 214.382222222 c 0,99,100
 331.066666667 193.066666667 331.066666667 193.066666667 318 180 c 0,101,102
 304 166 304 166 285 166 c 1,103,-1
 285 166 l 1,51,52
406 83 m 1,104,105
 388 83 388 83 374 97 c 128,-1,106
 360 111 360 111 360 129 c 256,107,108
 360 148 360 148 374 161 c 0,109,110
 380 167 380 167 386 171 c 1,111,-1
 386 171 l 1,112,113
 380 174 380 174 374 180 c 0,114,115
 360 194 360 194 360 212 c 256,116,117
 360 230 360 230 374 244 c 0,118,119
 380 250 380 250 386 254 c 1,120,-1
 386 254 l 1,121,122
 380 257 380 257 374 263 c 0,123,124
 360 278 360 278 360 296 c 0,125,126
 360 316 360 316 374 328 c 0,127,128
 380 334 380 334 386 338 c 1,129,-1
 386 338 l 1,130,131
 380 340 380 340 374 346 c 0,132,133
 360 360 360 360 360 379 c 256,134,135
 360 398 360 398 374 411 c 0,136,137
 380 417 380 417 386 421 c 1,138,-1
 386 421 l 1,139,140
 380 424 380 424 374 430 c 0,141,142
 360 444 360 444 360 462 c 0,143,144
 360 481 360 481 374 495 c 0,145,146
 388 508 388 508 406 508 c 0,147,148
 425 508 425 508 437 495 c 0,149,150
 452 481 452 481 452 462 c 128,-1,151
 452 443 452 443 437 430 c 0,152,153
 430 424 430 424 424 421 c 1,154,-1
 424 421 l 1,155,156
 431 418 431 418 437 411 c 0,157,158
 452 397 452 397 452 379 c 256,159,160
 452 360 452 360 437 346 c 0,161,162
 430 340 430 340 424 338 c 1,163,-1
 424 338 l 1,164,165
 431 334 431 334 437 328 c 0,166,167
 452 314 452 314 452 296 c 0,168,169
 452 277 452 277 437 263 c 0,170,171
 430 257 430 257 424 254 c 1,172,-1
 424 254 l 1,173,174
 431 250 431 250 437 244 c 0,175,176
 452 230 452 230 452 212 c 256,177,178
 452 193 452 193 437 180 c 0,179,180
 430 174 430 174 424 171 c 1,181,-1
 424 171 l 1,182,183
 431 168 431 168 437 161 c 0,184,185
 452 147 452 147 452 129 c 256,186,187
 452 110 452 110 437 97 c 0,188,189
 423 83 423 83 406 83 c 1,190,-1
 406 83 l 1,104,105
526 416 m 1,191,192
 508 416 508 416 494 430 c 128,-1,193
 480 444 480 444 480 462 c 0,194,195
 480 481 480 481 494 495 c 0,196,197
 500 501 500 501 506 504 c 1,198,-1
 506 504 l 1,199,200
 500 507 500 507 494 513 c 0,201,202
 480 527 480 527 480 546 c 256,203,204
 480 565 480 565 494 578 c 0,205,206
 508 592 508 592 526 592 c 0,207,208
 545 592 545 592 558 578 c 0,209,210
 571.066666667 564.933333333 571.066666667 564.933333333 571.066666667 548.382222222 c 0,211,212
 571.066666667 527.071794872 571.066666667 527.071794872 558 513 c 0,213,214
 552 507 552 507 545 504 c 1,215,-1
 545 504 l 1,216,217
 552 501 552 501 558 495 c 0,218,219
 571.066666667 481.933333333 571.066666667 481.933333333 571.066666667 464.511111111 c 0,220,221
 571.066666667 443.066666667 571.066666667 443.066666667 558 430 c 0,222,223
 544 416 544 416 526 416 c 1,224,-1
 526 416 l 1,191,192
645 500 m 1,225,226
 626 500 626 500 613 513 c 128,-1,227
 599.933333333 526.066666667 599.933333333 526.066666667 599.933333333 543.488888889 c 0,228,229
 599.933333333 564.933333333 599.933333333 564.933333333 613 578 c 0,230,231
 627 592 627 592 645 592 c 0,232,233
 664 592 664 592 678 578 c 0,234,235
 691.066666667 564.933333333 691.066666667 564.933333333 691.066666667 548.382222222 c 0,236,237
 691.066666667 527.071794872 691.066666667 527.071794872 678 513 c 0,238,239
 664.933333333 499.933333333 664.933333333 499.933333333 647.511111111 499.933333333 c 0,240,241
 646.266666667 499.933333333 646.266666667 499.933333333 645 500 c 1,242,-1
 645 500 l 1,225,226
EndSplineSet
EndChar

StartChar: parenright
Encoding: 41 41 9
Width: 1200
VWidth: 750
Flags: W
LayerCount: 2
Fore
SplineSet
285 0 m 1,0,1
 266 0 266 0 253 14 c 0,2,3
 239.933333333 27.0666666667 239.933333333 27.0666666667 239.933333333 43.6177777778 c 0,4,5
 239.933333333 64.9333333333 239.933333333 64.9333333333 253 78 c 0,6,7
 267 92 267 92 285 92 c 0,8,9
 304 92 304 92 318 78 c 0,10,11
 331.066666667 64.9333333333 331.066666667 64.9333333333 331.066666667 48.3822222222 c 0,12,13
 331.066666667 28.0717948718 331.066666667 28.0717948718 318 14 c 0,14,15
 304 0 304 0 285 0 c 1,16,-1
 285 0 l 1,0,1
406 0 m 1,17,18
 388 0 388 0 374 14 c 128,-1,19
 360 28 360 28 360 46 c 0,20,21
 360 65 360 65 374 78 c 0,22,23
 380 84 380 84 386 87 c 1,24,-1
 386 87 l 1,25,26
 380 90 380 90 374 97 c 0,27,28
 360 111 360 111 360 129 c 256,29,30
 360 148 360 148 374 161 c 0,31,32
 388 175 388 175 406 175 c 0,33,34
 425 175 425 175 437 161 c 0,35,36
 452 147 452 147 452 129 c 256,37,38
 452 110 452 110 437 97 c 0,39,40
 430 91 430 91 424 87 c 1,41,-1
 424 87 l 1,42,43
 431 84 431 84 437 78 c 0,44,45
 452 64 452 64 452 46 c 128,-1,46
 452 28 452 28 437 14 c 0,47,48
 423 0 423 0 406 0 c 1,49,-1
 406 0 l 1,17,18
645 166 m 1,50,51
 626 166 626 166 613 180 c 0,52,53
 599.933333333 193.066666667 599.933333333 193.066666667 599.933333333 209.617777778 c 0,54,55
 599.933333333 229.928205128 599.933333333 229.928205128 613 244 c 0,56,57
 619 250 619 250 626 254 c 1,58,-1
 626 254 l 1,59,60
 618 257 618 257 613 263 c 0,61,62
 599.933333333 277 599.933333333 277 599.933333333 293.613333333 c 0,63,64
 599.933333333 315.938461538 599.933333333 315.938461538 613 328 c 0,65,66
 619 334 619 334 626 338 c 1,67,-1
 626 338 l 1,68,69
 618 340 618 340 613 346 c 0,70,71
 599.933333333 359.066666667 599.933333333 359.066666667 599.933333333 376.488888889 c 0,72,73
 599.933333333 397.933333333 599.933333333 397.933333333 613 411 c 0,74,75
 627 424 627 424 645 424 c 0,76,77
 664 424 664 424 678 411 c 0,78,79
 691.066666667 397.933333333 691.066666667 397.933333333 691.066666667 381.382222222 c 0,80,81
 691.066666667 360.071794872 691.066666667 360.071794872 678 346 c 0,82,83
 672 340 672 340 664 338 c 1,84,-1
 664 338 l 1,85,86
 671 334 671 334 678 328 c 0,87,88
 691.066666667 314.933333333 691.066666667 314.933333333 691.066666667 298.382222222 c 0,89,90
 691.066666667 277.071794872 691.066666667 277.071794872 678 263 c 0,91,92
 672 257 672 257 664 254 c 1,93,-1
 664 254 l 1,94,95
 671 250 671 250 678 244 c 0,96,97
 691.066666667 230.933333333 691.066666667 230.933333333 691.066666667 214.382222222 c 0,98,99
 691.066666667 193.066666667 691.066666667 193.066666667 678 180 c 0,100,101
 664 166 664 166 645 166 c 1,102,-1
 645 166 l 1,50,51
526 83 m 1,103,104
 508 83 508 83 494 97 c 128,-1,105
 480 111 480 111 480 129 c 256,106,107
 480 148 480 148 494 161 c 0,108,109
 500 167 500 167 506 171 c 1,110,-1
 506 171 l 1,111,112
 500 174 500 174 494 180 c 0,113,114
 480 194 480 194 480 212 c 256,115,116
 480 230 480 230 494 244 c 0,117,118
 500 250 500 250 506 254 c 1,119,-1
 506 254 l 1,120,121
 500 257 500 257 494 263 c 0,122,123
 480 278 480 278 480 296 c 0,124,125
 480 316 480 316 494 328 c 0,126,127
 500 334 500 334 506 338 c 1,128,-1
 506 338 l 1,129,130
 500 340 500 340 494 346 c 0,131,132
 480 360 480 360 480 379 c 256,133,134
 480 398 480 398 494 411 c 0,135,136
 500 417 500 417 506 421 c 1,137,-1
 506 421 l 1,138,139
 500 424 500 424 494 430 c 0,140,141
 480 444 480 444 480 462 c 0,142,143
 480 481 480 481 494 495 c 0,144,145
 508 508 508 508 526 508 c 0,146,147
 545 508 545 508 558 495 c 128,-1,148
 571.066666667 481.933333333 571.066666667 481.933333333 571.066666667 464.511111111 c 0,149,150
 571.066666667 443.066666667 571.066666667 443.066666667 558 430 c 0,151,152
 552 424 552 424 545 421 c 1,153,-1
 545 421 l 1,154,155
 552 418 552 418 558 411 c 0,156,157
 571.066666667 397.933333333 571.066666667 397.933333333 571.066666667 381.382222222 c 0,158,159
 571.066666667 360.071794872 571.066666667 360.071794872 558 346 c 0,160,161
 552 340 552 340 545 338 c 1,162,-1
 545 338 l 1,163,164
 552 334 552 334 558 328 c 0,165,166
 571.066666667 314.933333333 571.066666667 314.933333333 571.066666667 298.382222222 c 0,167,168
 571.066666667 277.071794872 571.066666667 277.071794872 558 263 c 0,169,170
 552 257 552 257 545 254 c 1,171,-1
 545 254 l 1,172,173
 552 250 552 250 558 244 c 0,174,175
 571.066666667 230.933333333 571.066666667 230.933333333 571.066666667 214.382222222 c 0,176,177
 571.066666667 193.066666667 571.066666667 193.066666667 558 180 c 0,178,179
 552 174 552 174 545 171 c 1,180,-1
 545 171 l 1,181,182
 552 168 552 168 558 161 c 0,183,184
 571.066666667 147.933333333 571.066666667 147.933333333 571.066666667 131.382222222 c 0,185,186
 571.066666667 110.066666667 571.066666667 110.066666667 558 97 c 0,187,188
 544 83 544 83 526 83 c 1,189,-1
 526 83 l 1,103,104
285 500 m 1,190,191
 266 500 266 500 253 513 c 128,-1,192
 239.933333333 526.066666667 239.933333333 526.066666667 239.933333333 543.488888889 c 0,193,194
 239.933333333 564.933333333 239.933333333 564.933333333 253 578 c 0,195,196
 267 592 267 592 285 592 c 0,197,198
 304 592 304 592 318 578 c 0,199,200
 331.066666667 564.933333333 331.066666667 564.933333333 331.066666667 548.382222222 c 0,201,202
 331.066666667 527.071794872 331.066666667 527.071794872 318 513 c 0,203,204
 304.933333333 499.933333333 304.933333333 499.933333333 287.511111111 499.933333333 c 0,205,206
 286.266666667 499.933333333 286.266666667 499.933333333 285 500 c 1,207,-1
 285 500 l 1,190,191
406 416 m 1,208,209
 388 416 388 416 374 430 c 128,-1,210
 360 444 360 444 360 462 c 0,211,212
 360 481 360 481 374 495 c 0,213,214
 380 501 380 501 386 504 c 1,215,-1
 386 504 l 1,216,217
 380 507 380 507 374 513 c 0,218,219
 360 527 360 527 360 546 c 256,220,221
 360 565 360 565 374 578 c 0,222,223
 388 592 388 592 406 592 c 0,224,225
 425 592 425 592 437 578 c 0,226,227
 452 564 452 564 452 546 c 256,228,229
 452 527 452 527 437 513 c 0,230,231
 430 507 430 507 424 504 c 1,232,-1
 424 504 l 1,233,234
 431 501 431 501 437 495 c 0,235,236
 452 481 452 481 452 462 c 128,-1,237
 452 443 452 443 437 430 c 0,238,239
 423 416 423 416 406 416 c 1,240,-1
 406 416 l 1,208,209
EndSplineSet
EndChar

StartChar: asterisk
Encoding: 42 42 10
Width: 1200
VWidth: 750
Flags: W
LayerCount: 2
Fore
SplineSet
46 83 m 1,0,1
 28 83 28 83 14 97 c 128,-1,2
 0 111 0 111 0 129 c 256,3,4
 0 148 0 148 14 161 c 0,5,6
 28 175 28 175 46 175 c 256,7,8
 65 175 65 175 78 161 c 0,9,10
 92 147 92 147 92 129 c 256,11,12
 92 110 92 110 78 97 c 0,13,14
 64 83 64 83 46 83 c 1,15,-1
 46 83 l 1,0,1
886 83 m 1,16,17
 868 83 868 83 854 97 c 128,-1,18
 840 111 840 111 840 129 c 256,19,20
 840 148 840 148 854 161 c 0,21,22
 868 175 868 175 886 175 c 0,23,24
 905 175 905 175 918 161 c 0,25,26
 931.066666667 147.933333333 931.066666667 147.933333333 931.066666667 131.382222222 c 0,27,28
 931.066666667 110.066666667 931.066666667 110.066666667 918 97 c 0,29,30
 904 83 904 83 886 83 c 1,31,-1
 886 83 l 1,16,17
166 83 m 1,32,33
 148 83 148 83 134 97 c 128,-1,34
 120 111 120 111 120 129 c 256,35,36
 120 148 120 148 134 161 c 0,37,38
 140 167 140 167 146 171 c 1,39,-1
 146 171 l 1,40,41
 140 174 140 174 134 180 c 0,42,43
 120 194 120 194 120 212 c 256,44,45
 120 230 120 230 134 244 c 128,-1,46
 148 258 148 258 166 258 c 0,47,48
 185 258 185 258 198 244 c 0,49,50
 211.066666667 230.933333333 211.066666667 230.933333333 211.066666667 214.382222222 c 0,51,52
 211.066666667 193.066666667 211.066666667 193.066666667 198 180 c 0,53,54
 192 174 192 174 185 171 c 1,55,-1
 185 171 l 1,56,57
 192 168 192 168 198 161 c 0,58,59
 211.066666667 147.933333333 211.066666667 147.933333333 211.066666667 131.382222222 c 0,60,61
 211.066666667 110.066666667 211.066666667 110.066666667 198 97 c 0,62,63
 184 83 184 83 166 83 c 1,64,-1
 166 83 l 1,32,33
766 83 m 1,65,66
 748 83 748 83 734 97 c 128,-1,67
 720 111 720 111 720 129 c 256,68,69
 720 148 720 148 734 161 c 0,70,71
 740 167 740 167 746 171 c 1,72,-1
 746 171 l 1,73,74
 740 174 740 174 734 180 c 0,75,76
 720 194 720 194 720 212 c 256,77,78
 720 230 720 230 734 244 c 128,-1,79
 748 258 748 258 766 258 c 0,80,81
 785 258 785 258 797 244 c 0,82,83
 812 230 812 230 812 212 c 256,84,85
 812 193 812 193 797 180 c 0,86,87
 790 174 790 174 784 171 c 1,88,-1
 784 171 l 1,89,90
 791 168 791 168 797 161 c 0,91,92
 812 147 812 147 812 129 c 256,93,94
 812 110 812 110 797 97 c 0,95,96
 783 83 783 83 766 83 c 1,97,-1
 766 83 l 1,65,66
285 166 m 1,98,99
 266 166 266 166 253 180 c 0,100,101
 239.933333333 193.066666667 239.933333333 193.066666667 239.933333333 209.617777778 c 0,102,103
 239.933333333 229.928205128 239.933333333 229.928205128 253 244 c 0,104,105
 259 250 259 250 266 254 c 1,106,-1
 266 254 l 1,107,108
 258 257 258 257 253 263 c 0,109,110
 239.933333333 277 239.933333333 277 239.933333333 293.613333333 c 0,111,112
 239.933333333 315.938461538 239.933333333 315.938461538 253 328 c 0,113,114
 259 334 259 334 266 338 c 1,115,-1
 266 338 l 1,116,117
 258 340 258 340 253 346 c 0,118,119
 239.933333333 359.066666667 239.933333333 359.066666667 239.933333333 376.488888889 c 0,120,121
 239.933333333 397.933333333 239.933333333 397.933333333 253 411 c 0,122,123
 267 424 267 424 285 424 c 0,124,125
 304 424 304 424 318 411 c 0,126,127
 331.066666667 397.933333333 331.066666667 397.933333333 331.066666667 381.382222222 c 0,128,129
 331.066666667 360.071794872 331.066666667 360.071794872 318 346 c 0,130,131
 312 340 312 340 304 338 c 1,132,-1
 304 338 l 1,133,134
 311 334 311 334 318 328 c 0,135,136
 331.066666667 314.933333333 331.066666667 314.933333333 331.066666667 298.382222222 c 0,137,138
 331.066666667 277.071794872 331.066666667 277.071794872 318 263 c 0,139,140
 312 257 312 257 304 254 c 1,141,-1
 304 254 l 1,142,143
 311 250 311 250 318 244 c 0,144,145
 331.066666667 230.933333333 331.066666667 230.933333333 331.066666667 214.382222222 c 0,146,147
 331.066666667 193.066666667 331.066666667 193.066666667 318 180 c 0,148,149
 304 166 304 166 285 166 c 1,150,-1
 285 166 l 1,98,99
645 166 m 1,151,152
 626 166 626 166 613 180 c 0,153,154
 599.933333333 193.066666667 599.933333333 193.066666667 599.933333333 209.617777778 c 0,155,156
 599.933333333 229.928205128 599.933333333 229.928205128 613 244 c 0,157,158
 619 250 619 250 626 254 c 1,159,-1
 626 254 l 1,160,161
 618 257 618 257 613 263 c 0,162,163
 599.933333333 277 599.933333333 277 599.933333333 293.613333333 c 0,164,165
 599.933333333 315.938461538 599.933333333 315.938461538 613 328 c 0,166,167
 619 334 619 334 626 338 c 1,168,-1
 626 338 l 1,169,170
 618 340 618 340 613 346 c 0,171,172
 599.933333333 359.066666667 599.933333333 359.066666667 599.933333333 376.488888889 c 0,173,174
 599.933333333 397.933333333 599.933333333 397.933333333 613 411 c 0,175,176
 627 424 627 424 645 424 c 0,177,178
 664 424 664 424 678 411 c 0,179,180
 691.066666667 397.933333333 691.066666667 397.933333333 691.066666667 381.382222222 c 0,181,182
 691.066666667 360.071794872 691.066666667 360.071794872 678 346 c 0,183,184
 672 340 672 340 664 338 c 1,185,-1
 664 338 l 1,186,187
 671 334 671 334 678 328 c 0,188,189
 691.066666667 314.933333333 691.066666667 314.933333333 691.066666667 298.382222222 c 0,190,191
 691.066666667 277.071794872 691.066666667 277.071794872 678 263 c 0,192,193
 672 257 672 257 664 254 c 1,194,-1
 664 254 l 1,195,196
 671 250 671 250 678 244 c 0,197,198
 691.066666667 230.933333333 691.066666667 230.933333333 691.066666667 214.382222222 c 0,199,200
 691.066666667 193.066666667 691.066666667 193.066666667 678 180 c 0,201,202
 664 166 664 166 645 166 c 1,203,-1
 645 166 l 1,151,152
46 416 m 1,204,205
 28 416 28 416 14 430 c 256,206,207
 0 444 0 444 0 462 c 0,208,209
 0 481 0 481 14 495 c 256,210,211
 28 508 28 508 46 508 c 256,212,213
 65 508 65 508 78 495 c 0,214,215
 92 481 92 481 92 462 c 128,-1,216
 92 443 92 443 78 430 c 0,217,218
 64 416 64 416 46 416 c 1,219,-1
 46 416 l 1,204,205
166 333 m 1,220,221
 164.8 332.933333333 164.8 332.933333333 163.617777778 332.933333333 c 0,222,223
 147.066666667 332.933333333 147.066666667 332.933333333 134 346 c 0,224,225
 120 360 120 360 120 379 c 256,226,227
 120 398 120 398 134 411 c 0,228,229
 140 417 140 417 146 421 c 1,230,-1
 146 421 l 1,231,232
 140 424 140 424 134 430 c 0,233,234
 120 444 120 444 120 462 c 0,235,236
 120 481 120 481 134 495 c 0,237,238
 148 508 148 508 166 508 c 0,239,240
 185 508 185 508 198 495 c 128,-1,241
 211.066666667 481.933333333 211.066666667 481.933333333 211.066666667 464.511111111 c 0,242,243
 211.066666667 443.066666667 211.066666667 443.066666667 198 430 c 0,244,245
 192 424 192 424 185 421 c 1,246,-1
 185 421 l 1,247,248
 192 418 192 418 198 411 c 0,249,250
 211.066666667 397.933333333 211.066666667 397.933333333 211.066666667 381.382222222 c 0,251,252
 211.066666667 360.071794872 211.066666667 360.071794872 198 346 c 0,253,254
 184.933333333 332.933333333 184.933333333 332.933333333 168.382222222 332.933333333 c 0,255,256
 167.2 332.933333333 167.2 332.933333333 166 333 c 1,257,-1
 166 333 l 1,220,221
406 83 m 1,258,259
 388 83 388 83 374 97 c 128,-1,260
 360 111 360 111 360 129 c 256,261,262
 360 148 360 148 374 161 c 0,263,264
 380 167 380 167 386 171 c 1,265,-1
 386 171 l 1,266,267
 380 174 380 174 374 180 c 0,268,269
 360 194 360 194 360 212 c 256,270,271
 360 230 360 230 374 244 c 0,272,273
 380 250 380 250 386 254 c 1,274,-1
 386 254 l 1,275,276
 380 257 380 257 374 263 c 0,277,278
 360 278 360 278 360 296 c 0,279,280
 360 316 360 316 374 328 c 0,281,282
 380 334 380 334 386 338 c 1,283,-1
 386 338 l 1,284,285
 380 340 380 340 374 346 c 0,286,287
 360 360 360 360 360 379 c 256,288,289
 360 398 360 398 374 411 c 0,290,291
 380 417 380 417 386 421 c 1,292,-1
 386 421 l 1,293,294
 380 424 380 424 374 430 c 0,295,296
 360 444 360 444 360 462 c 0,297,298
 360 481 360 481 374 495 c 0,299,300
 388 508 388 508 406 508 c 0,301,302
 425 508 425 508 437 495 c 0,303,304
 452 481 452 481 452 462 c 128,-1,305
 452 443 452 443 437 430 c 0,306,307
 430 424 430 424 424 421 c 1,308,-1
 424 421 l 1,309,310
 431 418 431 418 437 411 c 0,311,312
 452 397 452 397 452 379 c 256,313,314
 452 360 452 360 437 346 c 0,315,316
 430 340 430 340 424 338 c 1,317,-1
 424 338 l 1,318,319
 431 334 431 334 437 328 c 0,320,321
 452 314 452 314 452 296 c 0,322,323
 452 277 452 277 437 263 c 0,324,325
 430 257 430 257 424 254 c 1,326,-1
 424 254 l 1,327,328
 431 250 431 250 437 244 c 0,329,330
 452 230 452 230 452 212 c 256,331,332
 452 193 452 193 437 180 c 0,333,334
 430 174 430 174 424 171 c 1,335,-1
 424 171 l 1,336,337
 431 168 431 168 437 161 c 0,338,339
 452 147 452 147 452 129 c 256,340,341
 452 110 452 110 437 97 c 0,342,343
 423 83 423 83 406 83 c 1,344,-1
 406 83 l 1,258,259
526 83 m 1,345,346
 508 83 508 83 494 97 c 128,-1,347
 480 111 480 111 480 129 c 256,348,349
 480 148 480 148 494 161 c 0,350,351
 500 167 500 167 506 171 c 1,352,-1
 506 171 l 1,353,354
 500 174 500 174 494 180 c 0,355,356
 480 194 480 194 480 212 c 256,357,358
 480 230 480 230 494 244 c 0,359,360
 500 250 500 250 506 254 c 1,361,-1
 506 254 l 1,362,363
 500 257 500 257 494 263 c 0,364,365
 480 278 480 278 480 296 c 0,366,367
 480 316 480 316 494 328 c 0,368,369
 500 334 500 334 506 338 c 1,370,-1
 506 338 l 1,371,372
 500 340 500 340 494 346 c 0,373,374
 480 360 480 360 480 379 c 256,375,376
 480 398 480 398 494 411 c 0,377,378
 500 417 500 417 506 421 c 1,379,-1
 506 421 l 1,380,381
 500 424 500 424 494 430 c 0,382,383
 480 444 480 444 480 462 c 0,384,385
 480 481 480 481 494 495 c 0,386,387
 508 508 508 508 526 508 c 0,388,389
 545 508 545 508 558 495 c 128,-1,390
 571.066666667 481.933333333 571.066666667 481.933333333 571.066666667 464.511111111 c 0,391,392
 571.066666667 443.066666667 571.066666667 443.066666667 558 430 c 0,393,394
 552 424 552 424 545 421 c 1,395,-1
 545 421 l 1,396,397
 552 418 552 418 558 411 c 0,398,399
 571.066666667 397.933333333 571.066666667 397.933333333 571.066666667 381.382222222 c 0,400,401
 571.066666667 360.071794872 571.066666667 360.071794872 558 346 c 0,402,403
 552 340 552 340 545 338 c 1,404,-1
 545 338 l 1,405,406
 552 334 552 334 558 328 c 0,407,408
 571.066666667 314.933333333 571.066666667 314.933333333 571.066666667 298.382222222 c 0,409,410
 571.066666667 277.071794872 571.066666667 277.071794872 558 263 c 0,411,412
 552 257 552 257 545 254 c 1,413,-1
 545 254 l 1,414,415
 552 250 552 250 558 244 c 0,416,417
 571.066666667 230.933333333 571.066666667 230.933333333 571.066666667 214.382222222 c 0,418,419
 571.066666667 193.066666667 571.066666667 193.066666667 558 180 c 0,420,421
 552 174 552 174 545 171 c 1,422,-1
 545 171 l 1,423,424
 552 168 552 168 558 161 c 0,425,426
 571.066666667 147.933333333 571.066666667 147.933333333 571.066666667 131.382222222 c 0,427,428
 571.066666667 110.066666667 571.066666667 110.066666667 558 97 c 0,429,430
 544 83 544 83 526 83 c 1,431,-1
 526 83 l 1,345,346
766 333 m 1,432,433
 764.8 332.933333333 764.8 332.933333333 763.617777778 332.933333333 c 0,434,435
 747.066666667 332.933333333 747.066666667 332.933333333 734 346 c 0,436,437
 720 360 720 360 720 379 c 256,438,439
 720 398 720 398 734 411 c 0,440,441
 740 417 740 417 746 421 c 1,442,-1
 746 421 l 1,443,444
 740 424 740 424 734 430 c 0,445,446
 720 444 720 444 720 462 c 0,447,448
 720 481 720 481 734 495 c 0,449,450
 748 508 748 508 766 508 c 0,451,452
 785 508 785 508 797 495 c 0,453,454
 812 481 812 481 812 462 c 128,-1,455
 812 443 812 443 797 430 c 0,456,457
 790 424 790 424 784 421 c 1,458,-1
 784 421 l 1,459,460
 791 418 791 418 797 411 c 0,461,462
 812 397 812 397 812 379 c 256,463,464
 812 360 812 360 797 346 c 0,465,466
 783.933333333 332.933333333 783.933333333 332.933333333 768.253333333 332.933333333 c 0,467,468
 767.133333333 332.933333333 767.133333333 332.933333333 766 333 c 1,469,-1
 766 333 l 1,432,433
886 416 m 1,470,471
 868 416 868 416 854 430 c 128,-1,472
 840 444 840 444 840 462 c 0,473,474
 840 481 840 481 854 495 c 0,475,476
 868 508 868 508 886 508 c 0,477,478
 905 508 905 508 918 495 c 128,-1,479
 931.066666667 481.933333333 931.066666667 481.933333333 931.066666667 464.511111111 c 0,480,481
 931.066666667 443.066666667 931.066666667 443.066666667 918 430 c 0,482,483
 904 416 904 416 886 416 c 1,484,-1
 886 416 l 1,470,471
EndSplineSet
EndChar

StartChar: plus
Encoding: 43 43 11
Width: 1200
VWidth: 750
Flags: W
LayerCount: 2
Fore
SplineSet
46 250 m 1,0,1
 28 250 28 250 14 263 c 256,2,3
 0 278 0 278 0 296 c 0,4,5
 0 316 0 316 14 328 c 0,6,7
 27.0666666667 341.066666667 27.0666666667 341.066666667 43.6177777778 341.066666667 c 0,8,9
 44.8 341.066666667 44.8 341.066666667 46 341 c 256,10,11
 47.2666666667 341.066666667 47.2666666667 341.066666667 48.5066666667 341.066666667 c 0,12,13
 65.8666666667 341.066666667 65.8666666667 341.066666667 78 328 c 0,14,15
 92 314 92 314 92 296 c 0,16,17
 92 277 92 277 78 263 c 0,18,19
 64.9333333333 249.933333333 64.9333333333 249.933333333 48.3822222222 249.933333333 c 0,20,21
 47.2 249.933333333 47.2 249.933333333 46 250 c 1,22,-1
 46 250 l 1,0,1
166 250 m 1,23,24
 148 250 148 250 134 263 c 0,25,26
 120 278 120 278 120 296 c 0,27,28
 120 316 120 316 134 328 c 0,29,30
 147.066666667 341.066666667 147.066666667 341.066666667 163.617777778 341.066666667 c 0,31,32
 164.8 341.066666667 164.8 341.066666667 166 341 c 128,-1,33
 167.266666667 341.066666667 167.266666667 341.066666667 168.506666667 341.066666667 c 0,34,35
 185.866666667 341.066666667 185.866666667 341.066666667 198 328 c 0,36,37
 211.066666667 314.933333333 211.066666667 314.933333333 211.066666667 298.382222222 c 0,38,39
 211.066666667 277.071794872 211.066666667 277.071794872 198 263 c 0,40,41
 184.933333333 249.933333333 184.933333333 249.933333333 168.382222222 249.933333333 c 0,42,43
 167.2 249.933333333 167.2 249.933333333 166 250 c 1,44,-1
 166 250 l 1,23,24
285 250 m 1,45,46
 266 250 266 250 253 263 c 0,47,48
 239.933333333 277 239.933333333 277 239.933333333 293.613333333 c 0,49,50
 239.933333333 315.938461538 239.933333333 315.938461538 253 328 c 0,51,52
 266.066666667 341.066666667 266.066666667 341.066666667 282.617777778 341.066666667 c 0,53,54
 283.8 341.066666667 283.8 341.066666667 285 341 c 128,-1,55
 286.266666667 341.066666667 286.266666667 341.066666667 287.511111111 341.066666667 c 0,56,57
 304.933333333 341.066666667 304.933333333 341.066666667 318 328 c 128,-1,58
 331.066666667 314.933333333 331.066666667 314.933333333 331.066666667 298.382222222 c 0,59,60
 331.066666667 277.071794872 331.066666667 277.071794872 318 263 c 0,61,62
 304.933333333 249.933333333 304.933333333 249.933333333 287.511111111 249.933333333 c 0,63,64
 286.266666667 249.933333333 286.266666667 249.933333333 285 250 c 1,65,-1
 285 250 l 1,45,46
645 250 m 1,66,67
 626 250 626 250 613 263 c 0,68,69
 599.933333333 277 599.933333333 277 599.933333333 293.613333333 c 0,70,71
 599.933333333 315.938461538 599.933333333 315.938461538 613 328 c 0,72,73
 626.066666667 341.066666667 626.066666667 341.066666667 642.617777778 341.066666667 c 0,74,75
 643.8 341.066666667 643.8 341.066666667 645 341 c 128,-1,76
 646.266666667 341.066666667 646.266666667 341.066666667 647.511111111 341.066666667 c 0,77,78
 664.933333333 341.066666667 664.933333333 341.066666667 678 328 c 128,-1,79
 691.066666667 314.933333333 691.066666667 314.933333333 691.066666667 298.382222222 c 0,80,81
 691.066666667 277.071794872 691.066666667 277.071794872 678 263 c 0,82,83
 664.933333333 249.933333333 664.933333333 249.933333333 647.511111111 249.933333333 c 0,84,85
 646.266666667 249.933333333 646.266666667 249.933333333 645 250 c 1,86,-1
 645 250 l 1,66,67
766 250 m 1,87,88
 748 250 748 250 734 263 c 0,89,90
 720 278 720 278 720 296 c 0,91,92
 720 316 720 316 734 328 c 0,93,94
 747.066666667 341.066666667 747.066666667 341.066666667 763.617777778 341.066666667 c 0,95,96
 764.8 341.066666667 764.8 341.066666667 766 341 c 128,-1,97
 767.266666667 341.066666667 767.266666667 341.066666667 768.502222222 341.066666667 c 0,98,99
 785.8 341.066666667 785.8 341.066666667 797 328 c 0,100,101
 812 314 812 314 812 296 c 0,102,103
 812 277 812 277 797 263 c 0,104,105
 783.933333333 249.933333333 783.933333333 249.933333333 768.253333333 249.933333333 c 0,106,107
 767.133333333 249.933333333 767.133333333 249.933333333 766 250 c 1,108,-1
 766 250 l 1,87,88
886 250 m 1,109,110
 868 250 868 250 854 263 c 0,111,112
 840 278 840 278 840 296 c 0,113,114
 840 316 840 316 854 328 c 0,115,116
 867.066666667 341.066666667 867.066666667 341.066666667 883.617777778 341.066666667 c 0,117,118
 884.8 341.066666667 884.8 341.066666667 886 341 c 128,-1,119
 887.266666667 341.066666667 887.266666667 341.066666667 888.506666667 341.066666667 c 0,120,121
 905.866666667 341.066666667 905.866666667 341.066666667 918 328 c 0,122,123
 931.066666667 314.933333333 931.066666667 314.933333333 931.066666667 298.382222222 c 0,124,125
 931.066666667 277.071794872 931.066666667 277.071794872 918 263 c 0,126,127
 904.933333333 249.933333333 904.933333333 249.933333333 888.382222222 249.933333333 c 0,128,129
 887.2 249.933333333 887.2 249.933333333 886 250 c 1,130,-1
 886 250 l 1,109,110
406 83 m 1,131,132
 388 83 388 83 374 97 c 128,-1,133
 360 111 360 111 360 129 c 256,134,135
 360 148 360 148 374 161 c 0,136,137
 380 167 380 167 386 171 c 1,138,-1
 386 171 l 1,139,140
 380 174 380 174 374 180 c 0,141,142
 360 194 360 194 360 212 c 256,143,144
 360 230 360 230 374 244 c 0,145,146
 380 250 380 250 386 254 c 1,147,-1
 386 254 l 1,148,149
 380 257 380 257 374 263 c 0,150,151
 360 278 360 278 360 296 c 0,152,153
 360 316 360 316 374 328 c 0,154,155
 380 334 380 334 386 338 c 1,156,-1
 386 338 l 1,157,158
 380 340 380 340 374 346 c 0,159,160
 360 360 360 360 360 379 c 256,161,162
 360 398 360 398 374 411 c 0,163,164
 380 417 380 417 386 421 c 1,165,-1
 386 421 l 1,166,167
 380 424 380 424 374 430 c 0,168,169
 360 444 360 444 360 462 c 0,170,171
 360 481 360 481 374 495 c 0,172,173
 388 508 388 508 406 508 c 0,174,175
 425 508 425 508 437 495 c 0,176,177
 452 481 452 481 452 462 c 128,-1,178
 452 443 452 443 437 430 c 0,179,180
 430 424 430 424 424 421 c 1,181,-1
 424 421 l 1,182,183
 431 418 431 418 437 411 c 0,184,185
 452 397 452 397 452 379 c 256,186,187
 452 360 452 360 437 346 c 0,188,189
 430 340 430 340 424 338 c 1,190,-1
 424 338 l 1,191,192
 431 334 431 334 437 328 c 0,193,194
 452 314 452 314 452 296 c 0,195,196
 452 277 452 277 437 263 c 0,197,198
 430 257 430 257 424 254 c 1,199,-1
 424 254 l 1,200,201
 431 250 431 250 437 244 c 0,202,203
 452 230 452 230 452 212 c 256,204,205
 452 193 452 193 437 180 c 0,206,207
 430 174 430 174 424 171 c 1,208,-1
 424 171 l 1,209,210
 431 168 431 168 437 161 c 0,211,212
 452 147 452 147 452 129 c 256,213,214
 452 110 452 110 437 97 c 0,215,216
 423 83 423 83 406 83 c 1,217,-1
 406 83 l 1,131,132
526 83 m 1,218,219
 508 83 508 83 494 97 c 128,-1,220
 480 111 480 111 480 129 c 256,221,222
 480 148 480 148 494 161 c 0,223,224
 500 167 500 167 506 171 c 1,225,-1
 506 171 l 1,226,227
 500 174 500 174 494 180 c 0,228,229
 480 194 480 194 480 212 c 256,230,231
 480 230 480 230 494 244 c 0,232,233
 500 250 500 250 506 254 c 1,234,-1
 506 254 l 1,235,236
 500 257 500 257 494 263 c 0,237,238
 480 278 480 278 480 296 c 0,239,240
 480 316 480 316 494 328 c 0,241,242
 500 334 500 334 506 338 c 1,243,-1
 506 338 l 1,244,245
 500 340 500 340 494 346 c 0,246,247
 480 360 480 360 480 379 c 256,248,249
 480 398 480 398 494 411 c 0,250,251
 500 417 500 417 506 421 c 1,252,-1
 506 421 l 1,253,254
 500 424 500 424 494 430 c 0,255,256
 480 444 480 444 480 462 c 0,257,258
 480 481 480 481 494 495 c 0,259,260
 508 508 508 508 526 508 c 0,261,262
 545 508 545 508 558 495 c 128,-1,263
 571.066666667 481.933333333 571.066666667 481.933333333 571.066666667 464.511111111 c 0,264,265
 571.066666667 443.066666667 571.066666667 443.066666667 558 430 c 0,266,267
 552 424 552 424 545 421 c 1,268,-1
 545 421 l 1,269,270
 552 418 552 418 558 411 c 0,271,272
 571.066666667 397.933333333 571.066666667 397.933333333 571.066666667 381.382222222 c 0,273,274
 571.066666667 360.071794872 571.066666667 360.071794872 558 346 c 0,275,276
 552 340 552 340 545 338 c 1,277,-1
 545 338 l 1,278,279
 552 334 552 334 558 328 c 0,280,281
 571.066666667 314.933333333 571.066666667 314.933333333 571.066666667 298.382222222 c 0,282,283
 571.066666667 277.071794872 571.066666667 277.071794872 558 263 c 0,284,285
 552 257 552 257 545 254 c 1,286,-1
 545 254 l 1,287,288
 552 250 552 250 558 244 c 0,289,290
 571.066666667 230.933333333 571.066666667 230.933333333 571.066666667 214.382222222 c 0,291,292
 571.066666667 193.066666667 571.066666667 193.066666667 558 180 c 0,293,294
 552 174 552 174 545 171 c 1,295,-1
 545 171 l 1,296,297
 552 168 552 168 558 161 c 0,298,299
 571.066666667 147.933333333 571.066666667 147.933333333 571.066666667 131.382222222 c 0,300,301
 571.066666667 110.066666667 571.066666667 110.066666667 558 97 c 0,302,303
 544 83 544 83 526 83 c 1,304,-1
 526 83 l 1,218,219
EndSplineSet
EndChar

StartChar: comma
Encoding: 44 44 12
Width: 1200
VWidth: 750
Flags: W
LayerCount: 2
Fore
SplineSet
285 -83 m 1,0,1
 266 -83 266 -83 253 -70 c 128,-1,2
 239.933333333 -56.9333333333 239.933333333 -56.9333333333 239.933333333 -40.3822222222 c 0,3,4
 239.933333333 -18.0717948718 239.933333333 -18.0717948718 253 -4 c 0,5,6
 266 8.07142857143 266 8.07142857143 282.448979592 8.07142857143 c 0,7,8
 283.714285714 8.07142857143 283.714285714 8.07142857143 285 8 c 0,9,10
 304 8 304 8 318 -4 c 0,11,12
 331.066666667 -17.0666666667 331.066666667 -17.0666666667 331.066666667 -35.36 c 0,13,14
 331.066666667 -56.9333333333 331.066666667 -56.9333333333 318 -70 c 128,-1,15
 304.933333333 -83.0666666667 304.933333333 -83.0666666667 287.511111111 -83.0666666667 c 0,16,17
 286.266666667 -83.0666666667 286.266666667 -83.0666666667 285 -83 c 1,18,-1
 285 -83 l 1,0,1
285 83 m 1,19,20
 266 83 266 83 253 97 c 0,21,22
 239.933333333 110.066666667 239.933333333 110.066666667 239.933333333 126.617777778 c 0,23,24
 239.933333333 147.933333333 239.933333333 147.933333333 253 161 c 0,25,26
 267 175 267 175 285 175 c 0,27,28
 304 175 304 175 318 161 c 0,29,30
 331.066666667 147.933333333 331.066666667 147.933333333 331.066666667 131.382222222 c 0,31,32
 331.066666667 110.066666667 331.066666667 110.066666667 318 97 c 0,33,34
 304 83 304 83 285 83 c 1,35,-1
 285 83 l 1,19,20
645 83 m 1,36,37
 626 83 626 83 613 97 c 0,38,39
 599.933333333 110.066666667 599.933333333 110.066666667 599.933333333 126.617777778 c 0,40,41
 599.933333333 147.933333333 599.933333333 147.933333333 613 161 c 0,42,43
 627 175 627 175 645 175 c 0,44,45
 664 175 664 175 678 161 c 0,46,47
 691.066666667 147.933333333 691.066666667 147.933333333 691.066666667 131.382222222 c 0,48,49
 691.066666667 110.066666667 691.066666667 110.066666667 678 97 c 0,50,51
 664 83 664 83 645 83 c 1,52,-1
 645 83 l 1,36,37
406 -83 m 1,53,54
 388 -83 388 -83 374 -70 c 0,55,56
 360 -56 360 -56 360 -38 c 256,57,58
 360 -18 360 -18 374 -4 c 0,59,60
 380 1 380 1 386 4 c 1,61,-1
 386 4 l 1,62,63
 380 8 380 8 374 14 c 0,64,65
 360 28 360 28 360 46 c 0,66,67
 360 65 360 65 374 78 c 0,68,69
 380 84 380 84 386 87 c 1,70,-1
 386 87 l 1,71,72
 380 90 380 90 374 97 c 0,73,74
 360 111 360 111 360 129 c 256,75,76
 360 148 360 148 374 161 c 0,77,78
 380 167 380 167 386 171 c 1,79,-1
 386 171 l 1,80,81
 380 174 380 174 374 180 c 0,82,83
 360 194 360 194 360 212 c 256,84,85
 360 230 360 230 374 244 c 128,-1,86
 388 258 388 258 406 258 c 0,87,88
 425 258 425 258 437 244 c 0,89,90
 452 230 452 230 452 212 c 256,91,92
 452 193 452 193 437 180 c 0,93,94
 430 174 430 174 424 171 c 1,95,-1
 424 171 l 1,96,97
 431 168 431 168 437 161 c 0,98,99
 452 147 452 147 452 129 c 256,100,101
 452 110 452 110 437 97 c 0,102,103
 430 91 430 91 424 87 c 1,104,-1
 424 87 l 1,105,106
 431 84 431 84 437 78 c 0,107,108
 452 64 452 64 452 46 c 128,-1,109
 452 28 452 28 437 14 c 0,110,111
 430 8 430 8 424 4 c 1,112,-1
 424 4 l 1,113,114
 431 2 431 2 437 -4 c 0,115,116
 452 -18 452 -18 452 -38 c 256,117,118
 452 -57 452 -57 437 -70 c 0,119,120
 423.933333333 -83.0666666667 423.933333333 -83.0666666667 408.253333333 -83.0666666667 c 0,121,122
 407.133333333 -83.0666666667 407.133333333 -83.0666666667 406 -83 c 1,123,-1
 406 -83 l 1,53,54
526 0 m 1,124,125
 508 0 508 0 494 14 c 128,-1,126
 480 28 480 28 480 46 c 0,127,128
 480 65 480 65 494 78 c 0,129,130
 500 84 500 84 506 87 c 1,131,-1
 506 87 l 1,132,133
 500 90 500 90 494 97 c 0,134,135
 480 111 480 111 480 129 c 256,136,137
 480 148 480 148 494 161 c 0,138,139
 500 167 500 167 506 171 c 1,140,-1
 506 171 l 1,141,142
 500 174 500 174 494 180 c 0,143,144
 480 194 480 194 480 212 c 256,145,146
 480 230 480 230 494 244 c 128,-1,147
 508 258 508 258 526 258 c 0,148,149
 545 258 545 258 558 244 c 0,150,151
 571.066666667 230.933333333 571.066666667 230.933333333 571.066666667 214.382222222 c 0,152,153
 571.066666667 193.066666667 571.066666667 193.066666667 558 180 c 0,154,155
 552 174 552 174 545 171 c 1,156,-1
 545 171 l 1,157,158
 552 168 552 168 558 161 c 0,159,160
 571.066666667 147.933333333 571.066666667 147.933333333 571.066666667 131.382222222 c 0,161,162
 571.066666667 110.066666667 571.066666667 110.066666667 558 97 c 0,163,164
 552 91 552 91 545 87 c 1,165,-1
 545 87 l 1,166,167
 552 84 552 84 558 78 c 0,168,169
 571.066666667 64.9333333333 571.066666667 64.9333333333 571.066666667 48.3822222222 c 0,170,171
 571.066666667 28.0717948718 571.066666667 28.0717948718 558 14 c 0,172,173
 544 0 544 0 526 0 c 1,174,-1
 526 0 l 1,124,125
EndSplineSet
EndChar

StartChar: hyphen
Encoding: 45 45 13
Width: 1200
VWidth: 750
Flags: W
LayerCount: 2
Fore
SplineSet
46 250 m 1,0,1
 28 250 28 250 14 263 c 256,2,3
 0 278 0 278 0 296 c 0,4,5
 0 316 0 316 14 328 c 0,6,7
 27.0666666667 341.066666667 27.0666666667 341.066666667 43.6177777778 341.066666667 c 0,8,9
 44.8 341.066666667 44.8 341.066666667 46 341 c 256,10,11
 47.2666666667 341.066666667 47.2666666667 341.066666667 48.5066666667 341.066666667 c 0,12,13
 65.8666666667 341.066666667 65.8666666667 341.066666667 78 328 c 0,14,15
 92 314 92 314 92 296 c 0,16,17
 92 277 92 277 78 263 c 0,18,19
 64.9333333333 249.933333333 64.9333333333 249.933333333 48.3822222222 249.933333333 c 0,20,21
 47.2 249.933333333 47.2 249.933333333 46 250 c 1,22,-1
 46 250 l 1,0,1
166 250 m 1,23,24
 148 250 148 250 134 263 c 0,25,26
 120 278 120 278 120 296 c 0,27,28
 120 316 120 316 134 328 c 0,29,30
 147.066666667 341.066666667 147.066666667 341.066666667 163.617777778 341.066666667 c 0,31,32
 164.8 341.066666667 164.8 341.066666667 166 341 c 128,-1,33
 167.266666667 341.066666667 167.266666667 341.066666667 168.506666667 341.066666667 c 0,34,35
 185.866666667 341.066666667 185.866666667 341.066666667 198 328 c 0,36,37
 211.066666667 314.933333333 211.066666667 314.933333333 211.066666667 298.382222222 c 0,38,39
 211.066666667 277.071794872 211.066666667 277.071794872 198 263 c 0,40,41
 184.933333333 249.933333333 184.933333333 249.933333333 168.382222222 249.933333333 c 0,42,43
 167.2 249.933333333 167.2 249.933333333 166 250 c 1,44,-1
 166 250 l 1,23,24
285 250 m 1,45,46
 266 250 266 250 253 263 c 0,47,48
 239.933333333 277 239.933333333 277 239.933333333 293.613333333 c 0,49,50
 239.933333333 315.938461538 239.933333333 315.938461538 253 328 c 0,51,52
 266.066666667 341.066666667 266.066666667 341.066666667 282.617777778 341.066666667 c 0,53,54
 283.8 341.066666667 283.8 341.066666667 285 341 c 128,-1,55
 286.266666667 341.066666667 286.266666667 341.066666667 287.511111111 341.066666667 c 0,56,57
 304.933333333 341.066666667 304.933333333 341.066666667 318 328 c 128,-1,58
 331.066666667 314.933333333 331.066666667 314.933333333 331.066666667 298.382222222 c 0,59,60
 331.066666667 277.071794872 331.066666667 277.071794872 318 263 c 0,61,62
 304.933333333 249.933333333 304.933333333 249.933333333 287.511111111 249.933333333 c 0,63,64
 286.266666667 249.933333333 286.266666667 249.933333333 285 250 c 1,65,-1
 285 250 l 1,45,46
406 250 m 1,66,67
 388 250 388 250 374 263 c 0,68,69
 360 278 360 278 360 296 c 0,70,71
 360 316 360 316 374 328 c 0,72,73
 387.066666667 341.066666667 387.066666667 341.066666667 403.617777778 341.066666667 c 0,74,75
 404.8 341.066666667 404.8 341.066666667 406 341 c 128,-1,76
 407.266666667 341.066666667 407.266666667 341.066666667 408.502222222 341.066666667 c 0,77,78
 425.8 341.066666667 425.8 341.066666667 437 328 c 0,79,80
 452 314 452 314 452 296 c 0,81,82
 452 277 452 277 437 263 c 0,83,84
 423.933333333 249.933333333 423.933333333 249.933333333 408.253333333 249.933333333 c 0,85,86
 407.133333333 249.933333333 407.133333333 249.933333333 406 250 c 1,87,-1
 406 250 l 1,66,67
526 250 m 1,88,89
 508 250 508 250 494 263 c 0,90,91
 480 278 480 278 480 296 c 0,92,93
 480 316 480 316 494 328 c 0,94,95
 507.066666667 341.066666667 507.066666667 341.066666667 523.617777778 341.066666667 c 0,96,97
 524.8 341.066666667 524.8 341.066666667 526 341 c 128,-1,98
 527.266666667 341.066666667 527.266666667 341.066666667 528.506666667 341.066666667 c 0,99,100
 545.866666667 341.066666667 545.866666667 341.066666667 558 328 c 0,101,102
 571.066666667 314.933333333 571.066666667 314.933333333 571.066666667 298.382222222 c 0,103,104
 571.066666667 277.071794872 571.066666667 277.071794872 558 263 c 0,105,106
 544.933333333 249.933333333 544.933333333 249.933333333 528.382222222 249.933333333 c 0,107,108
 527.2 249.933333333 527.2 249.933333333 526 250 c 1,109,-1
 526 250 l 1,88,89
645 250 m 1,110,111
 626 250 626 250 613 263 c 0,112,113
 599.933333333 277 599.933333333 277 599.933333333 293.613333333 c 0,114,115
 599.933333333 315.938461538 599.933333333 315.938461538 613 328 c 0,116,117
 626.066666667 341.066666667 626.066666667 341.066666667 642.617777778 341.066666667 c 0,118,119
 643.8 341.066666667 643.8 341.066666667 645 341 c 128,-1,120
 646.266666667 341.066666667 646.266666667 341.066666667 647.511111111 341.066666667 c 0,121,122
 664.933333333 341.066666667 664.933333333 341.066666667 678 328 c 128,-1,123
 691.066666667 314.933333333 691.066666667 314.933333333 691.066666667 298.382222222 c 0,124,125
 691.066666667 277.071794872 691.066666667 277.071794872 678 263 c 0,126,127
 664.933333333 249.933333333 664.933333333 249.933333333 647.511111111 249.933333333 c 0,128,129
 646.266666667 249.933333333 646.266666667 249.933333333 645 250 c 1,130,-1
 645 250 l 1,110,111
766 250 m 1,131,132
 748 250 748 250 734 263 c 0,133,134
 720 278 720 278 720 296 c 0,135,136
 720 316 720 316 734 328 c 0,137,138
 747.066666667 341.066666667 747.066666667 341.066666667 763.617777778 341.066666667 c 0,139,140
 764.8 341.066666667 764.8 341.066666667 766 341 c 128,-1,141
 767.266666667 341.066666667 767.266666667 341.066666667 768.502222222 341.066666667 c 0,142,143
 785.8 341.066666667 785.8 341.066666667 797 328 c 0,144,145
 812 314 812 314 812 296 c 0,146,147
 812 277 812 277 797 263 c 0,148,149
 783.933333333 249.933333333 783.933333333 249.933333333 768.253333333 249.933333333 c 0,150,151
 767.133333333 249.933333333 767.133333333 249.933333333 766 250 c 1,152,-1
 766 250 l 1,131,132
886 250 m 1,153,154
 868 250 868 250 854 263 c 0,155,156
 840 278 840 278 840 296 c 0,157,158
 840 316 840 316 854 328 c 0,159,160
 867.066666667 341.066666667 867.066666667 341.066666667 883.617777778 341.066666667 c 0,161,162
 884.8 341.066666667 884.8 341.066666667 886 341 c 128,-1,163
 887.266666667 341.066666667 887.266666667 341.066666667 888.506666667 341.066666667 c 0,164,165
 905.866666667 341.066666667 905.866666667 341.066666667 918 328 c 0,166,167
 931.066666667 314.933333333 931.066666667 314.933333333 931.066666667 298.382222222 c 0,168,169
 931.066666667 277.071794872 931.066666667 277.071794872 918 263 c 0,170,171
 904.933333333 249.933333333 904.933333333 249.933333333 888.382222222 249.933333333 c 0,172,173
 887.2 249.933333333 887.2 249.933333333 886 250 c 1,174,-1
 886 250 l 1,153,154
EndSplineSet
EndChar

StartChar: period
Encoding: 46 46 14
Width: 1200
VWidth: 750
Flags: W
LayerCount: 2
Fore
SplineSet
285 83 m 1,0,1
 266 83 266 83 253 97 c 0,2,3
 239.933333333 110.066666667 239.933333333 110.066666667 239.933333333 126.617777778 c 0,4,5
 239.933333333 147.933333333 239.933333333 147.933333333 253 161 c 0,6,7
 267 175 267 175 285 175 c 0,8,9
 304 175 304 175 318 161 c 0,10,11
 331.066666667 147.933333333 331.066666667 147.933333333 331.066666667 131.382222222 c 0,12,13
 331.066666667 110.066666667 331.066666667 110.066666667 318 97 c 0,14,15
 304 83 304 83 285 83 c 1,16,-1
 285 83 l 1,0,1
645 83 m 1,17,18
 626 83 626 83 613 97 c 0,19,20
 599.933333333 110.066666667 599.933333333 110.066666667 599.933333333 126.617777778 c 0,21,22
 599.933333333 147.933333333 599.933333333 147.933333333 613 161 c 0,23,24
 627 175 627 175 645 175 c 0,25,26
 664 175 664 175 678 161 c 0,27,28
 691.066666667 147.933333333 691.066666667 147.933333333 691.066666667 131.382222222 c 0,29,30
 691.066666667 110.066666667 691.066666667 110.066666667 678 97 c 0,31,32
 664 83 664 83 645 83 c 1,33,-1
 645 83 l 1,17,18
406 0 m 1,34,35
 388 0 388 0 374 14 c 128,-1,36
 360 28 360 28 360 46 c 0,37,38
 360 65 360 65 374 78 c 0,39,40
 380 84 380 84 386 87 c 1,41,-1
 386 87 l 1,42,43
 380 90 380 90 374 97 c 0,44,45
 360 111 360 111 360 129 c 256,46,47
 360 148 360 148 374 161 c 0,48,49
 380 167 380 167 386 171 c 1,50,-1
 386 171 l 1,51,52
 380 174 380 174 374 180 c 0,53,54
 360 194 360 194 360 212 c 256,55,56
 360 230 360 230 374 244 c 128,-1,57
 388 258 388 258 406 258 c 0,58,59
 425 258 425 258 437 244 c 0,60,61
 452 230 452 230 452 212 c 256,62,63
 452 193 452 193 437 180 c 0,64,65
 430 174 430 174 424 171 c 1,66,-1
 424 171 l 1,67,68
 431 168 431 168 437 161 c 0,69,70
 452 147 452 147 452 129 c 256,71,72
 452 110 452 110 437 97 c 0,73,74
 430 91 430 91 424 87 c 1,75,-1
 424 87 l 1,76,77
 431 84 431 84 437 78 c 0,78,79
 452 64 452 64 452 46 c 128,-1,80
 452 28 452 28 437 14 c 0,81,82
 423 0 423 0 406 0 c 1,83,-1
 406 0 l 1,34,35
526 0 m 1,84,85
 508 0 508 0 494 14 c 128,-1,86
 480 28 480 28 480 46 c 0,87,88
 480 65 480 65 494 78 c 0,89,90
 500 84 500 84 506 87 c 1,91,-1
 506 87 l 1,92,93
 500 90 500 90 494 97 c 0,94,95
 480 111 480 111 480 129 c 256,96,97
 480 148 480 148 494 161 c 0,98,99
 500 167 500 167 506 171 c 1,100,-1
 506 171 l 1,101,102
 500 174 500 174 494 180 c 0,103,104
 480 194 480 194 480 212 c 256,105,106
 480 230 480 230 494 244 c 128,-1,107
 508 258 508 258 526 258 c 0,108,109
 545 258 545 258 558 244 c 0,110,111
 571.066666667 230.933333333 571.066666667 230.933333333 571.066666667 214.382222222 c 0,112,113
 571.066666667 193.066666667 571.066666667 193.066666667 558 180 c 0,114,115
 552 174 552 174 545 171 c 1,116,-1
 545 171 l 1,117,118
 552 168 552 168 558 161 c 0,119,120
 571.066666667 147.933333333 571.066666667 147.933333333 571.066666667 131.382222222 c 0,121,122
 571.066666667 110.066666667 571.066666667 110.066666667 558 97 c 0,123,124
 552 91 552 91 545 87 c 1,125,-1
 545 87 l 1,126,127
 552 84 552 84 558 78 c 0,128,129
 571.066666667 64.9333333333 571.066666667 64.9333333333 571.066666667 48.3822222222 c 0,130,131
 571.066666667 28.0717948718 571.066666667 28.0717948718 558 14 c 0,132,133
 544 0 544 0 526 0 c 1,134,-1
 526 0 l 1,84,85
EndSplineSet
EndChar

StartChar: slash
Encoding: 47 47 15
Width: 1200
VWidth: 750
Flags: W
LayerCount: 2
Fore
SplineSet
46 0 m 1,0,1
 28 0 28 0 14 14 c 128,-1,2
 0 28 0 28 0 46 c 0,3,4
 0 65 0 65 14 78 c 256,5,6
 28 92 28 92 46 92 c 256,7,8
 65 92 65 92 78 78 c 0,9,10
 92 64 92 64 92 46 c 128,-1,11
 92 28 92 28 78 14 c 128,-1,12
 64 0 64 0 46 0 c 1,13,-1
 46 0 l 1,0,1
166 0 m 1,14,15
 148 0 148 0 134 14 c 128,-1,16
 120 28 120 28 120 46 c 0,17,18
 120 65 120 65 134 78 c 0,19,20
 140 84 140 84 146 87 c 1,21,-1
 146 87 l 1,22,23
 140 90 140 90 134 97 c 0,24,25
 120 111 120 111 120 129 c 256,26,27
 120 148 120 148 134 161 c 0,28,29
 148 175 148 175 166 175 c 0,30,31
 185 175 185 175 198 161 c 0,32,33
 211.066666667 147.933333333 211.066666667 147.933333333 211.066666667 131.382222222 c 0,34,35
 211.066666667 110.066666667 211.066666667 110.066666667 198 97 c 0,36,37
 192 91 192 91 185 87 c 1,38,-1
 185 87 l 1,39,40
 192 84 192 84 198 78 c 0,41,42
 211.066666667 64.9333333333 211.066666667 64.9333333333 211.066666667 48.3822222222 c 0,43,44
 211.066666667 28.0717948718 211.066666667 28.0717948718 198 14 c 0,45,46
 184 0 184 0 166 0 c 1,47,-1
 166 0 l 1,14,15
285 83 m 1,48,49
 266 83 266 83 253 97 c 0,50,51
 239.933333333 110.066666667 239.933333333 110.066666667 239.933333333 126.617777778 c 0,52,53
 239.933333333 147.933333333 239.933333333 147.933333333 253 161 c 0,54,55
 259 167 259 167 266 171 c 1,56,-1
 266 171 l 1,57,58
 258 174 258 174 253 180 c 0,59,60
 239.933333333 193.066666667 239.933333333 193.066666667 239.933333333 209.617777778 c 0,61,62
 239.933333333 229.928205128 239.933333333 229.928205128 253 244 c 0,63,64
 267 258 267 258 285 258 c 0,65,66
 304 258 304 258 318 244 c 0,67,68
 331.066666667 230.933333333 331.066666667 230.933333333 331.066666667 214.382222222 c 0,69,70
 331.066666667 193.066666667 331.066666667 193.066666667 318 180 c 0,71,72
 312 174 312 174 304 171 c 1,73,-1
 304 171 l 1,74,75
 311 168 311 168 318 161 c 0,76,77
 331.066666667 147.933333333 331.066666667 147.933333333 331.066666667 131.382222222 c 0,78,79
 331.066666667 110.066666667 331.066666667 110.066666667 318 97 c 0,80,81
 304 83 304 83 285 83 c 1,82,-1
 285 83 l 1,48,49
406 166 m 1,83,84
 388 166 388 166 374 180 c 128,-1,85
 360 194 360 194 360 212 c 256,86,87
 360 230 360 230 374 244 c 0,88,89
 380 250 380 250 386 254 c 1,90,-1
 386 254 l 1,91,92
 380 257 380 257 374 263 c 0,93,94
 360 278 360 278 360 296 c 0,95,96
 360 316 360 316 374 328 c 0,97,98
 387.066666667 341.066666667 387.066666667 341.066666667 403.617777778 341.066666667 c 0,99,100
 404.8 341.066666667 404.8 341.066666667 406 341 c 128,-1,101
 407.266666667 341.066666667 407.266666667 341.066666667 408.502222222 341.066666667 c 0,102,103
 425.8 341.066666667 425.8 341.066666667 437 328 c 0,104,105
 452 314 452 314 452 296 c 0,106,107
 452 277 452 277 437 263 c 0,108,109
 430 257 430 257 424 254 c 1,110,-1
 424 254 l 1,111,112
 431 250 431 250 437 244 c 0,113,114
 452 230 452 230 452 212 c 256,115,116
 452 193 452 193 437 180 c 0,117,118
 423 166 423 166 406 166 c 1,119,-1
 406 166 l 1,83,84
526 250 m 1,120,121
 508 250 508 250 494 263 c 0,122,123
 480 278 480 278 480 296 c 0,124,125
 480 316 480 316 494 328 c 0,126,127
 500 334 500 334 506 338 c 1,128,-1
 506 338 l 1,129,130
 500 340 500 340 494 346 c 0,131,132
 480 360 480 360 480 379 c 256,133,134
 480 398 480 398 494 411 c 128,-1,135
 508 424 508 424 526 424 c 0,136,137
 545 424 545 424 558 411 c 128,-1,138
 571.066666667 397.933333333 571.066666667 397.933333333 571.066666667 381.382222222 c 0,139,140
 571.066666667 360.071794872 571.066666667 360.071794872 558 346 c 0,141,142
 552 340 552 340 545 338 c 1,143,-1
 545 338 l 1,144,145
 552 334 552 334 558 328 c 0,146,147
 571.066666667 314.933333333 571.066666667 314.933333333 571.066666667 298.382222222 c 0,148,149
 571.066666667 277.071794872 571.066666667 277.071794872 558 263 c 0,150,151
 544.933333333 249.933333333 544.933333333 249.933333333 528.382222222 249.933333333 c 0,152,153
 527.2 249.933333333 527.2 249.933333333 526 250 c 1,154,-1
 526 250 l 1,120,121
645 333 m 1,155,156
 643.733333333 332.933333333 643.733333333 332.933333333 642.493333333 332.933333333 c 0,157,158
 625.133333333 332.933333333 625.133333333 332.933333333 613 346 c 0,159,160
 599.933333333 359.066666667 599.933333333 359.066666667 599.933333333 376.488888889 c 0,161,162
 599.933333333 397.933333333 599.933333333 397.933333333 613 411 c 0,163,164
 619 417 619 417 626 421 c 1,165,-1
 626 421 l 1,166,167
 618 424 618 424 613 430 c 0,168,169
 599.933333333 443.066666667 599.933333333 443.066666667 599.933333333 459.617777778 c 0,170,171
 599.933333333 480.928205128 599.933333333 480.928205128 613 495 c 0,172,173
 627 508 627 508 645 508 c 0,174,175
 664 508 664 508 678 495 c 0,176,177
 691.066666667 481.933333333 691.066666667 481.933333333 691.066666667 464.511111111 c 0,178,179
 691.066666667 443.066666667 691.066666667 443.066666667 678 430 c 0,180,181
 672 424 672 424 664 421 c 1,182,-1
 664 421 l 1,183,184
 671 418 671 418 678 411 c 0,185,186
 691.066666667 397.933333333 691.066666667 397.933333333 691.066666667 381.382222222 c 0,187,188
 691.066666667 360.071794872 691.066666667 360.071794872 678 346 c 0,189,190
 664.933333333 332.933333333 664.933333333 332.933333333 647.511111111 332.933333333 c 0,191,192
 646.266666667 332.933333333 646.266666667 332.933333333 645 333 c 1,193,-1
 645 333 l 1,155,156
766 416 m 1,194,195
 748 416 748 416 734 430 c 128,-1,196
 720 444 720 444 720 462 c 0,197,198
 720 481 720 481 734 495 c 0,199,200
 740 501 740 501 746 504 c 1,201,-1
 746 504 l 1,202,203
 740 507 740 507 734 513 c 0,204,205
 720 527 720 527 720 546 c 256,206,207
 720 565 720 565 734 578 c 0,208,209
 748 592 748 592 766 592 c 0,210,211
 785 592 785 592 797 578 c 0,212,213
 812 564 812 564 812 546 c 256,214,215
 812 527 812 527 797 513 c 0,216,217
 790 507 790 507 784 504 c 1,218,-1
 784 504 l 1,219,220
 791 501 791 501 797 495 c 0,221,222
 812 481 812 481 812 462 c 128,-1,223
 812 443 812 443 797 430 c 0,224,225
 783 416 783 416 766 416 c 1,226,-1
 766 416 l 1,194,195
886 500 m 1,227,228
 868 500 868 500 854 513 c 0,229,230
 840 527 840 527 840 546 c 256,231,232
 840 565 840 565 854 578 c 0,233,234
 868 592 868 592 886 592 c 0,235,236
 905 592 905 592 918 578 c 0,237,238
 931.066666667 564.933333333 931.066666667 564.933333333 931.066666667 548.382222222 c 0,239,240
 931.066666667 527.071794872 931.066666667 527.071794872 918 513 c 0,241,242
 904.933333333 499.933333333 904.933333333 499.933333333 888.382222222 499.933333333 c 0,243,244
 887.2 499.933333333 887.2 499.933333333 886 500 c 1,245,-1
 886 500 l 1,227,228
EndSplineSet
EndChar

StartChar: zero
Encoding: 48 48 16
Width: 1200
VWidth: 750
Flags: W
LayerCount: 2
Fore
SplineSet
406 0 m 1,0,1
 388 0 388 0 374 14 c 128,-1,2
 360 28 360 28 360 46 c 0,3,4
 360 65 360 65 374 78 c 0,5,6
 388 92 388 92 406 92 c 0,7,8
 425 92 425 92 437 78 c 0,9,10
 452 64 452 64 452 46 c 128,-1,11
 452 28 452 28 437 14 c 0,12,13
 423 0 423 0 406 0 c 1,14,-1
 406 0 l 1,0,1
526 0 m 1,15,16
 508 0 508 0 494 14 c 128,-1,17
 480 28 480 28 480 46 c 0,18,19
 480 65 480 65 494 78 c 0,20,21
 508 92 508 92 526 92 c 0,22,23
 545 92 545 92 558 78 c 0,24,25
 571.066666667 64.9333333333 571.066666667 64.9333333333 571.066666667 48.3822222222 c 0,26,27
 571.066666667 28.0717948718 571.066666667 28.0717948718 558 14 c 0,28,29
 544 0 544 0 526 0 c 1,30,-1
 526 0 l 1,15,16
166 83 m 1,31,32
 148 83 148 83 134 97 c 128,-1,33
 120 111 120 111 120 129 c 256,34,35
 120 148 120 148 134 161 c 0,36,37
 140 167 140 167 146 171 c 1,38,-1
 146 171 l 1,39,40
 140 174 140 174 134 180 c 0,41,42
 120 194 120 194 120 212 c 256,43,44
 120 230 120 230 134 244 c 0,45,46
 140 250 140 250 146 254 c 1,47,-1
 146 254 l 1,48,49
 140 257 140 257 134 263 c 0,50,51
 120 278 120 278 120 296 c 0,52,53
 120 316 120 316 134 328 c 0,54,55
 140 334 140 334 146 338 c 1,56,-1
 146 338 l 1,57,58
 140 340 140 340 134 346 c 0,59,60
 120 360 120 360 120 379 c 256,61,62
 120 398 120 398 134 411 c 0,63,64
 140 417 140 417 146 421 c 1,65,-1
 146 421 l 1,66,67
 140 424 140 424 134 430 c 0,68,69
 120 444 120 444 120 462 c 0,70,71
 120 481 120 481 134 495 c 0,72,73
 148 508 148 508 166 508 c 0,74,75
 185 508 185 508 198 495 c 128,-1,76
 211.066666667 481.933333333 211.066666667 481.933333333 211.066666667 464.511111111 c 0,77,78
 211.066666667 443.066666667 211.066666667 443.066666667 198 430 c 0,79,80
 192 424 192 424 185 421 c 1,81,-1
 185 421 l 1,82,83
 192 418 192 418 198 411 c 0,84,85
 211.066666667 397.933333333 211.066666667 397.933333333 211.066666667 381.382222222 c 0,86,87
 211.066666667 360.071794872 211.066666667 360.071794872 198 346 c 0,88,89
 192 340 192 340 185 338 c 1,90,-1
 185 338 l 1,91,92
 192 334 192 334 198 328 c 0,93,94
 211.066666667 314.933333333 211.066666667 314.933333333 211.066666667 298.382222222 c 0,95,96
 211.066666667 277.071794872 211.066666667 277.071794872 198 263 c 0,97,98
 192 257 192 257 185 254 c 1,99,-1
 185 254 l 1,100,101
 192 250 192 250 198 244 c 0,102,103
 211.066666667 230.933333333 211.066666667 230.933333333 211.066666667 214.382222222 c 0,104,105
 211.066666667 193.066666667 211.066666667 193.066666667 198 180 c 0,106,107
 192 174 192 174 185 171 c 1,108,-1
 185 171 l 1,109,110
 192 168 192 168 198 161 c 0,111,112
 211.066666667 147.933333333 211.066666667 147.933333333 211.066666667 131.382222222 c 0,113,114
 211.066666667 110.066666667 211.066666667 110.066666667 198 97 c 0,115,116
 184 83 184 83 166 83 c 1,117,-1
 166 83 l 1,31,32
766 83 m 1,118,119
 748 83 748 83 734 97 c 128,-1,120
 720 111 720 111 720 129 c 256,121,122
 720 148 720 148 734 161 c 0,123,124
 740 167 740 167 746 171 c 1,125,-1
 746 171 l 1,126,127
 740 174 740 174 734 180 c 0,128,129
 720 194 720 194 720 212 c 256,130,131
 720 230 720 230 734 244 c 0,132,133
 740 250 740 250 746 254 c 1,134,-1
 746 254 l 1,135,136
 740 257 740 257 734 263 c 0,137,138
 720 278 720 278 720 296 c 0,139,140
 720 316 720 316 734 328 c 0,141,142
 740 334 740 334 746 338 c 1,143,-1
 746 338 l 1,144,145
 740 340 740 340 734 346 c 0,146,147
 720 360 720 360 720 379 c 256,148,149
 720 398 720 398 734 411 c 0,150,151
 740 417 740 417 746 421 c 1,152,-1
 746 421 l 1,153,154
 740 424 740 424 734 430 c 0,155,156
 720 444 720 444 720 462 c 0,157,158
 720 481 720 481 734 495 c 0,159,160
 748 508 748 508 766 508 c 0,161,162
 785 508 785 508 797 495 c 0,163,164
 812 481 812 481 812 462 c 128,-1,165
 812 443 812 443 797 430 c 0,166,167
 790 424 790 424 784 421 c 1,168,-1
 784 421 l 1,169,170
 791 418 791 418 797 411 c 0,171,172
 812 397 812 397 812 379 c 256,173,174
 812 360 812 360 797 346 c 0,175,176
 790 340 790 340 784 338 c 1,177,-1
 784 338 l 1,178,179
 791 334 791 334 797 328 c 0,180,181
 812 314 812 314 812 296 c 0,182,183
 812 277 812 277 797 263 c 0,184,185
 790 257 790 257 784 254 c 1,186,-1
 784 254 l 1,187,188
 791 250 791 250 797 244 c 0,189,190
 812 230 812 230 812 212 c 256,191,192
 812 193 812 193 797 180 c 0,193,194
 790 174 790 174 784 171 c 1,195,-1
 784 171 l 1,196,197
 791 168 791 168 797 161 c 0,198,199
 812 147 812 147 812 129 c 256,200,201
 812 110 812 110 797 97 c 0,202,203
 783 83 783 83 766 83 c 1,204,-1
 766 83 l 1,118,119
285 0 m 1,205,206
 266 0 266 0 253 14 c 0,207,208
 239.933333333 27.0666666667 239.933333333 27.0666666667 239.933333333 43.6177777778 c 0,209,210
 239.933333333 64.9333333333 239.933333333 64.9333333333 253 78 c 0,211,212
 259 84 259 84 266 87 c 1,213,-1
 266 87 l 1,214,215
 258 90 258 90 253 97 c 0,216,217
 239.933333333 110.066666667 239.933333333 110.066666667 239.933333333 126.617777778 c 0,218,219
 239.933333333 147.933333333 239.933333333 147.933333333 253 161 c 0,220,221
 259 167 259 167 266 171 c 1,222,-1
 266 171 l 1,223,224
 258 174 258 174 253 180 c 0,225,226
 239.933333333 193.066666667 239.933333333 193.066666667 239.933333333 209.617777778 c 0,227,228
 239.933333333 229.928205128 239.933333333 229.928205128 253 244 c 0,229,230
 259 250 259 250 266 254 c 1,231,-1
 266 254 l 1,232,233
 258 257 258 257 253 263 c 0,234,235
 239.933333333 277 239.933333333 277 239.933333333 293.613333333 c 0,236,237
 239.933333333 315.938461538 239.933333333 315.938461538 253 328 c 0,238,239
 259 334 259 334 266 338 c 1,240,-1
 266 338 l 1,241,242
 258 340 258 340 253 346 c 0,243,244
 239.933333333 359.066666667 239.933333333 359.066666667 239.933333333 376.488888889 c 0,245,246
 239.933333333 397.933333333 239.933333333 397.933333333 253 411 c 0,247,248
 259 417 259 417 266 421 c 1,249,-1
 266 421 l 1,250,251
 258 424 258 424 253 430 c 0,252,253
 239.933333333 443.066666667 239.933333333 443.066666667 239.933333333 459.617777778 c 0,254,255
 239.933333333 480.928205128 239.933333333 480.928205128 253 495 c 0,256,257
 259 501 259 501 266 504 c 1,258,-1
 266 504 l 1,259,260
 258 507 258 507 253 513 c 0,261,262
 239.933333333 526.066666667 239.933333333 526.066666667 239.933333333 543.488888889 c 0,263,264
 239.933333333 564.933333333 239.933333333 564.933333333 253 578 c 0,265,266
 267 592 267 592 285 592 c 0,267,268
 304 592 304 592 318 578 c 0,269,270
 331.066666667 564.933333333 331.066666667 564.933333333 331.066666667 548.382222222 c 0,271,272
 331.066666667 527.071794872 331.066666667 527.071794872 318 513 c 0,273,274
 312 507 312 507 304 504 c 1,275,-1
 304 504 l 1,276,277
 311 501 311 501 318 495 c 0,278,279
 331.066666667 481.933333333 331.066666667 481.933333333 331.066666667 464.511111111 c 0,280,281
 331.066666667 443.066666667 331.066666667 443.066666667 318 430 c 0,282,283
 312 424 312 424 304 421 c 1,284,-1
 304 421 l 1,285,286
 311 418 311 418 318 411 c 0,287,288
 331.066666667 397.933333333 331.066666667 397.933333333 331.066666667 381.382222222 c 0,289,290
 331.066666667 360.071794872 331.066666667 360.071794872 318 346 c 0,291,292
 312 340 312 340 304 338 c 1,293,-1
 304 338 l 1,294,295
 311 334 311 334 318 328 c 0,296,297
 331.066666667 314.933333333 331.066666667 314.933333333 331.066666667 298.382222222 c 0,298,299
 331.066666667 277.071794872 331.066666667 277.071794872 318 263 c 0,300,301
 312 257 312 257 304 254 c 1,302,-1
 304 254 l 1,303,304
 311 250 311 250 318 244 c 0,305,306
 331.066666667 230.933333333 331.066666667 230.933333333 331.066666667 214.382222222 c 0,307,308
 331.066666667 193.066666667 331.066666667 193.066666667 318 180 c 0,309,310
 312 174 312 174 304 171 c 1,311,-1
 304 171 l 1,312,313
 311 168 311 168 318 161 c 0,314,315
 331.066666667 147.933333333 331.066666667 147.933333333 331.066666667 131.382222222 c 0,316,317
 331.066666667 110.066666667 331.066666667 110.066666667 318 97 c 0,318,319
 312 91 312 91 304 87 c 1,320,-1
 304 87 l 1,321,322
 311 84 311 84 318 78 c 0,323,324
 331.066666667 64.9333333333 331.066666667 64.9333333333 331.066666667 48.3822222222 c 0,325,326
 331.066666667 28.0717948718 331.066666667 28.0717948718 318 14 c 0,327,328
 304 0 304 0 285 0 c 1,329,-1
 285 0 l 1,205,206
406 500 m 1,330,331
 388 500 388 500 374 513 c 0,332,333
 360 527 360 527 360 546 c 256,334,335
 360 565 360 565 374 578 c 0,336,337
 388 592 388 592 406 592 c 0,338,339
 425 592 425 592 437 578 c 0,340,341
 452 564 452 564 452 546 c 256,342,343
 452 527 452 527 437 513 c 0,344,345
 423.933333333 499.933333333 423.933333333 499.933333333 408.253333333 499.933333333 c 0,346,347
 407.133333333 499.933333333 407.133333333 499.933333333 406 500 c 1,348,-1
 406 500 l 1,330,331
526 500 m 1,349,350
 508 500 508 500 494 513 c 0,351,352
 480 527 480 527 480 546 c 256,353,354
 480 565 480 565 494 578 c 0,355,356
 508 592 508 592 526 592 c 0,357,358
 545 592 545 592 558 578 c 0,359,360
 571.066666667 564.933333333 571.066666667 564.933333333 571.066666667 548.382222222 c 0,361,362
 571.066666667 527.071794872 571.066666667 527.071794872 558 513 c 0,363,364
 544.933333333 499.933333333 544.933333333 499.933333333 528.382222222 499.933333333 c 0,365,366
 527.2 499.933333333 527.2 499.933333333 526 500 c 1,367,-1
 526 500 l 1,349,350
645 0 m 1,368,369
 626 0 626 0 613 14 c 0,370,371
 599.933333333 27.0666666667 599.933333333 27.0666666667 599.933333333 43.6177777778 c 0,372,373
 599.933333333 64.9333333333 599.933333333 64.9333333333 613 78 c 0,374,375
 619 84 619 84 626 87 c 1,376,-1
 626 87 l 1,377,378
 618 90 618 90 613 97 c 0,379,380
 599.933333333 110.066666667 599.933333333 110.066666667 599.933333333 126.617777778 c 0,381,382
 599.933333333 147.933333333 599.933333333 147.933333333 613 161 c 0,383,384
 619 167 619 167 626 171 c 1,385,-1
 626 171 l 1,386,387
 618 174 618 174 613 180 c 0,388,389
 599.933333333 193.066666667 599.933333333 193.066666667 599.933333333 209.617777778 c 0,390,391
 599.933333333 229.928205128 599.933333333 229.928205128 613 244 c 0,392,393
 619 250 619 250 626 254 c 1,394,-1
 626 254 l 1,395,396
 618 257 618 257 613 263 c 0,397,398
 599.933333333 277 599.933333333 277 599.933333333 293.613333333 c 0,399,400
 599.933333333 315.938461538 599.933333333 315.938461538 613 328 c 0,401,402
 619 334 619 334 626 338 c 1,403,-1
 626 338 l 1,404,405
 618 340 618 340 613 346 c 0,406,407
 599.933333333 359.066666667 599.933333333 359.066666667 599.933333333 376.488888889 c 0,408,409
 599.933333333 397.933333333 599.933333333 397.933333333 613 411 c 0,410,411
 619 417 619 417 626 421 c 1,412,-1
 626 421 l 1,413,414
 618 424 618 424 613 430 c 0,415,416
 599.933333333 443.066666667 599.933333333 443.066666667 599.933333333 459.617777778 c 0,417,418
 599.933333333 480.928205128 599.933333333 480.928205128 613 495 c 0,419,420
 619 501 619 501 626 504 c 1,421,-1
 626 504 l 1,422,423
 618 507 618 507 613 513 c 0,424,425
 599.933333333 526.066666667 599.933333333 526.066666667 599.933333333 543.488888889 c 0,426,427
 599.933333333 564.933333333 599.933333333 564.933333333 613 578 c 0,428,429
 627 592 627 592 645 592 c 0,430,431
 664 592 664 592 678 578 c 0,432,433
 691.066666667 564.933333333 691.066666667 564.933333333 691.066666667 548.382222222 c 0,434,435
 691.066666667 527.071794872 691.066666667 527.071794872 678 513 c 0,436,437
 672 507 672 507 664 504 c 1,438,-1
 664 504 l 1,439,440
 671 501 671 501 678 495 c 0,441,442
 691.066666667 481.933333333 691.066666667 481.933333333 691.066666667 464.511111111 c 0,443,444
 691.066666667 443.066666667 691.066666667 443.066666667 678 430 c 0,445,446
 672 424 672 424 664 421 c 1,447,-1
 664 421 l 1,448,449
 671 418 671 418 678 411 c 0,450,451
 691.066666667 397.933333333 691.066666667 397.933333333 691.066666667 381.382222222 c 0,452,453
 691.066666667 360.071794872 691.066666667 360.071794872 678 346 c 0,454,455
 672 340 672 340 664 338 c 1,456,-1
 664 338 l 1,457,458
 671 334 671 334 678 328 c 0,459,460
 691.066666667 314.933333333 691.066666667 314.933333333 691.066666667 298.382222222 c 0,461,462
 691.066666667 277.071794872 691.066666667 277.071794872 678 263 c 0,463,464
 672 257 672 257 664 254 c 1,465,-1
 664 254 l 1,466,467
 671 250 671 250 678 244 c 0,468,469
 691.066666667 230.933333333 691.066666667 230.933333333 691.066666667 214.382222222 c 0,470,471
 691.066666667 193.066666667 691.066666667 193.066666667 678 180 c 0,472,473
 672 174 672 174 664 171 c 1,474,-1
 664 171 l 1,475,476
 671 168 671 168 678 161 c 0,477,478
 691.066666667 147.933333333 691.066666667 147.933333333 691.066666667 131.382222222 c 0,479,480
 691.066666667 110.066666667 691.066666667 110.066666667 678 97 c 0,481,482
 672 91 672 91 664 87 c 1,483,-1
 664 87 l 1,484,485
 671 84 671 84 678 78 c 0,486,487
 691.066666667 64.9333333333 691.066666667 64.9333333333 691.066666667 48.3822222222 c 0,488,489
 691.066666667 28.0717948718 691.066666667 28.0717948718 678 14 c 0,490,491
 664 0 664 0 645 0 c 1,492,-1
 645 0 l 1,368,369
EndSplineSet
EndChar

StartChar: one
Encoding: 49 49 17
Width: 1200
VWidth: 750
Flags: W
LayerCount: 2
Fore
SplineSet
166 0 m 1,0,1
 148 0 148 0 134 14 c 128,-1,2
 120 28 120 28 120 46 c 0,3,4
 120 65 120 65 134 78 c 0,5,6
 148 92 148 92 166 92 c 0,7,8
 185 92 185 92 198 78 c 0,9,10
 211.066666667 64.9333333333 211.066666667 64.9333333333 211.066666667 48.3822222222 c 0,11,12
 211.066666667 28.0717948718 211.066666667 28.0717948718 198 14 c 0,13,14
 184 0 184 0 166 0 c 1,15,-1
 166 0 l 1,0,1
285 0 m 1,16,17
 266 0 266 0 253 14 c 0,18,19
 239.933333333 27.0666666667 239.933333333 27.0666666667 239.933333333 43.6177777778 c 0,20,21
 239.933333333 64.9333333333 239.933333333 64.9333333333 253 78 c 0,22,23
 267 92 267 92 285 92 c 0,24,25
 304 92 304 92 318 78 c 0,26,27
 331.066666667 64.9333333333 331.066666667 64.9333333333 331.066666667 48.3822222222 c 0,28,29
 331.066666667 28.0717948718 331.066666667 28.0717948718 318 14 c 0,30,31
 304 0 304 0 285 0 c 1,32,-1
 285 0 l 1,16,17
645 0 m 1,33,34
 626 0 626 0 613 14 c 0,35,36
 599.933333333 27.0666666667 599.933333333 27.0666666667 599.933333333 43.6177777778 c 0,37,38
 599.933333333 64.9333333333 599.933333333 64.9333333333 613 78 c 0,39,40
 627 92 627 92 645 92 c 0,41,42
 664 92 664 92 678 78 c 0,43,44
 691.066666667 64.9333333333 691.066666667 64.9333333333 691.066666667 48.3822222222 c 0,45,46
 691.066666667 28.0717948718 691.066666667 28.0717948718 678 14 c 0,47,48
 664 0 664 0 645 0 c 1,49,-1
 645 0 l 1,33,34
766 0 m 1,50,51
 748 0 748 0 734 14 c 128,-1,52
 720 28 720 28 720 46 c 0,53,54
 720 65 720 65 734 78 c 0,55,56
 748 92 748 92 766 92 c 0,57,58
 785 92 785 92 797 78 c 0,59,60
 812 64 812 64 812 46 c 128,-1,61
 812 28 812 28 797 14 c 0,62,63
 783 0 783 0 766 0 c 1,64,-1
 766 0 l 1,50,51
166 416 m 1,65,66
 148 416 148 416 134 430 c 128,-1,67
 120 444 120 444 120 462 c 0,68,69
 120 481 120 481 134 495 c 0,70,71
 148 508 148 508 166 508 c 0,72,73
 185 508 185 508 198 495 c 128,-1,74
 211.066666667 481.933333333 211.066666667 481.933333333 211.066666667 464.511111111 c 0,75,76
 211.066666667 443.066666667 211.066666667 443.066666667 198 430 c 0,77,78
 184 416 184 416 166 416 c 1,79,-1
 166 416 l 1,65,66
285 416 m 1,80,81
 266 416 266 416 253 430 c 0,82,83
 239.933333333 443.066666667 239.933333333 443.066666667 239.933333333 459.617777778 c 0,84,85
 239.933333333 480.928205128 239.933333333 480.928205128 253 495 c 0,86,87
 267 508 267 508 285 508 c 0,88,89
 304 508 304 508 318 495 c 0,90,91
 331.066666667 481.933333333 331.066666667 481.933333333 331.066666667 464.511111111 c 0,92,93
 331.066666667 443.066666667 331.066666667 443.066666667 318 430 c 0,94,95
 304 416 304 416 285 416 c 1,96,-1
 285 416 l 1,80,81
406 0 m 1,97,98
 388 0 388 0 374 14 c 128,-1,99
 360 28 360 28 360 46 c 0,100,101
 360 65 360 65 374 78 c 0,102,103
 380 84 380 84 386 87 c 1,104,-1
 386 87 l 1,105,106
 380 90 380 90 374 97 c 0,107,108
 360 111 360 111 360 129 c 256,109,110
 360 148 360 148 374 161 c 0,111,112
 380 167 380 167 386 171 c 1,113,-1
 386 171 l 1,114,115
 380 174 380 174 374 180 c 0,116,117
 360 194 360 194 360 212 c 256,118,119
 360 230 360 230 374 244 c 0,120,121
 380 250 380 250 386 254 c 1,122,-1
 386 254 l 1,123,124
 380 257 380 257 374 263 c 0,125,126
 360 278 360 278 360 296 c 0,127,128
 360 316 360 316 374 328 c 0,129,130
 380 334 380 334 386 338 c 1,131,-1
 386 338 l 1,132,133
 380 340 380 340 374 346 c 0,134,135
 360 360 360 360 360 379 c 256,136,137
 360 398 360 398 374 411 c 0,138,139
 380 417 380 417 386 421 c 1,140,-1
 386 421 l 1,141,142
 380 424 380 424 374 430 c 0,143,144
 360 444 360 444 360 462 c 0,145,146
 360 481 360 481 374 495 c 0,147,148
 380 501 380 501 386 504 c 1,149,-1
 386 504 l 1,150,151
 380 507 380 507 374 513 c 0,152,153
 360 527 360 527 360 546 c 256,154,155
 360 565 360 565 374 578 c 0,156,157
 388 592 388 592 406 592 c 0,158,159
 425 592 425 592 437 578 c 0,160,161
 452 564 452 564 452 546 c 256,162,163
 452 527 452 527 437 513 c 0,164,165
 430 507 430 507 424 504 c 1,166,-1
 424 504 l 1,167,168
 431 501 431 501 437 495 c 0,169,170
 452 481 452 481 452 462 c 128,-1,171
 452 443 452 443 437 430 c 0,172,173
 430 424 430 424 424 421 c 1,174,-1
 424 421 l 1,175,176
 431 418 431 418 437 411 c 0,177,178
 452 397 452 397 452 379 c 256,179,180
 452 360 452 360 437 346 c 0,181,182
 430 340 430 340 424 338 c 1,183,-1
 424 338 l 1,184,185
 431 334 431 334 437 328 c 0,186,187
 452 314 452 314 452 296 c 0,188,189
 452 277 452 277 437 263 c 0,190,191
 430 257 430 257 424 254 c 1,192,-1
 424 254 l 1,193,194
 431 250 431 250 437 244 c 0,195,196
 452 230 452 230 452 212 c 256,197,198
 452 193 452 193 437 180 c 0,199,200
 430 174 430 174 424 171 c 1,201,-1
 424 171 l 1,202,203
 431 168 431 168 437 161 c 0,204,205
 452 147 452 147 452 129 c 256,206,207
 452 110 452 110 437 97 c 0,208,209
 430 91 430 91 424 87 c 1,210,-1
 424 87 l 1,211,212
 431 84 431 84 437 78 c 0,213,214
 452 64 452 64 452 46 c 128,-1,215
 452 28 452 28 437 14 c 0,216,217
 423 0 423 0 406 0 c 1,218,-1
 406 0 l 1,97,98
526 0 m 1,219,220
 508 0 508 0 494 14 c 128,-1,221
 480 28 480 28 480 46 c 0,222,223
 480 65 480 65 494 78 c 0,224,225
 500 84 500 84 506 87 c 1,226,-1
 506 87 l 1,227,228
 500 90 500 90 494 97 c 0,229,230
 480 111 480 111 480 129 c 256,231,232
 480 148 480 148 494 161 c 0,233,234
 500 167 500 167 506 171 c 1,235,-1
 506 171 l 1,236,237
 500 174 500 174 494 180 c 0,238,239
 480 194 480 194 480 212 c 256,240,241
 480 230 480 230 494 244 c 0,242,243
 500 250 500 250 506 254 c 1,244,-1
 506 254 l 1,245,246
 500 257 500 257 494 263 c 0,247,248
 480 278 480 278 480 296 c 0,249,250
 480 316 480 316 494 328 c 0,251,252
 500 334 500 334 506 338 c 1,253,-1
 506 338 l 1,254,255
 500 340 500 340 494 346 c 0,256,257
 480 360 480 360 480 379 c 256,258,259
 480 398 480 398 494 411 c 0,260,261
 500 417 500 417 506 421 c 1,262,-1
 506 421 l 1,263,264
 500 424 500 424 494 430 c 0,265,266
 480 444 480 444 480 462 c 0,267,268
 480 481 480 481 494 495 c 0,269,270
 500 501 500 501 506 504 c 1,271,-1
 506 504 l 1,272,273
 500 507 500 507 494 513 c 0,274,275
 480 527 480 527 480 546 c 256,276,277
 480 565 480 565 494 578 c 0,278,279
 508 592 508 592 526 592 c 0,280,281
 545 592 545 592 558 578 c 0,282,283
 571.066666667 564.933333333 571.066666667 564.933333333 571.066666667 548.382222222 c 0,284,285
 571.066666667 527.071794872 571.066666667 527.071794872 558 513 c 0,286,287
 552 507 552 507 545 504 c 1,288,-1
 545 504 l 1,289,290
 552 501 552 501 558 495 c 0,291,292
 571.066666667 481.933333333 571.066666667 481.933333333 571.066666667 464.511111111 c 0,293,294
 571.066666667 443.066666667 571.066666667 443.066666667 558 430 c 0,295,296
 552 424 552 424 545 421 c 1,297,-1
 545 421 l 1,298,299
 552 418 552 418 558 411 c 0,300,301
 571.066666667 397.933333333 571.066666667 397.933333333 571.066666667 381.382222222 c 0,302,303
 571.066666667 360.071794872 571.066666667 360.071794872 558 346 c 0,304,305
 552 340 552 340 545 338 c 1,306,-1
 545 338 l 1,307,308
 552 334 552 334 558 328 c 0,309,310
 571.066666667 314.933333333 571.066666667 314.933333333 571.066666667 298.382222222 c 0,311,312
 571.066666667 277.071794872 571.066666667 277.071794872 558 263 c 0,313,314
 552 257 552 257 545 254 c 1,315,-1
 545 254 l 1,316,317
 552 250 552 250 558 244 c 0,318,319
 571.066666667 230.933333333 571.066666667 230.933333333 571.066666667 214.382222222 c 0,320,321
 571.066666667 193.066666667 571.066666667 193.066666667 558 180 c 0,322,323
 552 174 552 174 545 171 c 1,324,-1
 545 171 l 1,325,326
 552 168 552 168 558 161 c 0,327,328
 571.066666667 147.933333333 571.066666667 147.933333333 571.066666667 131.382222222 c 0,329,330
 571.066666667 110.066666667 571.066666667 110.066666667 558 97 c 0,331,332
 552 91 552 91 545 87 c 1,333,-1
 545 87 l 1,334,335
 552 84 552 84 558 78 c 0,336,337
 571.066666667 64.9333333333 571.066666667 64.9333333333 571.066666667 48.3822222222 c 0,338,339
 571.066666667 28.0717948718 571.066666667 28.0717948718 558 14 c 0,340,341
 544 0 544 0 526 0 c 1,342,-1
 526 0 l 1,219,220
EndSplineSet
EndChar

StartChar: two
Encoding: 50 50 18
Width: 1200
VWidth: 750
Flags: W
LayerCount: 2
Fore
SplineSet
46 0 m 1,0,1
 28 0 28 0 14 14 c 128,-1,2
 0 28 0 28 0 46 c 0,3,4
 0 65 0 65 14 78 c 256,5,6
 28 92 28 92 46 92 c 256,7,8
 65 92 65 92 78 78 c 0,9,10
 92 64 92 64 92 46 c 128,-1,11
 92 28 92 28 78 14 c 128,-1,12
 64 0 64 0 46 0 c 1,13,-1
 46 0 l 1,0,1
406 0 m 1,14,15
 388 0 388 0 374 14 c 128,-1,16
 360 28 360 28 360 46 c 0,17,18
 360 65 360 65 374 78 c 0,19,20
 388 92 388 92 406 92 c 0,21,22
 425 92 425 92 437 78 c 0,23,24
 452 64 452 64 452 46 c 128,-1,25
 452 28 452 28 437 14 c 0,26,27
 423 0 423 0 406 0 c 1,28,-1
 406 0 l 1,14,15
526 0 m 1,29,30
 508 0 508 0 494 14 c 128,-1,31
 480 28 480 28 480 46 c 0,32,33
 480 65 480 65 494 78 c 0,34,35
 508 92 508 92 526 92 c 0,36,37
 545 92 545 92 558 78 c 0,38,39
 571.066666667 64.9333333333 571.066666667 64.9333333333 571.066666667 48.3822222222 c 0,40,41
 571.066666667 28.0717948718 571.066666667 28.0717948718 558 14 c 0,42,43
 544 0 544 0 526 0 c 1,44,-1
 526 0 l 1,29,30
645 0 m 1,45,46
 626 0 626 0 613 14 c 0,47,48
 599.933333333 27.0666666667 599.933333333 27.0666666667 599.933333333 43.6177777778 c 0,49,50
 599.933333333 64.9333333333 599.933333333 64.9333333333 613 78 c 0,51,52
 627 92 627 92 645 92 c 0,53,54
 664 92 664 92 678 78 c 0,55,56
 691.066666667 64.9333333333 691.066666667 64.9333333333 691.066666667 48.3822222222 c 0,57,58
 691.066666667 28.0717948718 691.066666667 28.0717948718 678 14 c 0,59,60
 664 0 664 0 645 0 c 1,61,-1
 645 0 l 1,45,46
766 0 m 1,62,63
 748 0 748 0 734 14 c 128,-1,64
 720 28 720 28 720 46 c 0,65,66
 720 65 720 65 734 78 c 0,67,68
 748 92 748 92 766 92 c 0,69,70
 785 92 785 92 797 78 c 0,71,72
 812 64 812 64 812 46 c 128,-1,73
 812 28 812 28 797 14 c 0,74,75
 783 0 783 0 766 0 c 1,76,-1
 766 0 l 1,62,63
886 0 m 1,77,78
 868 0 868 0 854 14 c 128,-1,79
 840 28 840 28 840 46 c 0,80,81
 840 65 840 65 854 78 c 0,82,83
 868 92 868 92 886 92 c 0,84,85
 905 92 905 92 918 78 c 0,86,87
 931.066666667 64.9333333333 931.066666667 64.9333333333 931.066666667 48.3822222222 c 0,88,89
 931.066666667 28.0717948718 931.066666667 28.0717948718 918 14 c 0,90,91
 904 0 904 0 886 0 c 1,92,-1
 886 0 l 1,77,78
166 0 m 1,93,94
 148 0 148 0 134 14 c 128,-1,95
 120 28 120 28 120 46 c 0,96,97
 120 65 120 65 134 78 c 0,98,99
 140 84 140 84 146 87 c 1,100,-1
 146 87 l 1,101,102
 140 90 140 90 134 97 c 0,103,104
 120 111 120 111 120 129 c 256,105,106
 120 148 120 148 134 161 c 0,107,108
 148 175 148 175 166 175 c 0,109,110
 185 175 185 175 198 161 c 0,111,112
 211.066666667 147.933333333 211.066666667 147.933333333 211.066666667 131.382222222 c 0,113,114
 211.066666667 110.066666667 211.066666667 110.066666667 198 97 c 0,115,116
 192 91 192 91 185 87 c 1,117,-1
 185 87 l 1,118,119
 192 84 192 84 198 78 c 0,120,121
 211.066666667 64.9333333333 211.066666667 64.9333333333 211.066666667 48.3822222222 c 0,122,123
 211.066666667 28.0717948718 211.066666667 28.0717948718 198 14 c 0,124,125
 184 0 184 0 166 0 c 1,126,-1
 166 0 l 1,93,94
285 0 m 1,127,128
 266 0 266 0 253 14 c 0,129,130
 239.933333333 27.0666666667 239.933333333 27.0666666667 239.933333333 43.6177777778 c 0,131,132
 239.933333333 64.9333333333 239.933333333 64.9333333333 253 78 c 0,133,134
 259 84 259 84 266 87 c 1,135,-1
 266 87 l 1,136,137
 258 90 258 90 253 97 c 0,138,139
 239.933333333 110.066666667 239.933333333 110.066666667 239.933333333 126.617777778 c 0,140,141
 239.933333333 147.933333333 239.933333333 147.933333333 253 161 c 0,142,143
 259 167 259 167 266 171 c 1,144,-1
 266 171 l 1,145,146
 258 174 258 174 253 180 c 0,147,148
 239.933333333 193.066666667 239.933333333 193.066666667 239.933333333 209.617777778 c 0,149,150
 239.933333333 229.928205128 239.933333333 229.928205128 253 244 c 0,151,152
 267 258 267 258 285 258 c 0,153,154
 304 258 304 258 318 244 c 0,155,156
 331.066666667 230.933333333 331.066666667 230.933333333 331.066666667 214.382222222 c 0,157,158
 331.066666667 193.066666667 331.066666667 193.066666667 318 180 c 0,159,160
 312 174 312 174 304 171 c 1,161,-1
 304 171 l 1,162,163
 311 168 311 168 318 161 c 0,164,165
 331.066666667 147.933333333 331.066666667 147.933333333 331.066666667 131.382222222 c 0,166,167
 331.066666667 110.066666667 331.066666667 110.066666667 318 97 c 0,168,169
 312 91 312 91 304 87 c 1,170,-1
 304 87 l 1,171,172
 311 84 311 84 318 78 c 0,173,174
 331.066666667 64.9333333333 331.066666667 64.9333333333 331.066666667 48.3822222222 c 0,175,176
 331.066666667 28.0717948718 331.066666667 28.0717948718 318 14 c 0,177,178
 304 0 304 0 285 0 c 1,179,-1
 285 0 l 1,127,128
406 166 m 1,180,181
 388 166 388 166 374 180 c 128,-1,182
 360 194 360 194 360 212 c 256,183,184
 360 230 360 230 374 244 c 128,-1,185
 388 258 388 258 406 258 c 0,186,187
 425 258 425 258 437 244 c 0,188,189
 452 230 452 230 452 212 c 256,190,191
 452 193 452 193 437 180 c 0,192,193
 423 166 423 166 406 166 c 1,194,-1
 406 166 l 1,180,181
526 250 m 1,195,196
 508 250 508 250 494 263 c 0,197,198
 480 278 480 278 480 296 c 0,199,200
 480 316 480 316 494 328 c 0,201,202
 507.066666667 341.066666667 507.066666667 341.066666667 523.617777778 341.066666667 c 0,203,204
 524.8 341.066666667 524.8 341.066666667 526 341 c 128,-1,205
 527.266666667 341.066666667 527.266666667 341.066666667 528.506666667 341.066666667 c 0,206,207
 545.866666667 341.066666667 545.866666667 341.066666667 558 328 c 0,208,209
 571.066666667 314.933333333 571.066666667 314.933333333 571.066666667 298.382222222 c 0,210,211
 571.066666667 277.071794872 571.066666667 277.071794872 558 263 c 0,212,213
 544.933333333 249.933333333 544.933333333 249.933333333 528.382222222 249.933333333 c 0,214,215
 527.2 249.933333333 527.2 249.933333333 526 250 c 1,216,-1
 526 250 l 1,195,196
645 250 m 1,217,218
 626 250 626 250 613 263 c 0,219,220
 599.933333333 277 599.933333333 277 599.933333333 293.613333333 c 0,221,222
 599.933333333 315.938461538 599.933333333 315.938461538 613 328 c 0,223,224
 619 334 619 334 626 338 c 1,225,-1
 626 338 l 1,226,227
 618 340 618 340 613 346 c 0,228,229
 599.933333333 359.066666667 599.933333333 359.066666667 599.933333333 376.488888889 c 0,230,231
 599.933333333 397.933333333 599.933333333 397.933333333 613 411 c 0,232,233
 627 424 627 424 645 424 c 0,234,235
 664 424 664 424 678 411 c 0,236,237
 691.066666667 397.933333333 691.066666667 397.933333333 691.066666667 381.382222222 c 0,238,239
 691.066666667 360.071794872 691.066666667 360.071794872 678 346 c 0,240,241
 672 340 672 340 664 338 c 1,242,-1
 664 338 l 1,243,244
 671 334 671 334 678 328 c 0,245,246
 691.066666667 314.933333333 691.066666667 314.933333333 691.066666667 298.382222222 c 0,247,248
 691.066666667 277.071794872 691.066666667 277.071794872 678 263 c 0,249,250
 664.933333333 249.933333333 664.933333333 249.933333333 647.511111111 249.933333333 c 0,251,252
 646.266666667 249.933333333 646.266666667 249.933333333 645 250 c 1,253,-1
 645 250 l 1,217,218
46 416 m 1,254,255
 28 416 28 416 14 430 c 256,256,257
 0 444 0 444 0 462 c 0,258,259
 0 481 0 481 14 495 c 256,260,261
 28 508 28 508 46 508 c 256,262,263
 65 508 65 508 78 495 c 0,264,265
 92 481 92 481 92 462 c 128,-1,266
 92 443 92 443 78 430 c 0,267,268
 64 416 64 416 46 416 c 1,269,-1
 46 416 l 1,254,255
886 416 m 1,270,271
 868 416 868 416 854 430 c 128,-1,272
 840 444 840 444 840 462 c 0,273,274
 840 481 840 481 854 495 c 0,275,276
 868 508 868 508 886 508 c 0,277,278
 905 508 905 508 918 495 c 128,-1,279
 931.066666667 481.933333333 931.066666667 481.933333333 931.066666667 464.511111111 c 0,280,281
 931.066666667 443.066666667 931.066666667 443.066666667 918 430 c 0,282,283
 904 416 904 416 886 416 c 1,284,-1
 886 416 l 1,270,271
166 416 m 1,285,286
 148 416 148 416 134 430 c 128,-1,287
 120 444 120 444 120 462 c 0,288,289
 120 481 120 481 134 495 c 0,290,291
 140 501 140 501 146 504 c 1,292,-1
 146 504 l 1,293,294
 140 507 140 507 134 513 c 0,295,296
 120 527 120 527 120 546 c 256,297,298
 120 565 120 565 134 578 c 0,299,300
 148 592 148 592 166 592 c 0,301,302
 185 592 185 592 198 578 c 0,303,304
 211.066666667 564.933333333 211.066666667 564.933333333 211.066666667 548.382222222 c 0,305,306
 211.066666667 527.071794872 211.066666667 527.071794872 198 513 c 0,307,308
 192 507 192 507 185 504 c 1,309,-1
 185 504 l 1,310,311
 192 501 192 501 198 495 c 0,312,313
 211.066666667 481.933333333 211.066666667 481.933333333 211.066666667 464.511111111 c 0,314,315
 211.066666667 443.066666667 211.066666667 443.066666667 198 430 c 0,316,317
 184 416 184 416 166 416 c 1,318,-1
 166 416 l 1,285,286
285 500 m 1,319,320
 266 500 266 500 253 513 c 128,-1,321
 239.933333333 526.066666667 239.933333333 526.066666667 239.933333333 543.488888889 c 0,322,323
 239.933333333 564.933333333 239.933333333 564.933333333 253 578 c 0,324,325
 267 592 267 592 285 592 c 0,326,327
 304 592 304 592 318 578 c 0,328,329
 331.066666667 564.933333333 331.066666667 564.933333333 331.066666667 548.382222222 c 0,330,331
 331.066666667 527.071794872 331.066666667 527.071794872 318 513 c 0,332,333
 304.933333333 499.933333333 304.933333333 499.933333333 287.511111111 499.933333333 c 0,334,335
 286.266666667 499.933333333 286.266666667 499.933333333 285 500 c 1,336,-1
 285 500 l 1,319,320
406 500 m 1,337,338
 388 500 388 500 374 513 c 0,339,340
 360 527 360 527 360 546 c 256,341,342
 360 565 360 565 374 578 c 0,343,344
 388 592 388 592 406 592 c 0,345,346
 425 592 425 592 437 578 c 0,347,348
 452 564 452 564 452 546 c 256,349,350
 452 527 452 527 437 513 c 0,351,352
 423.933333333 499.933333333 423.933333333 499.933333333 408.253333333 499.933333333 c 0,353,354
 407.133333333 499.933333333 407.133333333 499.933333333 406 500 c 1,355,-1
 406 500 l 1,337,338
526 500 m 1,356,357
 508 500 508 500 494 513 c 0,358,359
 480 527 480 527 480 546 c 256,360,361
 480 565 480 565 494 578 c 0,362,363
 508 592 508 592 526 592 c 0,364,365
 545 592 545 592 558 578 c 0,366,367
 571.066666667 564.933333333 571.066666667 564.933333333 571.066666667 548.382222222 c 0,368,369
 571.066666667 527.071794872 571.066666667 527.071794872 558 513 c 0,370,371
 544.933333333 499.933333333 544.933333333 499.933333333 528.382222222 499.933333333 c 0,372,373
 527.2 499.933333333 527.2 499.933333333 526 500 c 1,374,-1
 526 500 l 1,356,357
645 500 m 1,375,376
 626 500 626 500 613 513 c 128,-1,377
 599.933333333 526.066666667 599.933333333 526.066666667 599.933333333 543.488888889 c 0,378,379
 599.933333333 564.933333333 599.933333333 564.933333333 613 578 c 0,380,381
 627 592 627 592 645 592 c 0,382,383
 664 592 664 592 678 578 c 0,384,385
 691.066666667 564.933333333 691.066666667 564.933333333 691.066666667 548.382222222 c 0,386,387
 691.066666667 527.071794872 691.066666667 527.071794872 678 513 c 0,388,389
 664.933333333 499.933333333 664.933333333 499.933333333 647.511111111 499.933333333 c 0,390,391
 646.266666667 499.933333333 646.266666667 499.933333333 645 500 c 1,392,-1
 645 500 l 1,375,376
766 333 m 1,393,394
 764.8 332.933333333 764.8 332.933333333 763.617777778 332.933333333 c 0,395,396
 747.066666667 332.933333333 747.066666667 332.933333333 734 346 c 0,397,398
 720 360 720 360 720 379 c 256,399,400
 720 398 720 398 734 411 c 0,401,402
 740 417 740 417 746 421 c 1,403,-1
 746 421 l 1,404,405
 740 424 740 424 734 430 c 0,406,407
 720 444 720 444 720 462 c 0,408,409
 720 481 720 481 734 495 c 0,410,411
 740 501 740 501 746 504 c 1,412,-1
 746 504 l 1,413,414
 740 507 740 507 734 513 c 0,415,416
 720 527 720 527 720 546 c 256,417,418
 720 565 720 565 734 578 c 0,419,420
 748 592 748 592 766 592 c 0,421,422
 785 592 785 592 797 578 c 0,423,424
 812 564 812 564 812 546 c 256,425,426
 812 527 812 527 797 513 c 0,427,428
 790 507 790 507 784 504 c 1,429,-1
 784 504 l 1,430,431
 791 501 791 501 797 495 c 0,432,433
 812 481 812 481 812 462 c 128,-1,434
 812 443 812 443 797 430 c 0,435,436
 790 424 790 424 784 421 c 1,437,-1
 784 421 l 1,438,439
 791 418 791 418 797 411 c 0,440,441
 812 397 812 397 812 379 c 256,442,443
 812 360 812 360 797 346 c 0,444,445
 783.933333333 332.933333333 783.933333333 332.933333333 768.253333333 332.933333333 c 0,446,447
 767.133333333 332.933333333 767.133333333 332.933333333 766 333 c 1,448,-1
 766 333 l 1,393,394
EndSplineSet
EndChar

StartChar: three
Encoding: 51 51 19
Width: 1200
VWidth: 750
Flags: W
LayerCount: 2
Fore
SplineSet
285 0 m 1,0,1
 266 0 266 0 253 14 c 0,2,3
 239.933333333 27.0666666667 239.933333333 27.0666666667 239.933333333 43.6177777778 c 0,4,5
 239.933333333 64.9333333333 239.933333333 64.9333333333 253 78 c 0,6,7
 267 92 267 92 285 92 c 0,8,9
 304 92 304 92 318 78 c 0,10,11
 331.066666667 64.9333333333 331.066666667 64.9333333333 331.066666667 48.3822222222 c 0,12,13
 331.066666667 28.0717948718 331.066666667 28.0717948718 318 14 c 0,14,15
 304 0 304 0 285 0 c 1,16,-1
 285 0 l 1,0,1
406 0 m 1,17,18
 388 0 388 0 374 14 c 128,-1,19
 360 28 360 28 360 46 c 0,20,21
 360 65 360 65 374 78 c 0,22,23
 388 92 388 92 406 92 c 0,24,25
 425 92 425 92 437 78 c 0,26,27
 452 64 452 64 452 46 c 128,-1,28
 452 28 452 28 437 14 c 0,29,30
 423 0 423 0 406 0 c 1,31,-1
 406 0 l 1,17,18
526 0 m 1,32,33
 508 0 508 0 494 14 c 128,-1,34
 480 28 480 28 480 46 c 0,35,36
 480 65 480 65 494 78 c 0,37,38
 508 92 508 92 526 92 c 0,39,40
 545 92 545 92 558 78 c 0,41,42
 571.066666667 64.9333333333 571.066666667 64.9333333333 571.066666667 48.3822222222 c 0,43,44
 571.066666667 28.0717948718 571.066666667 28.0717948718 558 14 c 0,45,46
 544 0 544 0 526 0 c 1,47,-1
 526 0 l 1,32,33
645 0 m 1,48,49
 626 0 626 0 613 14 c 0,50,51
 599.933333333 27.0666666667 599.933333333 27.0666666667 599.933333333 43.6177777778 c 0,52,53
 599.933333333 64.9333333333 599.933333333 64.9333333333 613 78 c 0,54,55
 627 92 627 92 645 92 c 0,56,57
 664 92 664 92 678 78 c 0,58,59
 691.066666667 64.9333333333 691.066666667 64.9333333333 691.066666667 48.3822222222 c 0,60,61
 691.066666667 28.0717948718 691.066666667 28.0717948718 678 14 c 0,62,63
 664 0 664 0 645 0 c 1,64,-1
 645 0 l 1,48,49
46 83 m 1,65,66
 28 83 28 83 14 97 c 128,-1,67
 0 111 0 111 0 129 c 256,68,69
 0 148 0 148 14 161 c 0,70,71
 28 175 28 175 46 175 c 256,72,73
 65 175 65 175 78 161 c 0,74,75
 92 147 92 147 92 129 c 256,76,77
 92 110 92 110 78 97 c 0,78,79
 64 83 64 83 46 83 c 1,80,-1
 46 83 l 1,65,66
166 0 m 1,81,82
 148 0 148 0 134 14 c 128,-1,83
 120 28 120 28 120 46 c 0,84,85
 120 65 120 65 134 78 c 0,86,87
 140 84 140 84 146 87 c 1,88,-1
 146 87 l 1,89,90
 140 90 140 90 134 97 c 0,91,92
 120 111 120 111 120 129 c 256,93,94
 120 148 120 148 134 161 c 0,95,96
 148 175 148 175 166 175 c 0,97,98
 185 175 185 175 198 161 c 0,99,100
 211.066666667 147.933333333 211.066666667 147.933333333 211.066666667 131.382222222 c 0,101,102
 211.066666667 110.066666667 211.066666667 110.066666667 198 97 c 0,103,104
 192 91 192 91 185 87 c 1,105,-1
 185 87 l 1,106,107
 192 84 192 84 198 78 c 0,108,109
 211.066666667 64.9333333333 211.066666667 64.9333333333 211.066666667 48.3822222222 c 0,110,111
 211.066666667 28.0717948718 211.066666667 28.0717948718 198 14 c 0,112,113
 184 0 184 0 166 0 c 1,114,-1
 166 0 l 1,81,82
886 83 m 1,115,116
 868 83 868 83 854 97 c 128,-1,117
 840 111 840 111 840 129 c 256,118,119
 840 148 840 148 854 161 c 0,120,121
 860 167 860 167 866 171 c 1,122,-1
 866 171 l 1,123,124
 860 174 860 174 854 180 c 0,125,126
 840 194 840 194 840 212 c 256,127,128
 840 230 840 230 854 244 c 128,-1,129
 868 258 868 258 886 258 c 0,130,131
 905 258 905 258 918 244 c 0,132,133
 931.066666667 230.933333333 931.066666667 230.933333333 931.066666667 214.382222222 c 0,134,135
 931.066666667 193.066666667 931.066666667 193.066666667 918 180 c 0,136,137
 912 174 912 174 905 171 c 1,138,-1
 905 171 l 1,139,140
 912 168 912 168 918 161 c 0,141,142
 931.066666667 147.933333333 931.066666667 147.933333333 931.066666667 131.382222222 c 0,143,144
 931.066666667 110.066666667 931.066666667 110.066666667 918 97 c 0,145,146
 904 83 904 83 886 83 c 1,147,-1
 886 83 l 1,115,116
406 250 m 1,148,149
 388 250 388 250 374 263 c 0,150,151
 360 278 360 278 360 296 c 0,152,153
 360 316 360 316 374 328 c 0,154,155
 387.066666667 341.066666667 387.066666667 341.066666667 403.617777778 341.066666667 c 0,156,157
 404.8 341.066666667 404.8 341.066666667 406 341 c 128,-1,158
 407.266666667 341.066666667 407.266666667 341.066666667 408.502222222 341.066666667 c 0,159,160
 425.8 341.066666667 425.8 341.066666667 437 328 c 0,161,162
 452 314 452 314 452 296 c 0,163,164
 452 277 452 277 437 263 c 0,165,166
 423.933333333 249.933333333 423.933333333 249.933333333 408.253333333 249.933333333 c 0,167,168
 407.133333333 249.933333333 407.133333333 249.933333333 406 250 c 1,169,-1
 406 250 l 1,148,149
526 250 m 1,170,171
 508 250 508 250 494 263 c 0,172,173
 480 278 480 278 480 296 c 0,174,175
 480 316 480 316 494 328 c 0,176,177
 507.066666667 341.066666667 507.066666667 341.066666667 523.617777778 341.066666667 c 0,178,179
 524.8 341.066666667 524.8 341.066666667 526 341 c 128,-1,180
 527.266666667 341.066666667 527.266666667 341.066666667 528.506666667 341.066666667 c 0,181,182
 545.866666667 341.066666667 545.866666667 341.066666667 558 328 c 0,183,184
 571.066666667 314.933333333 571.066666667 314.933333333 571.066666667 298.382222222 c 0,185,186
 571.066666667 277.071794872 571.066666667 277.071794872 558 263 c 0,187,188
 544.933333333 249.933333333 544.933333333 249.933333333 528.382222222 249.933333333 c 0,189,190
 527.2 249.933333333 527.2 249.933333333 526 250 c 1,191,-1
 526 250 l 1,170,171
645 250 m 1,192,193
 626 250 626 250 613 263 c 0,194,195
 599.933333333 277 599.933333333 277 599.933333333 293.613333333 c 0,196,197
 599.933333333 315.938461538 599.933333333 315.938461538 613 328 c 0,198,199
 626.066666667 341.066666667 626.066666667 341.066666667 642.617777778 341.066666667 c 0,200,201
 643.8 341.066666667 643.8 341.066666667 645 341 c 128,-1,202
 646.266666667 341.066666667 646.266666667 341.066666667 647.511111111 341.066666667 c 0,203,204
 664.933333333 341.066666667 664.933333333 341.066666667 678 328 c 128,-1,205
 691.066666667 314.933333333 691.066666667 314.933333333 691.066666667 298.382222222 c 0,206,207
 691.066666667 277.071794872 691.066666667 277.071794872 678 263 c 0,208,209
 664.933333333 249.933333333 664.933333333 249.933333333 647.511111111 249.933333333 c 0,210,211
 646.266666667 249.933333333 646.266666667 249.933333333 645 250 c 1,212,-1
 645 250 l 1,192,193
46 416 m 1,213,214
 28 416 28 416 14 430 c 256,215,216
 0 444 0 444 0 462 c 0,217,218
 0 481 0 481 14 495 c 256,219,220
 28 508 28 508 46 508 c 256,221,222
 65 508 65 508 78 495 c 0,223,224
 92 481 92 481 92 462 c 128,-1,225
 92 443 92 443 78 430 c 0,226,227
 64 416 64 416 46 416 c 1,228,-1
 46 416 l 1,213,214
886 333 m 1,229,230
 884.8 332.933333333 884.8 332.933333333 883.617777778 332.933333333 c 0,231,232
 867.066666667 332.933333333 867.066666667 332.933333333 854 346 c 0,233,234
 840 360 840 360 840 379 c 256,235,236
 840 398 840 398 854 411 c 0,237,238
 860 417 860 417 866 421 c 1,239,-1
 866 421 l 1,240,241
 860 424 860 424 854 430 c 0,242,243
 840 444 840 444 840 462 c 0,244,245
 840 481 840 481 854 495 c 0,246,247
 868 508 868 508 886 508 c 0,248,249
 905 508 905 508 918 495 c 128,-1,250
 931.066666667 481.933333333 931.066666667 481.933333333 931.066666667 464.511111111 c 0,251,252
 931.066666667 443.066666667 931.066666667 443.066666667 918 430 c 0,253,254
 912 424 912 424 905 421 c 1,255,-1
 905 421 l 1,256,257
 912 418 912 418 918 411 c 0,258,259
 931.066666667 397.933333333 931.066666667 397.933333333 931.066666667 381.382222222 c 0,260,261
 931.066666667 360.071794872 931.066666667 360.071794872 918 346 c 0,262,263
 904.933333333 332.933333333 904.933333333 332.933333333 888.382222222 332.933333333 c 0,264,265
 887.2 332.933333333 887.2 332.933333333 886 333 c 1,266,-1
 886 333 l 1,229,230
166 416 m 1,267,268
 148 416 148 416 134 430 c 128,-1,269
 120 444 120 444 120 462 c 0,270,271
 120 481 120 481 134 495 c 0,272,273
 140 501 140 501 146 504 c 1,274,-1
 146 504 l 1,275,276
 140 507 140 507 134 513 c 0,277,278
 120 527 120 527 120 546 c 256,279,280
 120 565 120 565 134 578 c 0,281,282
 148 592 148 592 166 592 c 0,283,284
 185 592 185 592 198 578 c 0,285,286
 211.066666667 564.933333333 211.066666667 564.933333333 211.066666667 548.382222222 c 0,287,288
 211.066666667 527.071794872 211.066666667 527.071794872 198 513 c 0,289,290
 192 507 192 507 185 504 c 1,291,-1
 185 504 l 1,292,293
 192 501 192 501 198 495 c 0,294,295
 211.066666667 481.933333333 211.066666667 481.933333333 211.066666667 464.511111111 c 0,296,297
 211.066666667 443.066666667 211.066666667 443.066666667 198 430 c 0,298,299
 184 416 184 416 166 416 c 1,300,-1
 166 416 l 1,267,268
285 500 m 1,301,302
 266 500 266 500 253 513 c 128,-1,303
 239.933333333 526.066666667 239.933333333 526.066666667 239.933333333 543.488888889 c 0,304,305
 239.933333333 564.933333333 239.933333333 564.933333333 253 578 c 0,306,307
 267 592 267 592 285 592 c 0,308,309
 304 592 304 592 318 578 c 0,310,311
 331.066666667 564.933333333 331.066666667 564.933333333 331.066666667 548.382222222 c 0,312,313
 331.066666667 527.071794872 331.066666667 527.071794872 318 513 c 0,314,315
 304.933333333 499.933333333 304.933333333 499.933333333 287.511111111 499.933333333 c 0,316,317
 286.266666667 499.933333333 286.266666667 499.933333333 285 500 c 1,318,-1
 285 500 l 1,301,302
406 500 m 1,319,320
 388 500 388 500 374 513 c 0,321,322
 360 527 360 527 360 546 c 256,323,324
 360 565 360 565 374 578 c 0,325,326
 388 592 388 592 406 592 c 0,327,328
 425 592 425 592 437 578 c 0,329,330
 452 564 452 564 452 546 c 256,331,332
 452 527 452 527 437 513 c 0,333,334
 423.933333333 499.933333333 423.933333333 499.933333333 408.253333333 499.933333333 c 0,335,336
 407.133333333 499.933333333 407.133333333 499.933333333 406 500 c 1,337,-1
 406 500 l 1,319,320
526 500 m 1,338,339
 508 500 508 500 494 513 c 0,340,341
 480 527 480 527 480 546 c 256,342,343
 480 565 480 565 494 578 c 0,344,345
 508 592 508 592 526 592 c 0,346,347
 545 592 545 592 558 578 c 0,348,349
 571.066666667 564.933333333 571.066666667 564.933333333 571.066666667 548.382222222 c 0,350,351
 571.066666667 527.071794872 571.066666667 527.071794872 558 513 c 0,352,353
 544.933333333 499.933333333 544.933333333 499.933333333 528.382222222 499.933333333 c 0,354,355
 527.2 499.933333333 527.2 499.933333333 526 500 c 1,356,-1
 526 500 l 1,338,339
645 500 m 1,357,358
 626 500 626 500 613 513 c 128,-1,359
 599.933333333 526.066666667 599.933333333 526.066666667 599.933333333 543.488888889 c 0,360,361
 599.933333333 564.933333333 599.933333333 564.933333333 613 578 c 0,362,363
 627 592 627 592 645 592 c 0,364,365
 664 592 664 592 678 578 c 0,366,367
 691.066666667 564.933333333 691.066666667 564.933333333 691.066666667 548.382222222 c 0,368,369
 691.066666667 527.071794872 691.066666667 527.071794872 678 513 c 0,370,371
 664.933333333 499.933333333 664.933333333 499.933333333 647.511111111 499.933333333 c 0,372,373
 646.266666667 499.933333333 646.266666667 499.933333333 645 500 c 1,374,-1
 645 500 l 1,357,358
766 0 m 1,375,376
 748 0 748 0 734 14 c 128,-1,377
 720 28 720 28 720 46 c 0,378,379
 720 65 720 65 734 78 c 0,380,381
 740 84 740 84 746 87 c 1,382,-1
 746 87 l 1,383,384
 740 90 740 90 734 97 c 0,385,386
 720 111 720 111 720 129 c 256,387,388
 720 148 720 148 734 161 c 0,389,390
 740 167 740 167 746 171 c 1,391,-1
 746 171 l 1,392,393
 740 174 740 174 734 180 c 0,394,395
 720 194 720 194 720 212 c 256,396,397
 720 230 720 230 734 244 c 0,398,399
 740 250 740 250 746 254 c 1,400,-1
 746 254 l 1,401,402
 740 257 740 257 734 263 c 0,403,404
 720 278 720 278 720 296 c 0,405,406
 720 316 720 316 734 328 c 0,407,408
 740 334 740 334 746 338 c 1,409,-1
 746 338 l 1,410,411
 740 340 740 340 734 346 c 0,412,413
 720 360 720 360 720 379 c 256,414,415
 720 398 720 398 734 411 c 0,416,417
 740 417 740 417 746 421 c 1,418,-1
 746 421 l 1,419,420
 740 424 740 424 734 430 c 0,421,422
 720 444 720 444 720 462 c 0,423,424
 720 481 720 481 734 495 c 0,425,426
 740 501 740 501 746 504 c 1,427,-1
 746 504 l 1,428,429
 740 507 740 507 734 513 c 0,430,431
 720 527 720 527 720 546 c 256,432,433
 720 565 720 565 734 578 c 0,434,435
 748 592 748 592 766 592 c 0,436,437
 785 592 785 592 797 578 c 0,438,439
 812 564 812 564 812 546 c 256,440,441
 812 527 812 527 797 513 c 0,442,443
 790 507 790 507 784 504 c 1,444,-1
 784 504 l 1,445,446
 791 501 791 501 797 495 c 0,447,448
 812 481 812 481 812 462 c 128,-1,449
 812 443 812 443 797 430 c 0,450,451
 790 424 790 424 784 421 c 1,452,-1
 784 421 l 1,453,454
 791 418 791 418 797 411 c 0,455,456
 812 397 812 397 812 379 c 256,457,458
 812 360 812 360 797 346 c 0,459,460
 790 340 790 340 784 338 c 1,461,-1
 784 338 l 1,462,463
 791 334 791 334 797 328 c 0,464,465
 812 314 812 314 812 296 c 0,466,467
 812 277 812 277 797 263 c 0,468,469
 790 257 790 257 784 254 c 1,470,-1
 784 254 l 1,471,472
 791 250 791 250 797 244 c 0,473,474
 812 230 812 230 812 212 c 256,475,476
 812 193 812 193 797 180 c 0,477,478
 790 174 790 174 784 171 c 1,479,-1
 784 171 l 1,480,481
 791 168 791 168 797 161 c 0,482,483
 812 147 812 147 812 129 c 256,484,485
 812 110 812 110 797 97 c 0,486,487
 790 91 790 91 784 87 c 1,488,-1
 784 87 l 1,489,490
 791 84 791 84 797 78 c 0,491,492
 812 64 812 64 812 46 c 128,-1,493
 812 28 812 28 797 14 c 0,494,495
 783 0 783 0 766 0 c 1,496,-1
 766 0 l 1,375,376
EndSplineSet
EndChar

StartChar: four
Encoding: 52 52 20
Width: 1200
VWidth: 750
Flags: W
LayerCount: 2
Fore
SplineSet
46 250 m 1,0,1
 28 250 28 250 14 263 c 256,2,3
 0 278 0 278 0 296 c 0,4,5
 0 316 0 316 14 328 c 0,6,7
 27.0666666667 341.066666667 27.0666666667 341.066666667 43.6177777778 341.066666667 c 0,8,9
 44.8 341.066666667 44.8 341.066666667 46 341 c 256,10,11
 47.2666666667 341.066666667 47.2666666667 341.066666667 48.5066666667 341.066666667 c 0,12,13
 65.8666666667 341.066666667 65.8666666667 341.066666667 78 328 c 0,14,15
 92 314 92 314 92 296 c 0,16,17
 92 277 92 277 78 263 c 0,18,19
 64.9333333333 249.933333333 64.9333333333 249.933333333 48.3822222222 249.933333333 c 0,20,21
 47.2 249.933333333 47.2 249.933333333 46 250 c 1,22,-1
 46 250 l 1,0,1
406 250 m 1,23,24
 388 250 388 250 374 263 c 0,25,26
 360 278 360 278 360 296 c 0,27,28
 360 316 360 316 374 328 c 0,29,30
 387.066666667 341.066666667 387.066666667 341.066666667 403.617777778 341.066666667 c 0,31,32
 404.8 341.066666667 404.8 341.066666667 406 341 c 128,-1,33
 407.266666667 341.066666667 407.266666667 341.066666667 408.502222222 341.066666667 c 0,34,35
 425.8 341.066666667 425.8 341.066666667 437 328 c 0,36,37
 452 314 452 314 452 296 c 0,38,39
 452 277 452 277 437 263 c 0,40,41
 423.933333333 249.933333333 423.933333333 249.933333333 408.253333333 249.933333333 c 0,42,43
 407.133333333 249.933333333 407.133333333 249.933333333 406 250 c 1,44,-1
 406 250 l 1,23,24
526 250 m 1,45,46
 508 250 508 250 494 263 c 0,47,48
 480 278 480 278 480 296 c 0,49,50
 480 316 480 316 494 328 c 0,51,52
 507.066666667 341.066666667 507.066666667 341.066666667 523.617777778 341.066666667 c 0,53,54
 524.8 341.066666667 524.8 341.066666667 526 341 c 128,-1,55
 527.266666667 341.066666667 527.266666667 341.066666667 528.506666667 341.066666667 c 0,56,57
 545.866666667 341.066666667 545.866666667 341.066666667 558 328 c 0,58,59
 571.066666667 314.933333333 571.066666667 314.933333333 571.066666667 298.382222222 c 0,60,61
 571.066666667 277.071794872 571.066666667 277.071794872 558 263 c 0,62,63
 544.933333333 249.933333333 544.933333333 249.933333333 528.382222222 249.933333333 c 0,64,65
 527.2 249.933333333 527.2 249.933333333 526 250 c 1,66,-1
 526 250 l 1,45,46
886 250 m 1,67,68
 868 250 868 250 854 263 c 0,69,70
 840 278 840 278 840 296 c 0,71,72
 840 316 840 316 854 328 c 0,73,74
 867.066666667 341.066666667 867.066666667 341.066666667 883.617777778 341.066666667 c 0,75,76
 884.8 341.066666667 884.8 341.066666667 886 341 c 128,-1,77
 887.266666667 341.066666667 887.266666667 341.066666667 888.506666667 341.066666667 c 0,78,79
 905.866666667 341.066666667 905.866666667 341.066666667 918 328 c 0,80,81
 931.066666667 314.933333333 931.066666667 314.933333333 931.066666667 298.382222222 c 0,82,83
 931.066666667 277.071794872 931.066666667 277.071794872 918 263 c 0,84,85
 904.933333333 249.933333333 904.933333333 249.933333333 888.382222222 249.933333333 c 0,86,87
 887.2 249.933333333 887.2 249.933333333 886 250 c 1,88,-1
 886 250 l 1,67,68
166 250 m 1,89,90
 148 250 148 250 134 263 c 0,91,92
 120 278 120 278 120 296 c 0,93,94
 120 316 120 316 134 328 c 0,95,96
 140 334 140 334 146 338 c 1,97,-1
 146 338 l 1,98,99
 140 340 140 340 134 346 c 0,100,101
 120 360 120 360 120 379 c 256,102,103
 120 398 120 398 134 411 c 128,-1,104
 148 424 148 424 166 424 c 0,105,106
 185 424 185 424 198 411 c 128,-1,107
 211.066666667 397.933333333 211.066666667 397.933333333 211.066666667 381.382222222 c 0,108,109
 211.066666667 360.071794872 211.066666667 360.071794872 198 346 c 0,110,111
 192 340 192 340 185 338 c 1,112,-1
 185 338 l 1,113,114
 192 334 192 334 198 328 c 0,115,116
 211.066666667 314.933333333 211.066666667 314.933333333 211.066666667 298.382222222 c 0,117,118
 211.066666667 277.071794872 211.066666667 277.071794872 198 263 c 0,119,120
 184.933333333 249.933333333 184.933333333 249.933333333 168.382222222 249.933333333 c 0,121,122
 167.2 249.933333333 167.2 249.933333333 166 250 c 1,123,-1
 166 250 l 1,89,90
285 250 m 1,124,125
 266 250 266 250 253 263 c 0,126,127
 239.933333333 277 239.933333333 277 239.933333333 293.613333333 c 0,128,129
 239.933333333 315.938461538 239.933333333 315.938461538 253 328 c 0,130,131
 259 334 259 334 266 338 c 1,132,-1
 266 338 l 1,133,134
 258 340 258 340 253 346 c 0,135,136
 239.933333333 359.066666667 239.933333333 359.066666667 239.933333333 376.488888889 c 0,137,138
 239.933333333 397.933333333 239.933333333 397.933333333 253 411 c 0,139,140
 259 417 259 417 266 421 c 1,141,-1
 266 421 l 1,142,143
 258 424 258 424 253 430 c 0,144,145
 239.933333333 443.066666667 239.933333333 443.066666667 239.933333333 459.617777778 c 0,146,147
 239.933333333 480.928205128 239.933333333 480.928205128 253 495 c 0,148,149
 267 508 267 508 285 508 c 0,150,151
 304 508 304 508 318 495 c 0,152,153
 331.066666667 481.933333333 331.066666667 481.933333333 331.066666667 464.511111111 c 0,154,155
 331.066666667 443.066666667 331.066666667 443.066666667 318 430 c 0,156,157
 312 424 312 424 304 421 c 1,158,-1
 304 421 l 1,159,160
 311 418 311 418 318 411 c 0,161,162
 331.066666667 397.933333333 331.066666667 397.933333333 331.066666667 381.382222222 c 0,163,164
 331.066666667 360.071794872 331.066666667 360.071794872 318 346 c 0,165,166
 312 340 312 340 304 338 c 1,167,-1
 304 338 l 1,168,169
 311 334 311 334 318 328 c 0,170,171
 331.066666667 314.933333333 331.066666667 314.933333333 331.066666667 298.382222222 c 0,172,173
 331.066666667 277.071794872 331.066666667 277.071794872 318 263 c 0,174,175
 304.933333333 249.933333333 304.933333333 249.933333333 287.511111111 249.933333333 c 0,176,177
 286.266666667 249.933333333 286.266666667 249.933333333 285 250 c 1,178,-1
 285 250 l 1,124,125
406 416 m 1,179,180
 388 416 388 416 374 430 c 128,-1,181
 360 444 360 444 360 462 c 0,182,183
 360 481 360 481 374 495 c 0,184,185
 380 501 380 501 386 504 c 1,186,-1
 386 504 l 1,187,188
 380 507 380 507 374 513 c 0,189,190
 360 527 360 527 360 546 c 256,191,192
 360 565 360 565 374 578 c 0,193,194
 388 592 388 592 406 592 c 0,195,196
 425 592 425 592 437 578 c 0,197,198
 452 564 452 564 452 546 c 256,199,200
 452 527 452 527 437 513 c 0,201,202
 430 507 430 507 424 504 c 1,203,-1
 424 504 l 1,204,205
 431 501 431 501 437 495 c 0,206,207
 452 481 452 481 452 462 c 128,-1,208
 452 443 452 443 437 430 c 0,209,210
 423 416 423 416 406 416 c 1,211,-1
 406 416 l 1,179,180
526 500 m 1,212,213
 508 500 508 500 494 513 c 0,214,215
 480 527 480 527 480 546 c 256,216,217
 480 565 480 565 494 578 c 0,218,219
 508 592 508 592 526 592 c 0,220,221
 545 592 545 592 558 578 c 0,222,223
 571.066666667 564.933333333 571.066666667 564.933333333 571.066666667 548.382222222 c 0,224,225
 571.066666667 527.071794872 571.066666667 527.071794872 558 513 c 0,226,227
 544.933333333 499.933333333 544.933333333 499.933333333 528.382222222 499.933333333 c 0,228,229
 527.2 499.933333333 527.2 499.933333333 526 500 c 1,230,-1
 526 500 l 1,212,213
645 0 m 1,231,232
 626 0 626 0 613 14 c 0,233,234
 599.933333333 27.0666666667 599.933333333 27.0666666667 599.933333333 43.6177777778 c 0,235,236
 599.933333333 64.9333333333 599.933333333 64.9333333333 613 78 c 0,237,238
 619 84 619 84 626 87 c 1,239,-1
 626 87 l 1,240,241
 618 90 618 90 613 97 c 0,242,243
 599.933333333 110.066666667 599.933333333 110.066666667 599.933333333 126.617777778 c 0,244,245
 599.933333333 147.933333333 599.933333333 147.933333333 613 161 c 0,246,247
 619 167 619 167 626 171 c 1,248,-1
 626 171 l 1,249,250
 618 174 618 174 613 180 c 0,251,252
 599.933333333 193.066666667 599.933333333 193.066666667 599.933333333 209.617777778 c 0,253,254
 599.933333333 229.928205128 599.933333333 229.928205128 613 244 c 0,255,256
 619 250 619 250 626 254 c 1,257,-1
 626 254 l 1,258,259
 618 257 618 257 613 263 c 0,260,261
 599.933333333 277 599.933333333 277 599.933333333 293.613333333 c 0,262,263
 599.933333333 315.938461538 599.933333333 315.938461538 613 328 c 0,264,265
 619 334 619 334 626 338 c 1,266,-1
 626 338 l 1,267,268
 618 340 618 340 613 346 c 0,269,270
 599.933333333 359.066666667 599.933333333 359.066666667 599.933333333 376.488888889 c 0,271,272
 599.933333333 397.933333333 599.933333333 397.933333333 613 411 c 0,273,274
 619 417 619 417 626 421 c 1,275,-1
 626 421 l 1,276,277
 618 424 618 424 613 430 c 0,278,279
 599.933333333 443.066666667 599.933333333 443.066666667 599.933333333 459.617777778 c 0,280,281
 599.933333333 480.928205128 599.933333333 480.928205128 613 495 c 0,282,283
 619 501 619 501 626 504 c 1,284,-1
 626 504 l 1,285,286
 618 507 618 507 613 513 c 0,287,288
 599.933333333 526.066666667 599.933333333 526.066666667 599.933333333 543.488888889 c 0,289,290
 599.933333333 564.933333333 599.933333333 564.933333333 613 578 c 0,291,292
 627 592 627 592 645 592 c 0,293,294
 664 592 664 592 678 578 c 0,295,296
 691.066666667 564.933333333 691.066666667 564.933333333 691.066666667 548.382222222 c 0,297,298
 691.066666667 527.071794872 691.066666667 527.071794872 678 513 c 0,299,300
 672 507 672 507 664 504 c 1,301,-1
 664 504 l 1,302,303
 671 501 671 501 678 495 c 0,304,305
 691.066666667 481.933333333 691.066666667 481.933333333 691.066666667 464.511111111 c 0,306,307
 691.066666667 443.066666667 691.066666667 443.066666667 678 430 c 0,308,309
 672 424 672 424 664 421 c 1,310,-1
 664 421 l 1,311,312
 671 418 671 418 678 411 c 0,313,314
 691.066666667 397.933333333 691.066666667 397.933333333 691.066666667 381.382222222 c 0,315,316
 691.066666667 360.071794872 691.066666667 360.071794872 678 346 c 0,317,318
 672 340 672 340 664 338 c 1,319,-1
 664 338 l 1,320,321
 671 334 671 334 678 328 c 0,322,323
 691.066666667 314.933333333 691.066666667 314.933333333 691.066666667 298.382222222 c 0,324,325
 691.066666667 277.071794872 691.066666667 277.071794872 678 263 c 0,326,327
 672 257 672 257 664 254 c 1,328,-1
 664 254 l 1,329,330
 671 250 671 250 678 244 c 0,331,332
 691.066666667 230.933333333 691.066666667 230.933333333 691.066666667 214.382222222 c 0,333,334
 691.066666667 193.066666667 691.066666667 193.066666667 678 180 c 0,335,336
 672 174 672 174 664 171 c 1,337,-1
 664 171 l 1,338,339
 671 168 671 168 678 161 c 0,340,341
 691.066666667 147.933333333 691.066666667 147.933333333 691.066666667 131.382222222 c 0,342,343
 691.066666667 110.066666667 691.066666667 110.066666667 678 97 c 0,344,345
 672 91 672 91 664 87 c 1,346,-1
 664 87 l 1,347,348
 671 84 671 84 678 78 c 0,349,350
 691.066666667 64.9333333333 691.066666667 64.9333333333 691.066666667 48.3822222222 c 0,351,352
 691.066666667 28.0717948718 691.066666667 28.0717948718 678 14 c 0,353,354
 664 0 664 0 645 0 c 1,355,-1
 645 0 l 1,231,232
766 0 m 1,356,357
 748 0 748 0 734 14 c 128,-1,358
 720 28 720 28 720 46 c 0,359,360
 720 65 720 65 734 78 c 0,361,362
 740 84 740 84 746 87 c 1,363,-1
 746 87 l 1,364,365
 740 90 740 90 734 97 c 0,366,367
 720 111 720 111 720 129 c 256,368,369
 720 148 720 148 734 161 c 0,370,371
 740 167 740 167 746 171 c 1,372,-1
 746 171 l 1,373,374
 740 174 740 174 734 180 c 0,375,376
 720 194 720 194 720 212 c 256,377,378
 720 230 720 230 734 244 c 0,379,380
 740 250 740 250 746 254 c 1,381,-1
 746 254 l 1,382,383
 740 257 740 257 734 263 c 0,384,385
 720 278 720 278 720 296 c 0,386,387
 720 316 720 316 734 328 c 0,388,389
 740 334 740 334 746 338 c 1,390,-1
 746 338 l 1,391,392
 740 340 740 340 734 346 c 0,393,394
 720 360 720 360 720 379 c 256,395,396
 720 398 720 398 734 411 c 0,397,398
 740 417 740 417 746 421 c 1,399,-1
 746 421 l 1,400,401
 740 424 740 424 734 430 c 0,402,403
 720 444 720 444 720 462 c 0,404,405
 720 481 720 481 734 495 c 0,406,407
 740 501 740 501 746 504 c 1,408,-1
 746 504 l 1,409,410
 740 507 740 507 734 513 c 0,411,412
 720 527 720 527 720 546 c 256,413,414
 720 565 720 565 734 578 c 0,415,416
 748 592 748 592 766 592 c 0,417,418
 785 592 785 592 797 578 c 0,419,420
 812 564 812 564 812 546 c 256,421,422
 812 527 812 527 797 513 c 0,423,424
 790 507 790 507 784 504 c 1,425,-1
 784 504 l 1,426,427
 791 501 791 501 797 495 c 0,428,429
 812 481 812 481 812 462 c 128,-1,430
 812 443 812 443 797 430 c 0,431,432
 790 424 790 424 784 421 c 1,433,-1
 784 421 l 1,434,435
 791 418 791 418 797 411 c 0,436,437
 812 397 812 397 812 379 c 256,438,439
 812 360 812 360 797 346 c 0,440,441
 790 340 790 340 784 338 c 1,442,-1
 784 338 l 1,443,444
 791 334 791 334 797 328 c 0,445,446
 812 314 812 314 812 296 c 0,447,448
 812 277 812 277 797 263 c 0,449,450
 790 257 790 257 784 254 c 1,451,-1
 784 254 l 1,452,453
 791 250 791 250 797 244 c 0,454,455
 812 230 812 230 812 212 c 256,456,457
 812 193 812 193 797 180 c 0,458,459
 790 174 790 174 784 171 c 1,460,-1
 784 171 l 1,461,462
 791 168 791 168 797 161 c 0,463,464
 812 147 812 147 812 129 c 256,465,466
 812 110 812 110 797 97 c 0,467,468
 790 91 790 91 784 87 c 1,469,-1
 784 87 l 1,470,471
 791 84 791 84 797 78 c 0,472,473
 812 64 812 64 812 46 c 128,-1,474
 812 28 812 28 797 14 c 0,475,476
 783 0 783 0 766 0 c 1,477,-1
 766 0 l 1,356,357
EndSplineSet
EndChar

